<svg xmlns="http://www.w3.org/2000/svg" xmlns:xlink="http://www.w3.org/1999/xlink" width="277" viewBox="0 0 207.75 77.249999" height="103" preserveAspectRatio="xMidYMid meet"><defs><clipPath id="4a591c8ce9"><path d="M 2 0.3125 L 31 0.3125 L 31 76.121094 L 2 76.121094 Z M 2 0.3125 " clip-rule="nonzero"></path></clipPath><clipPath id="4528c55da2"><path d="M 30 0.3125 L 58 0.3125 L 58 76.121094 L 30 76.121094 Z M 30 0.3125 " clip-rule="nonzero"></path></clipPath></defs><path fill="#ffffff" d="M 81.878906 49.414062 C 77.769531 49.414062 74.691406 48.53125 72.636719 46.765625 C 70.609375 44.984375 69.597656 42.179688 69.597656 38.351562 C 69.597656 36.144531 70.015625 34.222656 70.847656 32.589844 C 71.683594 30.929688 73.007812 29.628906 74.824219 28.695312 C 76.640625 27.773438 78.992188 27.316406 81.878906 27.316406 C 84.140625 27.316406 86.023438 27.433594 87.527344 27.671875 C 89.03125 27.910156 90.042969 28.144531 90.566406 28.382812 L 90.566406 29.453125 L 91.277344 33.367188 C 90.832031 33.058594 90.15625 32.738281 89.246094 32.410156 C 88.371094 32.070312 87.304688 31.796875 86.054688 31.589844 C 84.820312 31.351562 83.449219 31.230469 81.945312 31.230469 C 80.292969 31.230469 78.960938 31.492188 77.949219 32.011719 C 76.9375 32.53125 76.191406 33.324219 75.714844 34.390625 C 75.269531 35.445312 75.046875 36.765625 75.046875 38.351562 C 75.046875 39.957031 75.269531 41.277344 75.714844 42.3125 C 76.191406 43.367188 77.003906 44.152344 78.152344 44.671875 C 79.328125 45.191406 80.933594 45.453125 82.972656 45.453125 C 85.027344 45.453125 86.738281 45.171875 88.109375 44.605469 C 89.476562 44.027344 90.414062 43.480469 90.921875 42.960938 L 90.921875 44.027344 L 91.277344 47.632812 C 90.878906 48.019531 89.886719 48.410156 88.308594 48.8125 C 86.761719 49.214844 84.617188 49.414062 81.878906 49.414062 Z M 120.371094 49.058594 L 113.363281 49.058594 C 113.523438 49.058594 113.695312 48.894531 113.875 48.566406 C 114.039062 48.226562 114.121094 47.675781 114.121094 46.921875 L 114.121094 32.65625 C 114.121094 32.136719 114.0625 31.824219 113.941406 31.722656 C 113.824219 31.632812 113.40625 31.589844 112.691406 31.589844 L 110.078125 31.589844 C 108.695312 31.589844 107.570312 31.742188 106.707031 32.054688 C 105.875 32.335938 105.324219 32.613281 105.054688 32.878906 L 105.769531 28.738281 L 105.769531 27.671875 L 127.964844 27.671875 L 127.964844 28.738281 L 128.679688 32.878906 C 128.410156 32.613281 127.851562 32.335938 127.003906 32.054688 C 126.15625 31.742188 125.046875 31.589844 123.675781 31.589844 L 121.085938 31.589844 C 120.34375 31.589844 119.910156 31.632812 119.792969 31.722656 C 119.671875 31.824219 119.613281 32.136719 119.613281 32.65625 L 119.613281 46.921875 C 119.613281 47.675781 119.703125 48.226562 119.882812 48.566406 C 120.046875 48.894531 120.207031 49.058594 120.371094 49.058594 Z M 137.789062 49.058594 L 130.867188 49.058594 C 131.03125 49.058594 131.179688 48.894531 131.3125 48.566406 C 131.492188 48.226562 131.582031 47.675781 131.582031 46.921875 L 131.582031 29.808594 C 131.582031 29.050781 131.492188 28.515625 131.3125 28.207031 C 131.148438 27.863281 130.984375 27.6875 130.820312 27.671875 L 142.542969 27.671875 C 144.644531 27.671875 146.316406 27.929688 147.566406 28.449219 C 148.832031 28.96875 149.742188 29.742188 150.292969 30.765625 C 150.859375 31.757812 151.140625 33.003906 151.140625 34.503906 C 151.140625 35.570312 150.941406 36.519531 150.539062 37.351562 C 150.152344 38.199219 149.613281 38.878906 148.929688 39.398438 C 148.230469 39.917969 147.457031 40.296875 146.609375 40.535156 L 146.609375 40.644531 C 147.5625 41.03125 148.558594 41.78125 149.601562 42.894531 C 150.65625 43.992188 151.601562 45.214844 152.433594 46.566406 C 152.984375 47.441406 153.484375 48.070312 153.929688 48.457031 C 154.378906 48.828125 154.71875 49.027344 154.957031 49.058594 L 145.960938 49.058594 C 146.242188 49.027344 146.464844 48.871094 146.628906 48.589844 C 146.824219 48.277344 146.765625 47.78125 146.453125 47.097656 C 145.945312 45.957031 145.335938 44.96875 144.621094 44.140625 C 143.90625 43.308594 143.074219 42.679688 142.121094 42.246094 C 141.195312 41.800781 140.125 41.578125 138.90625 41.578125 L 138.503906 41.578125 C 137.773438 41.578125 137.347656 41.640625 137.230469 41.757812 C 137.109375 41.875 137.050781 42.171875 137.050781 42.648438 L 137.050781 46.921875 C 137.050781 47.675781 137.132812 48.226562 137.296875 48.566406 C 137.460938 48.894531 137.625 49.058594 137.789062 49.058594 Z M 138.503906 37.976562 L 141.449219 37.976562 C 142.953125 37.976562 144.039062 37.707031 144.710938 37.171875 C 145.363281 36.640625 145.691406 35.75 145.691406 34.503906 C 145.691406 33.953125 145.574219 33.472656 145.335938 33.058594 C 145.097656 32.625 144.695312 32.292969 144.128906 32.054688 C 143.578125 31.816406 142.804688 31.699219 141.808594 31.699219 L 138.503906 31.699219 C 137.773438 31.699219 137.347656 31.738281 137.230469 31.8125 C 137.109375 31.871094 137.050781 32.136719 137.050781 32.613281 L 137.050781 36.996094 C 137.050781 37.484375 137.109375 37.773438 137.230469 37.863281 C 137.347656 37.9375 137.773438 37.976562 138.503906 37.976562 Z M 178.402344 49.058594 L 156.765625 49.058594 C 156.929688 49.058594 157.09375 48.894531 157.257812 48.566406 C 157.421875 48.226562 157.503906 47.675781 157.503906 46.921875 L 157.503906 29.808594 C 157.503906 29.050781 157.421875 28.515625 157.257812 28.207031 C 157.09375 27.863281 156.929688 27.6875 156.765625 27.671875 L 177.644531 27.671875 L 177.644531 28.738281 L 178.359375 32.878906 C 177.761719 32.613281 176.714844 32.335938 175.210938 32.054688 C 173.707031 31.742188 171.898438 31.589844 169.785156 31.589844 L 164.492188 31.589844 C 163.777344 31.589844 163.347656 31.648438 163.199219 31.765625 C 163.078125 31.855469 163.019531 32.152344 163.019531 32.65625 L 163.019531 35.304688 C 163.019531 35.824219 163.078125 36.128906 163.199219 36.21875 C 163.347656 36.320312 163.761719 36.371094 164.449219 36.371094 L 169.605469 36.371094 C 170.988281 36.371094 172.097656 36.296875 172.933594 36.148438 C 173.78125 35.988281 174.339844 35.824219 174.605469 35.660156 C 174.519531 36.105469 174.414062 36.625 174.292969 37.21875 C 174.175781 37.8125 174.078125 38.382812 174.003906 38.933594 C 173.929688 39.480469 173.894531 39.933594 173.894531 40.289062 L 164.449219 40.289062 C 163.761719 40.289062 163.347656 40.332031 163.199219 40.421875 C 163.078125 40.496094 163.019531 40.808594 163.019531 41.359375 L 163.019531 43.984375 C 163.019531 44.53125 163.078125 44.859375 163.199219 44.960938 C 163.316406 45.050781 163.734375 45.097656 164.449219 45.097656 L 174.117188 45.097656 C 175.5 45.097656 176.609375 44.941406 177.441406 44.628906 C 178.292969 44.300781 178.847656 43.984375 179.117188 43.671875 L 178.402344 47.945312 Z M 166.035156 24.535156 L 162.796875 24.535156 C 163.109375 24.175781 163.457031 23.785156 163.84375 23.355469 C 164.246094 22.910156 164.640625 22.472656 165.027344 22.042969 C 165.402344 21.609375 165.71875 21.261719 165.988281 20.996094 C 166.183594 20.789062 166.316406 20.625 166.390625 20.503906 C 166.449219 20.355469 166.480469 20.277344 166.480469 20.261719 L 169.382812 20.261719 C 169.382812 20.351562 169.539062 20.59375 169.851562 20.996094 C 170 21.171875 170.238281 21.46875 170.566406 21.886719 C 170.921875 22.300781 171.300781 22.746094 171.703125 23.222656 C 172.136719 23.695312 172.523438 24.132812 172.867188 24.535156 L 169.605469 24.535156 L 167.953125 22.109375 Z M 193.230469 49.414062 C 190.625 49.414062 188.316406 49.292969 186.308594 49.058594 C 184.3125 48.820312 182.875 48.582031 181.996094 48.34375 L 181.996094 47.277344 L 181.285156 42.757812 C 181.730469 43.128906 182.472656 43.53125 183.515625 43.960938 C 184.574219 44.390625 185.925781 44.761719 187.578125 45.074219 C 189.21875 45.355469 191.121094 45.496094 193.296875 45.496094 C 194.636719 45.496094 195.664062 45.414062 196.375 45.25 C 197.089844 45.058594 197.574219 44.800781 197.828125 44.472656 C 198.097656 44.132812 198.230469 43.738281 198.230469 43.292969 C 198.230469 42.714844 198.035156 42.277344 197.648438 41.980469 C 197.277344 41.640625 196.585938 41.363281 195.574219 41.15625 C 194.605469 40.933594 193.214844 40.703125 191.398438 40.46875 C 189.222656 40.183594 187.410156 39.792969 185.949219 39.289062 C 184.507812 38.796875 183.425781 38.101562 182.710938 37.195312 C 181.996094 36.261719 181.640625 35.039062 181.640625 33.523438 C 181.640625 32.292969 181.960938 31.210938 182.601562 30.273438 C 183.242188 29.355469 184.273438 28.628906 185.703125 28.09375 C 187.132812 27.574219 189.03125 27.316406 191.398438 27.316406 C 193.882812 27.316406 196.003906 27.433594 197.761719 27.671875 C 199.53125 27.910156 200.753906 28.144531 201.421875 28.382812 L 201.421875 29.453125 L 202.496094 33.367188 C 201.898438 33.070312 201.035156 32.753906 199.90625 32.410156 C 198.789062 32.085938 197.492188 31.8125 196.019531 31.589844 C 194.53125 31.351562 192.929688 31.230469 191.21875 31.230469 C 190.148438 31.230469 189.3125 31.328125 188.71875 31.519531 C 188.121094 31.683594 187.691406 31.9375 187.421875 32.277344 C 187.183594 32.589844 187.066406 32.984375 187.066406 33.457031 C 187.066406 34.019531 187.28125 34.480469 187.714844 34.835938 C 188.160156 35.179688 188.890625 35.453125 189.902344 35.660156 C 190.898438 35.867188 192.246094 36.070312 193.941406 36.261719 C 196.535156 36.542969 198.535156 36.972656 199.949219 37.550781 C 201.347656 38.117188 202.316406 38.851562 202.851562 39.753906 C 203.402344 40.628906 203.679688 41.699219 203.679688 42.960938 C 203.679688 44.058594 203.46875 45.023438 203.054688 45.851562 C 202.652344 46.667969 202.019531 47.335938 201.15625 47.855469 C 200.320312 48.375 199.242188 48.769531 197.917969 49.035156 C 196.59375 49.289062 195.03125 49.414062 193.230469 49.414062 Z M 193.230469 49.414062 " fill-opacity="1" fill-rule="evenodd"></path><path fill="#ffffff" d="M 103 39.644531 L 99.363281 43.269531 L 95.722656 39.644531 L 99.363281 36.015625 Z M 103 39.644531 " fill-opacity="1" fill-rule="nonzero"></path><path fill="#ffffff" d="M 107.535156 61.832031 C 107.132812 61.832031 106.78125 61.75 106.484375 61.585938 C 106.1875 61.421875 105.949219 61.199219 105.769531 60.917969 C 105.621094 60.636719 105.546875 60.308594 105.546875 59.9375 L 105.546875 57.46875 C 105.546875 57.097656 105.621094 56.773438 105.769531 56.488281 C 105.949219 56.207031 106.1875 55.984375 106.484375 55.824219 C 106.78125 55.675781 107.132812 55.601562 107.535156 55.601562 C 107.921875 55.601562 108.261719 55.675781 108.5625 55.824219 C 108.875 55.984375 109.105469 56.199219 109.253906 56.46875 C 109.433594 56.75 109.519531 57.074219 109.519531 57.445312 C 109.519531 57.476562 109.515625 57.5 109.5 57.511719 C 109.46875 57.527344 109.445312 57.535156 109.433594 57.535156 L 109.140625 57.558594 C 109.082031 57.558594 109.050781 57.527344 109.050781 57.46875 L 109.050781 57.445312 C 109.050781 57.015625 108.910156 56.667969 108.628906 56.402344 C 108.359375 56.132812 107.996094 56 107.535156 56 C 107.074219 56 106.699219 56.132812 106.417969 56.402344 C 106.136719 56.667969 105.992188 57.015625 105.992188 57.445312 L 105.992188 59.960938 C 105.992188 60.390625 106.136719 60.742188 106.417969 61.007812 C 106.699219 61.273438 107.074219 61.40625 107.535156 61.40625 C 107.996094 61.40625 108.359375 61.273438 108.628906 61.007812 C 108.910156 60.742188 109.050781 60.390625 109.050781 59.960938 L 109.050781 59.9375 C 109.050781 59.894531 109.082031 59.871094 109.140625 59.871094 L 109.433594 59.894531 C 109.492188 59.894531 109.519531 59.917969 109.519531 59.960938 C 109.519531 60.332031 109.433594 60.660156 109.253906 60.941406 C 109.105469 61.207031 108.875 61.421875 108.5625 61.585938 C 108.261719 61.75 107.921875 61.832031 107.535156 61.832031 Z M 112.824219 61.808594 C 112.421875 61.808594 112.074219 61.726562 111.777344 61.5625 C 111.464844 61.402344 111.226562 61.171875 111.0625 60.875 C 110.898438 60.578125 110.816406 60.234375 110.816406 59.851562 L 110.816406 57.558594 C 110.816406 57.171875 110.898438 56.832031 111.0625 56.535156 C 111.226562 56.238281 111.464844 56.007812 111.777344 55.84375 C 112.074219 55.679688 112.421875 55.601562 112.824219 55.601562 C 113.226562 55.601562 113.585938 55.679688 113.898438 55.84375 C 114.210938 56.007812 114.449219 56.238281 114.613281 56.535156 C 114.777344 56.832031 114.859375 57.171875 114.859375 57.558594 L 114.859375 59.851562 C 114.859375 60.234375 114.777344 60.578125 114.613281 60.875 C 114.449219 61.171875 114.210938 61.402344 113.898438 61.5625 C 113.585938 61.726562 113.226562 61.808594 112.824219 61.808594 Z M 112.824219 61.40625 C 113.300781 61.40625 113.679688 61.265625 113.964844 60.984375 C 114.261719 60.703125 114.410156 60.324219 114.410156 59.851562 L 114.410156 57.558594 C 114.410156 57.097656 114.261719 56.726562 113.964844 56.445312 C 113.679688 56.148438 113.300781 56 112.824219 56 C 112.363281 56 111.992188 56.148438 111.710938 56.445312 C 111.425781 56.726562 111.285156 57.097656 111.285156 57.558594 L 111.285156 59.851562 C 111.285156 60.324219 111.425781 60.703125 111.710938 60.984375 C 111.992188 61.265625 112.363281 61.40625 112.824219 61.40625 Z M 120.058594 61.742188 C 120 61.742188 119.964844 61.71875 119.949219 61.675781 L 118.609375 58.914062 C 118.609375 58.902344 118.601562 58.894531 118.585938 58.894531 L 116.933594 58.894531 C 116.902344 58.894531 116.890625 58.910156 116.890625 58.9375 L 116.890625 61.652344 C 116.890625 61.710938 116.867188 61.742188 116.824219 61.742188 L 116.53125 61.742188 C 116.472656 61.742188 116.441406 61.710938 116.441406 61.652344 L 116.441406 55.753906 C 116.441406 55.695312 116.472656 55.667969 116.53125 55.667969 L 118.71875 55.667969 C 119.210938 55.667969 119.605469 55.816406 119.902344 56.113281 C 120.203125 56.421875 120.351562 56.816406 120.351562 57.292969 C 120.351562 57.707031 120.238281 58.054688 120.015625 58.335938 C 119.792969 58.617188 119.488281 58.796875 119.101562 58.871094 C 119.070312 58.871094 119.0625 58.878906 119.078125 58.894531 L 120.394531 61.628906 C 120.410156 61.644531 120.417969 61.660156 120.417969 61.675781 C 120.417969 61.71875 120.394531 61.742188 120.351562 61.742188 Z M 116.933594 56.066406 C 116.902344 56.066406 116.890625 56.082031 116.890625 56.113281 L 116.890625 58.46875 C 116.890625 58.5 116.902344 58.515625 116.933594 58.515625 L 118.675781 58.515625 C 119.03125 58.515625 119.324219 58.402344 119.546875 58.179688 C 119.769531 57.945312 119.882812 57.648438 119.882812 57.292969 C 119.882812 56.933594 119.769531 56.644531 119.546875 56.421875 C 119.324219 56.1875 119.03125 56.066406 118.675781 56.066406 Z M 125.375 61.742188 C 125.328125 61.742188 125.300781 61.71875 125.285156 61.675781 L 123.945312 58.914062 C 123.929688 58.902344 123.914062 58.894531 123.898438 58.894531 L 122.269531 58.894531 C 122.242188 58.894531 122.226562 58.910156 122.226562 58.9375 L 122.226562 61.652344 C 122.226562 61.710938 122.195312 61.742188 122.136719 61.742188 L 121.847656 61.742188 C 121.785156 61.742188 121.757812 61.710938 121.757812 61.652344 L 121.757812 55.753906 C 121.757812 55.695312 121.785156 55.667969 121.847656 55.667969 L 124.058594 55.667969 C 124.53125 55.667969 124.921875 55.816406 125.21875 56.113281 C 125.515625 56.421875 125.664062 56.816406 125.664062 57.292969 C 125.664062 57.707031 125.550781 58.054688 125.328125 58.335938 C 125.105469 58.617188 124.800781 58.796875 124.414062 58.871094 C 124.382812 58.871094 124.375 58.878906 124.390625 58.894531 L 125.730469 61.628906 C 125.730469 61.644531 125.730469 61.660156 125.730469 61.675781 C 125.730469 61.71875 125.707031 61.742188 125.664062 61.742188 Z M 122.25 56.066406 C 122.234375 56.066406 122.226562 56.082031 122.226562 56.113281 L 122.226562 58.46875 C 122.226562 58.5 122.234375 58.515625 122.25 58.515625 L 123.988281 58.515625 C 124.363281 58.515625 124.652344 58.402344 124.859375 58.179688 C 125.097656 57.945312 125.21875 57.648438 125.21875 57.292969 C 125.21875 56.933594 125.097656 56.644531 124.859375 56.421875 C 124.652344 56.1875 124.363281 56.066406 123.988281 56.066406 Z M 130.976562 55.976562 C 130.976562 56.039062 130.949219 56.066406 130.890625 56.066406 L 127.585938 56.066406 C 127.570312 56.066406 127.5625 56.082031 127.5625 56.113281 L 127.5625 58.449219 C 127.5625 58.476562 127.570312 58.492188 127.585938 58.492188 L 129.929688 58.492188 C 129.988281 58.492188 130.019531 58.523438 130.019531 58.582031 L 130.019531 58.804688 C 130.019531 58.863281 129.988281 58.894531 129.929688 58.894531 L 127.585938 58.894531 C 127.570312 58.894531 127.5625 58.910156 127.5625 58.9375 L 127.5625 61.296875 C 127.5625 61.328125 127.570312 61.339844 127.585938 61.339844 L 130.890625 61.339844 C 130.949219 61.339844 130.976562 61.371094 130.976562 61.429688 L 130.976562 61.652344 C 130.976562 61.710938 130.949219 61.742188 130.890625 61.742188 L 127.183594 61.742188 C 127.125 61.742188 127.09375 61.710938 127.09375 61.652344 L 127.09375 55.753906 C 127.09375 55.695312 127.125 55.667969 127.183594 55.667969 L 130.890625 55.667969 C 130.949219 55.667969 130.976562 55.695312 130.976562 55.753906 Z M 135.957031 55.644531 C 136.003906 55.644531 136.023438 55.675781 136.023438 55.734375 L 136.023438 55.976562 C 136.023438 56.039062 136.003906 56.066406 135.957031 56.066406 L 134.214844 56.066406 C 134.1875 56.066406 134.171875 56.074219 134.171875 56.089844 L 134.171875 61.652344 C 134.171875 61.699219 134.140625 61.71875 134.082031 61.71875 L 133.792969 61.71875 C 133.730469 61.71875 133.703125 61.699219 133.703125 61.652344 L 133.703125 56.089844 C 133.703125 56.074219 133.695312 56.066406 133.679688 56.066406 L 132.027344 56.066406 C 131.96875 56.066406 131.9375 56.039062 131.9375 55.976562 L 131.9375 55.734375 C 131.9375 55.675781 131.96875 55.644531 132.027344 55.644531 Z M 138.679688 61.808594 C 138.28125 61.808594 137.929688 61.726562 137.632812 61.5625 C 137.320312 61.386719 137.082031 61.148438 136.917969 60.851562 C 136.753906 60.554688 136.671875 60.214844 136.671875 59.828125 L 136.671875 57.558594 C 136.671875 57.171875 136.753906 56.832031 136.917969 56.535156 C 137.082031 56.238281 137.320312 56.007812 137.632812 55.84375 C 137.929688 55.667969 138.28125 55.578125 138.679688 55.578125 C 139.082031 55.578125 139.441406 55.667969 139.753906 55.84375 C 140.050781 56.007812 140.289062 56.238281 140.46875 56.535156 C 140.632812 56.832031 140.714844 57.171875 140.714844 57.558594 L 140.714844 59.828125 C 140.714844 60.214844 140.632812 60.554688 140.46875 60.851562 C 140.289062 61.148438 140.050781 61.386719 139.753906 61.5625 C 139.441406 61.726562 139.082031 61.808594 138.679688 61.808594 Z M 138.679688 61.40625 C 139.15625 61.40625 139.539062 61.265625 139.820312 60.984375 C 140.101562 60.6875 140.246094 60.308594 140.246094 59.851562 L 140.246094 57.535156 C 140.246094 57.074219 140.101562 56.707031 139.820312 56.421875 C 139.539062 56.140625 139.15625 56 138.679688 56 C 138.21875 56 137.847656 56.140625 137.566406 56.421875 C 137.28125 56.707031 137.140625 57.074219 137.140625 57.535156 L 137.140625 59.851562 C 137.140625 60.308594 137.28125 60.6875 137.566406 60.984375 C 137.847656 61.265625 138.21875 61.40625 138.679688 61.40625 Z M 145.894531 61.71875 C 145.847656 61.71875 145.820312 61.703125 145.804688 61.675781 L 144.464844 58.914062 C 144.464844 58.902344 144.457031 58.894531 144.441406 58.894531 L 142.789062 58.894531 C 142.761719 58.894531 142.746094 58.902344 142.746094 58.914062 L 142.746094 61.652344 C 142.746094 61.699219 142.714844 61.71875 142.65625 61.71875 L 142.367188 61.71875 C 142.320312 61.71875 142.296875 61.699219 142.296875 61.652344 L 142.296875 55.734375 C 142.296875 55.675781 142.320312 55.644531 142.367188 55.644531 L 144.574219 55.644531 C 145.066406 55.644531 145.453125 55.800781 145.738281 56.113281 C 146.050781 56.410156 146.207031 56.800781 146.207031 57.292969 C 146.207031 57.691406 146.085938 58.039062 145.847656 58.335938 C 145.625 58.605469 145.328125 58.773438 144.957031 58.847656 C 144.925781 58.863281 144.910156 58.878906 144.910156 58.894531 L 146.25 61.628906 C 146.25 61.644531 146.25 61.660156 146.25 61.675781 C 146.25 61.703125 146.226562 61.71875 146.183594 61.71875 Z M 142.789062 56.066406 C 142.761719 56.066406 142.746094 56.074219 142.746094 56.089844 L 142.746094 58.46875 C 142.746094 58.484375 142.761719 58.492188 142.789062 58.492188 L 144.53125 58.492188 C 144.886719 58.492188 145.179688 58.382812 145.402344 58.160156 C 145.625 57.9375 145.738281 57.648438 145.738281 57.292969 C 145.738281 56.921875 145.625 56.625 145.402344 56.402344 C 145.179688 56.179688 144.886719 56.066406 144.53125 56.066406 Z M 151.542969 61.71875 C 151.496094 61.71875 151.460938 61.699219 151.429688 61.652344 L 151.074219 60.496094 C 151.058594 60.480469 151.042969 60.472656 151.027344 60.472656 L 148.304688 60.472656 C 148.289062 60.472656 148.28125 60.480469 148.28125 60.496094 L 147.902344 61.652344 C 147.886719 61.699219 147.859375 61.71875 147.8125 61.71875 L 147.5 61.71875 C 147.441406 61.71875 147.417969 61.691406 147.433594 61.628906 L 149.375 55.734375 C 149.390625 55.675781 149.421875 55.644531 149.464844 55.644531 L 149.867188 55.644531 C 149.914062 55.644531 149.941406 55.675781 149.957031 55.734375 L 151.898438 61.628906 L 151.921875 61.675781 C 151.921875 61.703125 151.890625 61.71875 151.832031 61.71875 Z M 148.417969 60.050781 C 148.417969 60.066406 148.417969 60.082031 148.417969 60.09375 C 148.429688 60.09375 148.445312 60.09375 148.460938 60.09375 L 150.894531 60.09375 C 150.910156 60.09375 150.917969 60.09375 150.917969 60.09375 C 150.933594 60.082031 150.941406 60.066406 150.941406 60.050781 L 149.710938 56.289062 C 149.695312 56.273438 149.683594 56.265625 149.667969 56.265625 C 149.667969 56.265625 149.660156 56.273438 149.644531 56.289062 Z M 154.957031 61.71875 C 154.898438 61.71875 154.871094 61.691406 154.871094 61.628906 L 154.871094 55.734375 C 154.871094 55.675781 154.898438 55.644531 154.957031 55.644531 L 156.992188 55.644531 C 157.542969 55.644531 157.980469 55.792969 158.308594 56.089844 C 158.636719 56.371094 158.800781 56.765625 158.800781 57.269531 L 158.800781 60.074219 C 158.800781 60.578125 158.636719 60.976562 158.308594 61.273438 C 157.980469 61.570312 157.542969 61.71875 156.992188 61.71875 Z M 155.316406 61.273438 C 155.316406 61.289062 155.332031 61.296875 155.359375 61.296875 L 156.992188 61.296875 C 157.40625 61.296875 157.726562 61.183594 157.949219 60.964844 C 158.1875 60.742188 158.316406 60.429688 158.328125 60.027344 L 158.328125 57.3125 C 158.328125 56.925781 158.210938 56.625 157.972656 56.402344 C 157.734375 56.164062 157.40625 56.042969 156.992188 56.042969 L 155.359375 56.042969 C 155.332031 56.042969 155.316406 56.058594 155.316406 56.089844 Z M 164.136719 55.957031 C 164.136719 56.015625 164.105469 56.042969 164.046875 56.042969 L 160.742188 56.042969 C 160.710938 56.042969 160.695312 56.050781 160.695312 56.066406 L 160.695312 58.425781 C 160.695312 58.441406 160.710938 58.449219 160.742188 58.449219 L 163.085938 58.449219 C 163.144531 58.449219 163.175781 58.476562 163.175781 58.539062 L 163.175781 58.78125 C 163.175781 58.839844 163.144531 58.871094 163.085938 58.871094 L 160.742188 58.871094 C 160.710938 58.871094 160.695312 58.878906 160.695312 58.894531 L 160.695312 61.273438 C 160.695312 61.289062 160.710938 61.296875 160.742188 61.296875 L 164.046875 61.296875 C 164.105469 61.296875 164.136719 61.328125 164.136719 61.386719 L 164.136719 61.628906 C 164.136719 61.691406 164.105469 61.71875 164.046875 61.71875 L 160.339844 61.71875 C 160.28125 61.71875 160.25 61.691406 160.25 61.628906 L 160.25 55.710938 C 160.25 55.667969 160.28125 55.644531 160.339844 55.644531 L 164.046875 55.644531 C 164.105469 55.644531 164.136719 55.667969 164.136719 55.710938 Z M 168.980469 61.785156 C 168.339844 61.785156 167.835938 61.644531 167.460938 61.363281 C 167.089844 61.082031 166.902344 60.695312 166.902344 60.207031 L 166.902344 59.917969 C 166.902344 59.859375 166.933594 59.828125 166.992188 59.828125 L 167.261719 59.828125 C 167.320312 59.828125 167.351562 59.859375 167.351562 59.917969 L 167.351562 60.183594 C 167.351562 60.539062 167.5 60.828125 167.796875 61.050781 C 168.09375 61.273438 168.503906 61.386719 169.023438 61.386719 C 169.5 61.386719 169.867188 61.289062 170.121094 61.097656 C 170.386719 60.890625 170.519531 60.605469 170.519531 60.25 C 170.519531 60.042969 170.460938 59.859375 170.34375 59.695312 C 170.222656 59.53125 170.042969 59.382812 169.808594 59.25 C 169.582031 59.117188 169.257812 58.953125 168.824219 58.761719 C 168.363281 58.582031 168.019531 58.425781 167.796875 58.292969 C 167.574219 58.160156 167.386719 58.003906 167.238281 57.824219 C 167.105469 57.617188 167.039062 57.367188 167.039062 57.070312 C 167.039062 56.59375 167.203125 56.222656 167.527344 55.957031 C 167.855469 55.703125 168.3125 55.578125 168.890625 55.578125 C 169.53125 55.578125 170.03125 55.71875 170.386719 56 C 170.746094 56.296875 170.921875 56.691406 170.921875 57.179688 L 170.921875 57.378906 C 170.921875 57.441406 170.894531 57.46875 170.832031 57.46875 L 170.542969 57.46875 C 170.484375 57.46875 170.453125 57.441406 170.453125 57.378906 L 170.453125 57.203125 C 170.453125 56.832031 170.3125 56.535156 170.03125 56.3125 C 169.761719 56.089844 169.375 55.976562 168.867188 55.976562 C 168.421875 55.976562 168.078125 56.074219 167.839844 56.265625 C 167.605469 56.445312 167.484375 56.707031 167.484375 57.046875 C 167.484375 57.269531 167.542969 57.453125 167.664062 57.601562 C 167.765625 57.75 167.921875 57.878906 168.132812 57.980469 C 168.339844 58.085938 168.660156 58.226562 169.09375 58.402344 C 169.507812 58.582031 169.851562 58.753906 170.121094 58.914062 C 170.386719 59.0625 170.59375 59.25 170.746094 59.472656 C 170.894531 59.679688 170.96875 59.933594 170.96875 60.230469 C 170.96875 60.703125 170.796875 61.082031 170.453125 61.363281 C 170.097656 61.644531 169.605469 61.785156 168.980469 61.785156 Z M 176.257812 55.957031 C 176.257812 56.015625 176.230469 56.042969 176.171875 56.042969 L 172.867188 56.042969 C 172.851562 56.042969 172.84375 56.058594 172.84375 56.089844 L 172.84375 58.425781 C 172.84375 58.457031 172.851562 58.46875 172.867188 58.46875 L 175.210938 58.46875 C 175.269531 58.46875 175.300781 58.5 175.300781 58.558594 L 175.300781 58.78125 C 175.300781 58.839844 175.269531 58.871094 175.210938 58.871094 L 172.867188 58.871094 C 172.851562 58.871094 172.84375 58.886719 172.84375 58.914062 L 172.84375 61.273438 C 172.84375 61.304688 172.851562 61.320312 172.867188 61.320312 L 176.171875 61.320312 C 176.230469 61.320312 176.257812 61.347656 176.257812 61.40625 L 176.257812 61.628906 C 176.257812 61.691406 176.230469 61.71875 176.171875 61.71875 L 172.464844 61.71875 C 172.402344 61.71875 172.375 61.691406 172.375 61.628906 L 172.375 55.734375 C 172.375 55.675781 172.402344 55.644531 172.464844 55.644531 L 176.171875 55.644531 C 176.230469 55.644531 176.257812 55.675781 176.257812 55.734375 Z M 179.496094 61.785156 C 179.09375 61.785156 178.746094 61.703125 178.449219 61.542969 C 178.148438 61.394531 177.910156 61.179688 177.734375 60.894531 C 177.570312 60.613281 177.488281 60.289062 177.488281 59.917969 L 177.488281 57.425781 C 177.488281 57.054688 177.570312 56.726562 177.734375 56.445312 C 177.910156 56.164062 178.148438 55.949219 178.449219 55.800781 C 178.746094 55.636719 179.09375 55.554688 179.496094 55.554688 C 179.882812 55.554688 180.226562 55.636719 180.523438 55.800781 C 180.820312 55.949219 181.050781 56.15625 181.214844 56.421875 C 181.378906 56.707031 181.460938 57.023438 181.460938 57.378906 L 181.460938 57.492188 C 181.460938 57.550781 181.433594 57.582031 181.371094 57.582031 L 181.082031 57.582031 C 181.039062 57.582031 181.015625 57.550781 181.015625 57.492188 L 181.015625 57.378906 C 181.015625 56.964844 180.875 56.625 180.589844 56.355469 C 180.308594 56.105469 179.945312 55.976562 179.496094 55.976562 C 179.035156 55.976562 178.664062 56.113281 178.378906 56.378906 C 178.097656 56.632812 177.957031 56.972656 177.957031 57.402344 L 177.957031 59.9375 C 177.957031 60.371094 178.097656 60.71875 178.378906 60.984375 C 178.664062 61.238281 179.035156 61.363281 179.496094 61.363281 C 179.945312 61.363281 180.308594 61.246094 180.589844 61.007812 C 180.875 60.742188 181.015625 60.398438 181.015625 59.984375 L 181.015625 59.117188 C 181.015625 59.085938 181 59.070312 180.96875 59.070312 L 179.609375 59.070312 C 179.550781 59.070312 179.519531 59.042969 179.519531 58.980469 L 179.519531 58.761719 C 179.519531 58.699219 179.550781 58.671875 179.609375 58.671875 L 181.371094 58.671875 C 181.433594 58.671875 181.460938 58.699219 181.460938 58.761719 L 181.460938 59.894531 C 181.460938 60.472656 181.28125 60.933594 180.925781 61.273438 C 180.570312 61.617188 180.09375 61.785156 179.496094 61.785156 Z M 184.988281 61.785156 C 184.585938 61.785156 184.238281 61.703125 183.941406 61.542969 C 183.628906 61.378906 183.390625 61.15625 183.226562 60.875 C 183.0625 60.578125 182.980469 60.242188 182.980469 59.871094 L 182.980469 55.710938 C 182.980469 55.667969 183.011719 55.644531 183.070312 55.644531 L 183.335938 55.644531 C 183.398438 55.644531 183.425781 55.667969 183.425781 55.710938 L 183.425781 59.894531 C 183.425781 60.339844 183.566406 60.695312 183.851562 60.964844 C 184.148438 61.230469 184.527344 61.363281 184.988281 61.363281 C 185.464844 61.363281 185.84375 61.230469 186.128906 60.964844 C 186.410156 60.695312 186.550781 60.339844 186.550781 59.894531 L 186.550781 55.710938 C 186.550781 55.667969 186.582031 55.644531 186.640625 55.644531 L 186.933594 55.644531 C 186.992188 55.644531 187.023438 55.667969 187.023438 55.710938 L 187.023438 59.871094 C 187.023438 60.242188 186.933594 60.578125 186.753906 60.875 C 186.589844 61.15625 186.351562 61.378906 186.039062 61.542969 C 185.742188 61.703125 185.390625 61.785156 184.988281 61.785156 Z M 192.335938 61.71875 C 192.289062 61.71875 192.261719 61.699219 192.246094 61.652344 L 190.90625 58.894531 C 190.90625 58.878906 190.890625 58.871094 190.863281 58.871094 L 189.230469 58.871094 C 189.203125 58.871094 189.1875 58.878906 189.1875 58.894531 L 189.1875 61.628906 C 189.1875 61.691406 189.15625 61.71875 189.097656 61.71875 L 188.808594 61.71875 C 188.75 61.71875 188.71875 61.691406 188.71875 61.628906 L 188.71875 55.710938 C 188.71875 55.667969 188.75 55.644531 188.808594 55.644531 L 191.019531 55.644531 C 191.496094 55.644531 191.882812 55.792969 192.179688 56.089844 C 192.492188 56.386719 192.648438 56.777344 192.648438 57.269531 C 192.648438 57.683594 192.527344 58.03125 192.289062 58.316406 C 192.066406 58.582031 191.761719 58.753906 191.375 58.828125 C 191.34375 58.839844 191.339844 58.855469 191.351562 58.871094 L 192.691406 61.609375 C 192.691406 61.625 192.691406 61.636719 192.691406 61.652344 C 192.691406 61.699219 192.671875 61.71875 192.625 61.71875 Z M 189.230469 56.042969 C 189.203125 56.042969 189.1875 56.050781 189.1875 56.066406 L 189.1875 58.449219 C 189.1875 58.464844 189.203125 58.46875 189.230469 58.46875 L 190.972656 58.46875 C 191.332031 58.46875 191.621094 58.359375 191.84375 58.136719 C 192.066406 57.914062 192.179688 57.625 192.179688 57.269531 C 192.179688 56.898438 192.066406 56.601562 191.84375 56.378906 C 191.621094 56.15625 191.332031 56.042969 190.972656 56.042969 Z M 195.863281 61.785156 C 195.460938 61.785156 195.113281 61.703125 194.8125 61.542969 C 194.5 61.363281 194.261719 61.132812 194.097656 60.851562 C 193.9375 60.539062 193.855469 60.191406 193.855469 59.804688 L 193.855469 57.535156 C 193.855469 57.148438 193.9375 56.808594 194.097656 56.511719 C 194.261719 56.214844 194.5 55.984375 194.8125 55.824219 C 195.113281 55.644531 195.460938 55.554688 195.863281 55.554688 C 196.265625 55.554688 196.621094 55.644531 196.933594 55.824219 C 197.234375 55.984375 197.472656 56.214844 197.648438 56.511719 C 197.8125 56.808594 197.894531 57.148438 197.894531 57.535156 L 197.894531 59.804688 C 197.894531 60.191406 197.8125 60.539062 197.648438 60.851562 C 197.472656 61.132812 197.234375 61.363281 196.933594 61.542969 C 196.621094 61.703125 196.265625 61.785156 195.863281 61.785156 Z M 195.863281 61.386719 C 196.339844 61.386719 196.71875 61.246094 197.003906 60.964844 C 197.285156 60.667969 197.425781 60.289062 197.425781 59.828125 L 197.425781 57.535156 C 197.425781 57.0625 197.285156 56.683594 197.003906 56.402344 C 196.71875 56.117188 196.339844 55.976562 195.863281 55.976562 C 195.402344 55.976562 195.03125 56.117188 194.746094 56.402344 C 194.464844 56.683594 194.324219 57.0625 194.324219 57.535156 L 194.324219 59.828125 C 194.324219 60.289062 194.464844 60.667969 194.746094 60.964844 C 195.03125 61.246094 195.402344 61.386719 195.863281 61.386719 Z M 201.15625 61.785156 C 200.515625 61.785156 200.007812 61.644531 199.636719 61.363281 C 199.265625 61.066406 199.078125 60.679688 199.078125 60.207031 L 199.078125 59.917969 C 199.078125 59.859375 199.109375 59.828125 199.167969 59.828125 L 199.4375 59.828125 C 199.496094 59.828125 199.523438 59.859375 199.523438 59.917969 L 199.523438 60.183594 C 199.523438 60.539062 199.675781 60.828125 199.972656 61.050781 C 200.269531 61.257812 200.671875 61.363281 201.175781 61.363281 C 201.667969 61.363281 202.039062 61.265625 202.292969 61.074219 C 202.546875 60.867188 202.671875 60.59375 202.671875 60.25 C 202.671875 60.027344 202.613281 59.84375 202.496094 59.695312 C 202.390625 59.53125 202.21875 59.375 201.980469 59.226562 C 201.742188 59.09375 201.40625 58.9375 200.976562 58.761719 C 200.53125 58.566406 200.1875 58.402344 199.949219 58.269531 C 199.726562 58.152344 199.546875 57.996094 199.414062 57.804688 C 199.265625 57.609375 199.191406 57.359375 199.191406 57.046875 C 199.191406 56.570312 199.355469 56.207031 199.679688 55.957031 C 200.023438 55.6875 200.484375 55.554688 201.066406 55.554688 C 201.691406 55.554688 202.183594 55.703125 202.539062 56 C 202.898438 56.28125 203.074219 56.667969 203.074219 57.15625 L 203.074219 57.359375 C 203.074219 57.417969 203.054688 57.445312 203.007812 57.445312 L 202.71875 57.445312 C 202.660156 57.445312 202.628906 57.417969 202.628906 57.359375 L 202.628906 57.179688 C 202.628906 56.824219 202.488281 56.535156 202.203125 56.3125 C 201.921875 56.089844 201.527344 55.976562 201.019531 55.976562 C 200.589844 55.976562 200.253906 56.066406 200.015625 56.246094 C 199.777344 56.421875 199.660156 56.683594 199.660156 57.023438 C 199.660156 57.261719 199.710938 57.453125 199.816406 57.601562 C 199.933594 57.734375 200.089844 57.863281 200.285156 57.980469 C 200.492188 58.085938 200.8125 58.226562 201.246094 58.402344 C 201.675781 58.566406 202.027344 58.730469 202.292969 58.894531 C 202.546875 59.054688 202.753906 59.242188 202.917969 59.449219 C 203.066406 59.671875 203.140625 59.933594 203.140625 60.230469 C 203.140625 60.6875 202.964844 61.066406 202.605469 61.363281 C 202.265625 61.644531 201.78125 61.785156 201.15625 61.785156 Z M 201.15625 61.785156 " fill-opacity="1" fill-rule="evenodd"></path><path fill="#ffffff" d="M 75.070312 22.574219 C 73.757812 22.574219 72.730469 22.242188 71.988281 21.574219 C 71.242188 20.890625 70.871094 19.851562 70.871094 18.457031 C 70.871094 17.640625 71.027344 16.921875 71.339844 16.300781 C 71.652344 15.660156 72.152344 15.171875 72.835938 14.832031 C 73.507812 14.476562 74.382812 14.296875 75.472656 14.296875 C 76.261719 14.296875 76.945312 14.355469 77.523438 14.476562 C 78.105469 14.59375 78.507812 14.710938 78.730469 14.832031 L 78.730469 14.964844 L 78.863281 15.632812 C 78.625 15.453125 78.210938 15.277344 77.613281 15.097656 C 77.019531 14.921875 76.3125 14.832031 75.492188 14.832031 C 74.675781 14.832031 73.96875 14.957031 73.371094 15.210938 C 72.792969 15.476562 72.351562 15.878906 72.054688 16.410156 C 71.757812 16.945312 71.609375 17.628906 71.609375 18.457031 C 71.609375 19.273438 71.757812 19.941406 72.054688 20.460938 C 72.351562 20.996094 72.769531 21.386719 73.304688 21.640625 C 73.828125 21.894531 74.421875 22.019531 75.089844 22.019531 C 75.671875 22.019531 76.207031 21.960938 76.699219 21.839844 C 77.191406 21.707031 77.578125 21.5 77.859375 21.21875 C 78.15625 20.949219 78.308594 20.59375 78.308594 20.148438 L 78.308594 19.394531 C 78.308594 19.183594 78.285156 19.074219 78.238281 19.058594 C 78.210938 19.015625 78.097656 18.992188 77.90625 18.992188 L 76.96875 18.992188 C 76.460938 18.992188 76.058594 19.023438 75.761719 19.082031 C 75.464844 19.15625 75.269531 19.222656 75.179688 19.28125 L 75.316406 18.746094 L 75.316406 18.480469 L 79.265625 18.480469 C 79.207031 18.496094 79.140625 18.5625 79.066406 18.679688 C 79.019531 18.800781 79 19 79 19.28125 L 79 21.640625 C 79 21.921875 79.019531 22.128906 79.066406 22.265625 C 79.140625 22.382812 79.207031 22.441406 79.265625 22.441406 L 78.308594 22.441406 L 78.308594 21.730469 L 78.328125 21.484375 L 78.308594 21.460938 C 78.21875 21.597656 78.039062 21.753906 77.769531 21.929688 C 77.519531 22.109375 77.167969 22.265625 76.722656 22.398438 C 76.273438 22.515625 75.722656 22.574219 75.070312 22.574219 Z M 80.875 22.441406 C 80.949219 22.441406 81.007812 22.382812 81.054688 22.265625 C 81.113281 22.128906 81.140625 21.921875 81.140625 21.640625 L 81.140625 15.230469 C 81.140625 14.949219 81.113281 14.75 81.054688 14.628906 C 80.992188 14.511719 80.933594 14.445312 80.875 14.429688 L 84.984375 14.429688 C 85.816406 14.429688 86.464844 14.527344 86.925781 14.71875 C 87.386719 14.898438 87.714844 15.164062 87.90625 15.519531 C 88.101562 15.863281 88.199219 16.292969 88.199219 16.8125 C 88.199219 17.316406 88.085938 17.730469 87.863281 18.058594 C 87.640625 18.371094 87.347656 18.613281 86.992188 18.792969 C 86.636719 18.957031 86.246094 19.066406 85.832031 19.125 L 85.832031 19.171875 C 86.367188 19.320312 86.875 19.617188 87.347656 20.0625 C 87.8125 20.503906 88.210938 20.988281 88.554688 21.507812 C 88.761719 21.832031 88.949219 22.070312 89.113281 22.21875 C 89.292969 22.367188 89.417969 22.441406 89.492188 22.441406 L 87.886719 22.441406 C 87.960938 22.441406 88.003906 22.390625 88.019531 22.285156 C 88.035156 22.167969 87.96875 21.972656 87.820312 21.707031 C 87.535156 21.203125 87.207031 20.765625 86.835938 20.394531 C 86.480469 20.023438 86.046875 19.734375 85.539062 19.527344 C 85.019531 19.320312 84.378906 19.214844 83.621094 19.214844 L 82.394531 19.214844 C 82.125 19.214844 81.96875 19.238281 81.925781 19.28125 C 81.878906 19.328125 81.855469 19.4375 81.855469 19.617188 L 81.855469 21.640625 C 81.855469 21.921875 81.886719 22.128906 81.945312 22.265625 C 82.003906 22.382812 82.066406 22.441406 82.125 22.441406 Z M 82.394531 18.679688 L 84.828125 18.679688 C 85.703125 18.679688 86.367188 18.523438 86.8125 18.214844 C 87.261719 17.902344 87.484375 17.433594 87.484375 16.8125 C 87.484375 16.441406 87.410156 16.113281 87.261719 15.832031 C 87.125 15.550781 86.859375 15.335938 86.457031 15.1875 C 86.054688 15.039062 85.464844 14.964844 84.691406 14.964844 L 82.394531 14.964844 C 82.109375 14.964844 81.945312 14.980469 81.902344 15.007812 C 81.855469 15.039062 81.835938 15.144531 81.835938 15.320312 L 81.835938 18.324219 C 81.835938 18.503906 81.855469 18.613281 81.902344 18.660156 C 81.945312 18.671875 82.109375 18.679688 82.394531 18.679688 Z M 94.425781 22.574219 L 94.292969 22.574219 C 93.386719 22.574219 92.664062 22.449219 92.128906 22.195312 C 91.59375 21.929688 91.210938 21.535156 90.988281 21.019531 C 90.75 20.484375 90.632812 19.808594 90.632812 18.992188 L 90.632812 15.210938 C 90.632812 14.925781 90.601562 14.726562 90.542969 14.609375 C 90.484375 14.488281 90.421875 14.429688 90.363281 14.429688 L 91.613281 14.429688 C 91.554688 14.445312 91.496094 14.503906 91.4375 14.609375 C 91.375 14.726562 91.347656 14.925781 91.347656 15.210938 L 91.347656 18.949219 C 91.347656 19.808594 91.472656 20.460938 91.726562 20.90625 C 91.964844 21.335938 92.300781 21.632812 92.730469 21.796875 C 93.175781 21.945312 93.699219 22.019531 94.292969 22.019531 L 94.449219 22.019531 C 94.882812 22.019531 95.269531 21.980469 95.609375 21.90625 C 95.96875 21.832031 96.273438 21.683594 96.527344 21.460938 C 96.78125 21.253906 96.980469 20.949219 97.128906 20.550781 C 97.277344 20.136719 97.351562 19.601562 97.351562 18.949219 L 97.351562 15.210938 C 97.351562 14.925781 97.316406 14.726562 97.242188 14.609375 C 97.195312 14.488281 97.144531 14.429688 97.085938 14.429688 L 98.335938 14.429688 C 98.273438 14.445312 98.214844 14.511719 98.15625 14.628906 C 98.097656 14.75 98.066406 14.949219 98.066406 15.230469 L 98.066406 18.992188 C 98.066406 19.808594 97.949219 20.484375 97.710938 21.019531 C 97.472656 21.535156 97.085938 21.929688 96.546875 22.195312 C 96.027344 22.449219 95.320312 22.574219 94.425781 22.574219 Z M 99.964844 22.441406 C 100.023438 22.441406 100.078125 22.382812 100.121094 22.265625 C 100.195312 22.128906 100.234375 21.921875 100.234375 21.640625 L 100.234375 15.230469 C 100.234375 14.949219 100.195312 14.75 100.121094 14.628906 C 100.0625 14.511719 100.003906 14.445312 99.941406 14.429688 L 104.320312 14.429688 C 105.078125 14.429688 105.671875 14.527344 106.105469 14.71875 C 106.535156 14.914062 106.84375 15.203125 107.019531 15.585938 C 107.199219 15.957031 107.289062 16.417969 107.289062 16.96875 C 107.289062 17.515625 107.191406 17.976562 107 18.347656 C 106.804688 18.734375 106.492188 19.015625 106.058594 19.191406 C 105.628906 19.386719 105.046875 19.480469 104.320312 19.480469 L 100.925781 19.480469 L 100.925781 21.640625 C 100.925781 21.921875 100.953125 22.128906 101.015625 22.265625 C 101.074219 22.382812 101.132812 22.441406 101.191406 22.441406 Z M 101.484375 18.925781 L 104.207031 18.925781 C 104.800781 18.925781 105.277344 18.859375 105.636719 18.726562 C 105.976562 18.5625 106.222656 18.339844 106.371094 18.058594 C 106.523438 17.761719 106.597656 17.398438 106.597656 16.96875 C 106.597656 16.507812 106.523438 16.136719 106.371094 15.855469 C 106.210938 15.558594 105.957031 15.335938 105.613281 15.1875 C 105.269531 15.039062 104.800781 14.964844 104.207031 14.964844 L 101.484375 14.964844 C 101.214844 14.964844 101.058594 14.980469 101.015625 15.007812 C 100.96875 15.039062 100.945312 15.144531 100.945312 15.320312 L 100.945312 18.546875 C 100.945312 18.726562 100.96875 18.835938 101.015625 18.882812 C 101.058594 18.910156 101.214844 18.925781 101.484375 18.925781 Z M 113.273438 22.574219 L 112.871094 22.574219 C 111.308594 22.574219 110.191406 22.226562 109.519531 21.53125 C 108.851562 20.832031 108.515625 19.785156 108.515625 18.390625 C 108.515625 17.5 108.65625 16.753906 108.941406 16.144531 C 109.238281 15.535156 109.699219 15.074219 110.324219 14.765625 C 110.964844 14.453125 111.8125 14.296875 112.871094 14.296875 L 113.273438 14.296875 C 114.300781 14.296875 115.125 14.453125 115.75 14.765625 C 116.390625 15.074219 116.851562 15.535156 117.136719 16.144531 C 117.417969 16.753906 117.558594 17.5 117.558594 18.390625 C 117.558594 19.785156 117.230469 20.832031 116.578125 21.53125 C 115.90625 22.226562 114.804688 22.574219 113.273438 22.574219 Z M 113.003906 22.019531 L 113.136719 22.019531 C 113.925781 22.019531 114.597656 21.921875 115.148438 21.730469 C 115.699219 21.523438 116.117188 21.152344 116.398438 20.617188 C 116.695312 20.097656 116.84375 19.355469 116.84375 18.390625 C 116.84375 17.488281 116.695312 16.773438 116.398438 16.253906 C 116.117188 15.734375 115.699219 15.371094 115.148438 15.164062 C 114.582031 14.941406 113.914062 14.832031 113.136719 14.832031 L 113.003906 14.832031 C 112.199219 14.832031 111.515625 14.941406 110.949219 15.164062 C 110.398438 15.386719 109.976562 15.757812 109.675781 16.277344 C 109.378906 16.796875 109.230469 17.5 109.230469 18.390625 C 109.230469 19.339844 109.378906 20.082031 109.675781 20.617188 C 109.976562 21.136719 110.40625 21.507812 110.972656 21.730469 C 111.539062 21.921875 112.214844 22.019531 113.003906 22.019531 Z M 113.003906 22.019531 " fill-opacity="1" fill-rule="evenodd"></path><path fill="#ffffff" d="M 30.566406 3.628906 L 30.066406 3.402344 L 29.566406 3.628906 L 29.542969 3.628906 L 5.476562 15.316406 L 4.839844 15.613281 L 4.839844 61.097656 L 5.476562 61.414062 L 29.542969 73.238281 L 30.042969 73.488281 L 30.566406 73.238281 L 54.632812 61.414062 L 55.269531 61.097656 L 55.269531 44.914062 L 55.109375 44.617188 L 52.207031 40.011719 L 55.109375 35.402344 L 55.269531 35.132812 L 55.269531 15.613281 L 54.632812 15.316406 Z M 30.566406 3.628906 " fill-opacity="1" fill-rule="nonzero"></path><path fill="#004a87" d="M 54.132812 16.339844 L 30.066406 4.648438 L 30.042969 4.648438 L 30.042969 72.21875 L 30.066406 72.21875 L 54.132812 60.394531 L 54.132812 45.230469 L 50.867188 40.011719 L 54.132812 34.789062 Z M 54.132812 16.339844 " fill-opacity="1" fill-rule="nonzero"></path><path fill="#0b3b5c" d="M 30.042969 4.648438 L 5.972656 16.339844 L 5.972656 60.394531 L 30.042969 72.21875 Z M 30.042969 4.648438 " fill-opacity="1" fill-rule="nonzero"></path><g clip-path="url(#4a591c8ce9)"><path fill="#e2271d" d="M 30.042969 73.488281 L 29.542969 73.238281 L 5.476562 61.414062 L 4.839844 61.097656 L 4.839844 15.613281 L 5.476562 15.316406 L 29.542969 3.628906 L 29.566406 3.628906 L 30.042969 3.402344 L 30.042969 0.882812 L 29.089844 1.335938 L 28.589844 1.585938 L 28.570312 1.585938 L 4.476562 13.273438 L 3.84375 13.570312 L 2.570312 14.203125 L 2.570312 62.503906 L 3.820312 63.140625 L 4.453125 63.433594 L 28.546875 75.28125 L 29.042969 75.53125 L 30.042969 76.007812 Z M 30.042969 73.488281 " fill-opacity="1" fill-rule="nonzero"></path></g><g clip-path="url(#4528c55da2)"><path fill="#e9511e" d="M 56.265625 13.570312 L 55.632812 13.273438 L 31.539062 1.585938 L 31.042969 1.359375 L 30.066406 0.882812 L 30.042969 0.882812 L 30.042969 3.402344 L 30.066406 3.402344 L 30.566406 3.628906 L 54.632812 15.316406 L 55.269531 15.613281 L 55.269531 35.132812 L 55.109375 35.402344 L 52.207031 40.011719 L 55.109375 44.617188 L 55.269531 44.914062 L 55.269531 61.097656 L 54.632812 61.414062 L 30.566406 73.238281 L 30.042969 73.488281 L 30.042969 76.007812 L 31.042969 75.53125 L 31.539062 75.28125 L 31.5625 75.28125 L 55.632812 63.433594 L 56.265625 63.140625 L 57.535156 62.503906 L 57.535156 44.253906 L 57.195312 43.710938 L 57.015625 43.414062 L 54.882812 40.011719 L 57.015625 36.605469 L 57.195312 36.335938 L 57.535156 35.765625 L 57.535156 14.203125 Z M 56.265625 13.570312 " fill-opacity="1" fill-rule="nonzero"></path></g><path fill="#c6c3b4" d="M 29.996094 13.886719 L 29.90625 13.933594 L 12.4375 21.605469 L 10.738281 32.566406 L 17.179688 40.964844 L 16.160156 49.5 L 19.992188 57.285156 L 29.996094 54.558594 L 30.042969 54.558594 L 30.042969 13.910156 Z M 29.996094 13.886719 " fill-opacity="1" fill-rule="nonzero"></path><path fill="#ffffff" d="M 49.234375 32.566406 L 47.53125 21.605469 L 30.089844 13.933594 L 30.042969 13.910156 L 30.042969 54.558594 L 39.980469 57.285156 L 43.835938 49.5 L 42.792969 40.964844 Z M 49.234375 32.566406 " fill-opacity="1" fill-rule="nonzero"></path><path fill="#c6c3b4" d="M 29.996094 55.535156 L 20.515625 58.578125 L 22.261719 63.027344 L 30.042969 63.027344 L 30.042969 55.558594 Z M 29.996094 55.535156 " fill-opacity="1" fill-rule="nonzero"></path><path fill="#ffffff" d="M 30.042969 55.558594 L 30.042969 63.027344 L 37.734375 63.027344 L 39.457031 58.578125 Z M 30.042969 55.558594 " fill-opacity="1" fill-rule="nonzero"></path><path fill="#0b3b5c" d="M 15.523438 30.09375 L 17.953125 28.457031 L 21.265625 29.09375 L 21.398438 27.914062 L 23.691406 36.3125 L 21.605469 32.25 Z M 15.523438 30.09375 " fill-opacity="1" fill-rule="nonzero"></path><path fill="#0b3b5c" d="M 38.390625 32.25 L 36.28125 36.3125 L 38.574219 27.914062 L 38.707031 29.09375 L 42.019531 28.457031 L 44.449219 30.09375 Z M 38.390625 32.25 " fill-opacity="1" fill-rule="nonzero"></path><path fill="#0b3b5c" d="M 36.734375 46.660156 L 29.996094 52.175781 L 23.261719 46.660156 L 22.875 45.074219 L 29.90625 46.253906 L 29.996094 46.277344 L 30.089844 46.253906 L 37.121094 45.074219 Z M 36.734375 46.660156 " fill-opacity="1" fill-rule="nonzero"></path></svg>