<svg xmlns="http://www.w3.org/2000/svg" xmlns:xlink="http://www.w3.org/1999/xlink" width="500" zoomAndPan="magnify" viewBox="0 0 375 374.999991" height="500" preserveAspectRatio="xMidYMid meet" version="1.0"><defs><clipPath id="086a0a861e"><path d="M 38 37.5 L 337 37.5 L 337 89 L 38 89 Z M 38 37.5 " clip-rule="nonzero"/></clipPath><clipPath id="234bb4eaad"><path d="M 71.207031 177 L 163 177 L 163 229 L 71.207031 229 Z M 71.207031 177 " clip-rule="nonzero"/></clipPath><clipPath id="a8ceb2b036"><path d="M 212 177 L 303.707031 177 L 303.707031 229 L 212 229 Z M 212 177 " clip-rule="nonzero"/></clipPath><clipPath id="02ee76228a"><path d="M 107 271 L 268 271 L 268 337.417969 L 107 337.417969 Z M 107 271 " clip-rule="nonzero"/></clipPath></defs><rect x="-37.5" width="450" fill="#ffffff" y="-37.499999" height="449.999989" fill-opacity="1"/><rect x="-37.5" width="450" fill="#ffffff" y="-37.499999" height="449.999989" fill-opacity="1"/><g clip-path="url(#086a0a861e)"><path fill="#e2271b" d="M 66.324219 38.867188 L 73.125 52.699219 C 73.359375 53.242188 73.898438 53.628906 74.515625 53.707031 L 89.820312 55.945312 C 91.285156 56.179688 91.90625 58.035156 90.824219 59.039062 L 79.773438 69.78125 C 79.308594 70.167969 79.152344 70.785156 79.230469 71.402344 L 81.859375 86.625 C 82.089844 88.09375 80.542969 89.253906 79.230469 88.558594 L 65.550781 81.371094 C 65.011719 81.0625 64.394531 81.0625 63.851562 81.371094 L 50.175781 88.558594 C 48.859375 89.253906 47.316406 88.09375 47.546875 86.625 L 50.175781 71.402344 C 50.25 70.785156 50.097656 70.242188 49.632812 69.78125 L 38.582031 59.039062 C 37.5 57.957031 38.117188 56.179688 39.585938 55.945312 L 54.886719 53.707031 C 55.507812 53.628906 55.96875 53.242188 56.277344 52.699219 L 63.078125 38.867188 C 63.773438 37.554688 65.707031 37.554688 66.324219 38.867188 Z M 124.441406 38.867188 L 117.640625 52.699219 C 117.40625 53.242188 116.867188 53.628906 116.25 53.707031 L 100.945312 55.945312 C 99.476562 56.179688 98.859375 58.035156 99.941406 59.039062 L 110.992188 69.78125 C 111.457031 70.167969 111.609375 70.785156 111.535156 71.402344 L 108.90625 86.625 C 108.675781 88.09375 110.21875 89.253906 111.535156 88.558594 L 125.210938 81.371094 C 125.753906 81.0625 126.371094 81.0625 126.914062 81.371094 L 140.589844 88.558594 C 141.90625 89.253906 143.527344 88.09375 143.21875 86.625 L 140.589844 71.402344 C 140.515625 70.785156 140.667969 70.242188 141.132812 69.78125 L 152.183594 59.039062 C 153.265625 57.957031 152.648438 56.179688 151.179688 55.945312 L 135.878906 53.707031 C 135.257812 53.628906 134.796875 53.242188 134.484375 52.699219 L 127.683594 38.867188 C 127.066406 37.554688 125.136719 37.554688 124.441406 38.867188 Z M 185.878906 38.867188 L 179.078125 52.699219 C 178.84375 53.242188 178.304688 53.628906 177.683594 53.707031 L 162.382812 55.945312 C 160.914062 56.179688 160.296875 58.035156 161.378906 59.039062 L 172.429688 69.78125 C 172.894531 70.167969 173.046875 70.785156 172.972656 71.402344 L 170.34375 86.625 C 170.113281 88.09375 171.65625 89.253906 172.972656 88.558594 L 186.648438 81.371094 C 187.191406 81.0625 187.808594 81.0625 188.351562 81.371094 L 202.027344 88.558594 C 203.34375 89.253906 204.964844 88.09375 204.65625 86.625 L 202.027344 71.402344 C 201.953125 70.785156 202.105469 70.242188 202.570312 69.78125 L 213.621094 59.039062 C 214.703125 57.957031 214.085938 56.179688 212.617188 55.945312 L 197.316406 53.707031 C 196.695312 53.628906 196.234375 53.242188 195.921875 52.699219 L 189.121094 38.867188 C 188.425781 37.554688 186.496094 37.554688 185.878906 38.867188 Z M 247.238281 38.867188 L 240.4375 52.699219 C 240.203125 53.242188 239.664062 53.628906 239.046875 53.707031 L 223.746094 55.945312 C 222.277344 56.179688 221.65625 58.035156 222.738281 59.039062 L 233.789062 69.78125 C 234.253906 70.167969 234.410156 70.785156 234.332031 71.402344 L 231.703125 86.625 C 231.472656 88.09375 233.019531 89.253906 234.332031 88.558594 L 248.011719 81.371094 C 248.550781 81.0625 249.167969 81.0625 249.710938 81.371094 L 263.390625 88.558594 C 264.703125 89.253906 266.324219 88.09375 266.015625 86.625 L 263.390625 71.402344 C 263.3125 70.785156 263.464844 70.242188 263.929688 69.78125 L 274.980469 59.039062 C 276.0625 57.957031 275.445312 56.179688 273.976562 55.945312 L 258.675781 53.707031 C 258.054688 53.628906 257.59375 53.242188 257.285156 52.699219 L 250.484375 38.867188 C 249.863281 37.554688 247.933594 37.554688 247.238281 38.867188 Z M 308.675781 38.867188 L 301.875 52.699219 C 301.640625 53.242188 301.101562 53.628906 300.484375 53.707031 L 285.183594 55.945312 C 283.714844 56.179688 283.09375 58.035156 284.175781 59.039062 L 295.226562 69.78125 C 295.691406 70.167969 295.847656 70.785156 295.769531 71.402344 L 293.140625 86.625 C 292.910156 88.09375 294.457031 89.253906 295.769531 88.558594 L 309.449219 81.371094 C 309.988281 81.0625 310.605469 81.0625 311.148438 81.371094 L 324.828125 88.558594 C 326.140625 89.253906 327.761719 88.09375 327.453125 86.625 L 324.828125 71.402344 C 324.75 70.785156 324.902344 70.242188 325.367188 69.78125 L 336.417969 59.039062 C 337.5 57.957031 336.882812 56.179688 335.414062 55.945312 L 320.113281 53.707031 C 319.492188 53.628906 319.03125 53.242188 318.722656 52.699219 L 311.921875 38.867188 C 311.226562 37.554688 309.292969 37.554688 308.675781 38.867188 Z M 308.675781 38.867188 " fill-opacity="1" fill-rule="nonzero"/></g><path fill="#0b3b5c" d="M 187.589844 264.714844 C 205.617188 264.714844 220.21875 235.742188 220.21875 215.101562 C 220.21875 194.433594 205.617188 177.699219 187.589844 177.699219 C 169.566406 177.699219 154.960938 194.460938 154.960938 215.101562 C 154.960938 235.742188 169.566406 264.714844 187.589844 264.714844 Z M 187.589844 184.953125 C 201.585938 184.953125 212.96875 198.476562 212.96875 215.101562 C 212.96875 232.816406 200.179688 257.464844 187.589844 257.464844 C 175 257.464844 162.210938 232.816406 162.210938 215.101562 C 162.210938 198.476562 173.597656 184.953125 187.589844 184.953125 Z M 187.589844 184.953125 " fill-opacity="1" fill-rule="nonzero"/><path fill="#0b3b5c" d="M 133.207031 170.449219 C 147.226562 170.449219 158.585938 148.71875 158.585938 133.238281 C 158.585938 117.738281 147.226562 105.1875 133.207031 105.1875 C 119.183594 105.1875 107.828125 117.761719 107.828125 133.238281 C 107.828125 148.71875 119.183594 170.449219 133.207031 170.449219 Z M 133.207031 112.441406 C 143.203125 112.441406 151.335938 121.773438 151.335938 133.238281 C 151.335938 146.679688 141.339844 163.199219 133.207031 163.199219 C 125.074219 163.199219 115.078125 146.679688 115.078125 133.238281 C 115.078125 121.773438 123.210938 112.441406 133.207031 112.441406 Z M 133.207031 112.441406 " fill-opacity="1" fill-rule="nonzero"/><path fill="#0b3b5c" d="M 241.972656 170.449219 C 255.992188 170.449219 267.351562 148.71875 267.351562 133.238281 C 267.351562 117.738281 255.992188 105.1875 241.972656 105.1875 C 227.953125 105.1875 216.59375 117.761719 216.59375 133.238281 C 216.59375 148.71875 227.953125 170.449219 241.972656 170.449219 Z M 241.972656 112.441406 C 251.96875 112.441406 260.101562 121.773438 260.101562 133.238281 C 260.101562 146.679688 250.105469 163.199219 241.972656 163.199219 C 233.839844 163.199219 223.847656 146.679688 223.847656 133.238281 C 223.847656 121.773438 231.980469 112.441406 241.972656 112.441406 Z M 241.972656 112.441406 " fill-opacity="1" fill-rule="nonzero"/><g clip-path="url(#234bb4eaad)"><path fill="#0b3b5c" d="M 148.066406 221.207031 L 78.980469 221.207031 C 78.921875 221.207031 78.878906 221.203125 78.839844 221.195312 C 80.132812 203.613281 83.152344 197.058594 84.269531 195.933594 C 86.878906 193.910156 100.09375 189.234375 112.121094 185.648438 L 128.996094 197.699219 C 130.257812 198.601562 131.734375 199.050781 133.210938 199.050781 C 134.6875 199.050781 136.164062 198.601562 137.421875 197.703125 L 154.304688 185.648438 C 155.203125 185.917969 156.109375 186.191406 157.015625 186.472656 C 158.628906 184.316406 160.414062 182.335938 162.355469 180.554688 C 157.015625 178.863281 152.957031 177.699219 152.957031 177.699219 L 133.210938 191.800781 L 113.46875 177.699219 C 113.46875 177.699219 84.296875 186.046875 79.390625 190.570312 C 74.203125 195.328125 72.285156 211.296875 71.589844 220.917969 C 71.285156 225.078125 74.691406 228.460938 78.980469 228.460938 L 149.273438 228.460938 C 148.730469 225.996094 148.332031 223.566406 148.066406 221.207031 Z M 148.066406 221.207031 " fill-opacity="1" fill-rule="nonzero"/></g><g clip-path="url(#a8ceb2b036)"><path fill="#0b3b5c" d="M 261.722656 177.699219 L 241.980469 191.800781 L 222.238281 177.699219 C 222.238281 177.699219 218.175781 178.863281 212.824219 180.554688 C 214.769531 182.335938 216.554688 184.320312 218.167969 186.476562 C 219.078125 186.195312 219.988281 185.917969 220.890625 185.648438 L 237.765625 197.699219 C 239.027344 198.601562 240.503906 199.050781 241.980469 199.050781 C 243.457031 199.050781 244.933594 198.601562 246.191406 197.699219 L 263.070312 185.648438 C 275.105469 189.238281 288.324219 193.914062 290.929688 195.941406 C 292.027344 197.027344 295.046875 203.570312 296.339844 221.199219 C 296.308594 221.203125 296.261719 221.207031 296.210938 221.207031 L 227.113281 221.207031 C 226.851562 223.566406 226.449219 225.996094 225.90625 228.460938 L 296.210938 228.460938 C 300.5 228.460938 303.894531 225.078125 303.589844 220.921875 C 302.898438 211.296875 300.992188 195.328125 295.800781 190.570312 C 290.886719 186.046875 261.722656 177.699219 261.722656 177.699219 Z M 261.722656 177.699219 " fill-opacity="1" fill-rule="nonzero"/></g><g clip-path="url(#02ee76228a)"><path fill="#0b3b5c" d="M 257.25 288.511719 C 250.894531 282.695312 213.148438 271.964844 213.148438 271.964844 L 187.597656 290.09375 L 162.046875 271.964844 C 162.046875 271.964844 124.296875 282.695312 117.941406 288.511719 C 111.226562 294.628906 108.75 315.164062 107.851562 327.53125 C 107.457031 332.882812 111.863281 337.226562 117.414062 337.226562 L 257.78125 337.226562 C 263.332031 337.226562 267.722656 332.882812 267.328125 327.535156 C 266.433594 315.164062 263.964844 294.632812 257.25 288.511719 Z M 259.679688 329.230469 C 259.242188 329.707031 258.546875 329.976562 257.78125 329.976562 L 117.414062 329.976562 C 116.640625 329.976562 115.945312 329.703125 115.5 329.222656 C 115.035156 328.722656 115.070312 328.226562 115.082031 328.058594 C 116.75 305.121094 120.734375 295.777344 122.828125 293.867188 C 125.910156 291.191406 144.230469 284.738281 160.703125 279.902344 L 183.402344 296.007812 C 184.660156 296.898438 186.128906 297.347656 187.597656 297.347656 C 189.066406 297.347656 190.535156 296.898438 191.792969 296.007812 L 214.496094 279.902344 C 230.964844 284.734375 249.28125 291.191406 252.367188 293.867188 C 254.453125 295.773438 258.4375 305.121094 260.097656 328.066406 C 260.109375 328.230469 260.144531 328.730469 259.679688 329.230469 Z M 259.679688 329.230469 " fill-opacity="1" fill-rule="nonzero"/></g></svg>