<svg xmlns="http://www.w3.org/2000/svg" xmlns:xlink="http://www.w3.org/1999/xlink" width="500" zoomAndPan="magnify" viewBox="0 0 375 374.999991" height="500" preserveAspectRatio="xMidYMid meet" version="1.0"><defs><clipPath id="fed58b06a7"><path d="M 37.5 221.484375 L 336 221.484375 L 336 337.636719 L 37.5 337.636719 Z M 37.5 221.484375 " clip-rule="nonzero"/></clipPath><clipPath id="8153e7056f"><path d="M 147 37.5 L 186 37.5 L 186 87 L 147 87 Z M 147 37.5 " clip-rule="nonzero"/></clipPath><clipPath id="46a6d0b9db"><path d="M 229 37.5 L 268 37.5 L 268 87 L 229 87 Z M 229 37.5 " clip-rule="nonzero"/></clipPath><clipPath id="979d56b5c2"><path d="M 120.082031 92 L 189 92 L 189 131 L 120.082031 131 Z M 120.082031 92 " clip-rule="nonzero"/></clipPath><clipPath id="9ef5360837"><path d="M 226 92 L 294.832031 92 L 294.832031 131 L 226 131 Z M 226 92 " clip-rule="nonzero"/></clipPath></defs><rect x="-37.5" width="450" fill="#ffffff" y="-37.499999" height="449.999989" fill-opacity="1"/><rect x="-37.5" width="450" fill="#ffffff" y="-37.499999" height="449.999989" fill-opacity="1"/><g clip-path="url(#fed58b06a7)"><path fill="#0b3b5c" d="M 84.296875 220.996094 L 42.550781 220.996094 C 39.785156 220.996094 37.523438 223.257812 37.523438 226.027344 L 37.523438 319.074219 C 37.523438 321.839844 39.785156 324.105469 42.550781 324.105469 L 84.296875 324.105469 C 87.0625 324.105469 89.328125 321.839844 89.328125 319.074219 L 89.328125 311.089844 L 109.445312 311.089844 L 169.109375 330.015625 C 182.628906 335.042969 194.007812 337.496094 205.324219 337.496094 C 216.703125 337.496094 228.082031 334.980469 241.664062 329.953125 C 242.167969 329.761719 242.667969 329.511719 243.109375 329.132812 L 330.5 257.839844 C 330.75 257.585938 331.003906 257.335938 331.253906 257.085938 C 337.476562 249.351562 337.164062 237.53125 330.5 230.175781 C 323.898438 222.820312 313.273438 222.066406 305.855469 228.476562 L 262.222656 263.75 C 262.222656 263.308594 262.222656 262.867188 262.222656 262.429688 C 262.03125 251.929688 253.796875 243.316406 243.800781 243.316406 L 195.328125 243.316406 C 192.5625 243.316406 189.921875 241.679688 188.285156 238.976562 C 187.910156 238.410156 187.46875 237.910156 186.902344 237.46875 C 166.34375 222.566406 140.378906 219.738281 117.554688 229.925781 L 109.132812 233.695312 L 89.328125 233.695312 L 89.328125 226.027344 C 89.328125 223.257812 87.125 220.996094 84.296875 220.996094 Z M 62.671875 306.5 C 59.902344 306.5 57.640625 304.238281 57.640625 301.472656 C 57.640625 298.703125 59.902344 296.441406 62.671875 296.441406 C 65.4375 296.441406 67.699219 298.703125 67.699219 301.472656 C 67.699219 304.238281 65.4375 306.5 62.671875 306.5 Z M 79.269531 238.789062 L 79.269531 314.046875 L 71.03125 314.046875 C 75.054688 311.339844 77.757812 306.753906 77.757812 301.472656 C 77.757812 293.171875 70.96875 286.382812 62.671875 286.382812 C 54.371094 286.382812 47.582031 293.171875 47.582031 301.472656 C 47.582031 306.6875 50.285156 311.339844 54.308594 314.046875 L 47.582031 314.046875 L 47.582031 231.054688 L 79.269531 231.054688 Z M 110.261719 243.820312 C 110.953125 243.820312 111.648438 243.691406 112.273438 243.378906 L 121.707031 239.164062 C 140.945312 230.617188 162.761719 232.878906 180.300781 245.140625 C 183.820312 250.355469 189.355469 253.375 195.390625 253.375 L 243.863281 253.375 C 248.390625 253.375 252.164062 257.523438 252.226562 262.554688 C 252.289062 265.382812 251.28125 268.023438 249.460938 269.847656 C 248.578125 270.726562 247.511719 271.417969 246.441406 271.796875 C 244.996094 272.046875 243.550781 272.171875 242.101562 272.171875 L 188.160156 272.171875 C 185.394531 272.171875 183.128906 274.4375 183.128906 277.203125 C 183.128906 279.96875 185.394531 282.230469 188.160156 282.230469 L 244.367188 282.230469 C 245.875 282.230469 247.382812 282.042969 248.832031 281.667969 C 255.117188 280.535156 261.027344 277.769531 266.246094 273.621094 L 312.394531 236.273438 C 312.457031 236.210938 312.457031 236.210938 312.519531 236.148438 C 315.789062 233.320312 320.25 233.695312 323.207031 236.902344 C 326.476562 240.484375 326.726562 246.460938 323.835938 250.417969 L 237.578125 320.835938 C 213.183594 329.761719 197.277344 329.636719 172.695312 320.519531 C 172.632812 320.519531 172.566406 320.457031 172.441406 320.457031 L 111.960938 301.21875 C 111.457031 301.09375 110.953125 300.96875 110.453125 300.96875 L 89.328125 300.96875 L 89.328125 243.753906 L 110.261719 243.753906 Z M 110.261719 243.820312 " fill-opacity="1" fill-rule="nonzero"/></g><path fill="#e2271b" d="M 207.484375 157.507812 C 221.023438 157.507812 231.988281 135.746094 231.988281 120.246094 C 231.988281 104.726562 221.023438 92.160156 207.484375 92.160156 C 193.949219 92.160156 182.980469 104.746094 182.980469 120.246094 C 182.980469 135.746094 193.949219 157.507812 207.484375 157.507812 Z M 207.484375 97.605469 C 217.996094 97.605469 226.542969 107.761719 226.542969 120.246094 C 226.542969 133.550781 216.941406 152.0625 207.484375 152.0625 C 198.03125 152.0625 188.425781 133.550781 188.425781 120.246094 C 188.425781 107.761719 196.976562 97.605469 207.484375 97.605469 Z M 207.484375 97.605469 " fill-opacity="1" fill-rule="nonzero"/><g clip-path="url(#8153e7056f)"><path fill="#e2271b" d="M 166.644531 86.714844 C 177.171875 86.714844 185.703125 70.394531 185.703125 58.769531 C 185.703125 47.128906 177.171875 37.703125 166.644531 37.703125 C 156.113281 37.703125 147.582031 47.144531 147.582031 58.769531 C 147.582031 70.394531 156.113281 86.714844 166.644531 86.714844 Z M 166.644531 43.148438 C 174.148438 43.148438 180.257812 50.15625 180.257812 58.769531 C 180.257812 68.863281 172.75 81.269531 166.644531 81.269531 C 160.535156 81.269531 153.027344 68.863281 153.027344 58.769531 C 153.027344 50.15625 159.136719 43.148438 166.644531 43.148438 Z M 166.644531 43.148438 " fill-opacity="1" fill-rule="nonzero"/></g><g clip-path="url(#46a6d0b9db)"><path fill="#e2271b" d="M 248.328125 86.714844 C 258.855469 86.714844 267.386719 70.394531 267.386719 58.769531 C 267.386719 47.128906 258.855469 37.703125 248.328125 37.703125 C 237.796875 37.703125 229.265625 47.144531 229.265625 58.769531 C 229.265625 70.394531 237.796875 86.714844 248.328125 86.714844 Z M 248.328125 43.148438 C 255.832031 43.148438 261.941406 50.15625 261.941406 58.769531 C 261.941406 68.863281 254.433594 81.269531 248.328125 81.269531 C 242.21875 81.269531 234.710938 68.863281 234.710938 58.769531 C 234.710938 50.15625 240.820312 43.148438 248.328125 43.148438 Z M 248.328125 43.148438 " fill-opacity="1" fill-rule="nonzero"/></g><g clip-path="url(#979d56b5c2)"><path fill="#e2271b" d="M 177.804688 124.832031 L 125.917969 124.832031 C 125.875 124.832031 125.84375 124.828125 125.8125 124.824219 C 126.785156 111.621094 129.050781 106.695312 129.894531 105.855469 C 131.851562 104.332031 141.777344 100.820312 150.808594 98.128906 L 163.480469 107.179688 C 164.425781 107.855469 165.535156 108.195312 166.644531 108.195312 C 167.753906 108.195312 168.863281 107.855469 169.808594 107.179688 L 182.484375 98.128906 C 183.160156 98.332031 183.84375 98.539062 184.523438 98.746094 C 185.734375 97.128906 187.074219 95.640625 188.535156 94.300781 C 184.523438 93.03125 181.472656 92.160156 181.472656 92.160156 L 166.644531 102.75 L 151.820312 92.160156 C 151.820312 92.160156 129.914062 98.425781 126.226562 101.824219 C 122.332031 105.398438 120.890625 117.390625 120.371094 124.617188 C 120.140625 127.742188 122.699219 130.28125 125.917969 130.28125 L 178.710938 130.28125 C 178.300781 128.429688 178 126.605469 177.804688 124.832031 Z M 177.804688 124.832031 " fill-opacity="1" fill-rule="nonzero"/></g><g clip-path="url(#9ef5360837)"><path fill="#e2271b" d="M 263.160156 92.160156 L 248.332031 102.75 L 233.503906 92.160156 C 233.503906 92.160156 230.453125 93.035156 226.4375 94.304688 C 227.894531 95.640625 229.238281 97.132812 230.449219 98.75 C 231.132812 98.539062 231.816406 98.332031 232.492188 98.128906 L 245.167969 107.179688 C 246.113281 107.855469 247.222656 108.195312 248.332031 108.195312 C 249.441406 108.195312 250.546875 107.855469 251.496094 107.179688 L 264.171875 98.128906 C 273.207031 100.824219 283.136719 104.335938 285.089844 105.859375 C 285.914062 106.675781 288.183594 111.589844 289.15625 124.824219 C 289.128906 124.828125 289.097656 124.832031 289.058594 124.832031 L 237.164062 124.832031 C 236.96875 126.605469 236.667969 128.429688 236.261719 130.28125 L 289.058594 130.28125 C 292.28125 130.28125 294.828125 127.742188 294.601562 124.617188 C 294.078125 117.390625 292.648438 105.398438 288.75 101.824219 C 285.0625 98.425781 263.160156 92.160156 263.160156 92.160156 Z M 263.160156 92.160156 " fill-opacity="1" fill-rule="nonzero"/></g><path fill="#e2271b" d="M 259.800781 175.378906 C 255.023438 171.011719 226.679688 162.953125 226.679688 162.953125 L 207.488281 176.566406 L 188.304688 162.953125 C 188.304688 162.953125 159.953125 171.011719 155.179688 175.378906 C 150.136719 179.972656 148.277344 195.394531 147.601562 204.683594 C 147.304688 208.699219 150.613281 211.964844 154.785156 211.964844 L 260.195312 211.964844 C 264.367188 211.964844 267.664062 208.699219 267.367188 204.683594 C 266.695312 195.394531 264.84375 179.976562 259.800781 175.378906 Z M 261.625 205.957031 C 261.292969 206.316406 260.773438 206.519531 260.195312 206.519531 L 154.785156 206.519531 C 154.203125 206.519531 153.679688 206.3125 153.34375 205.953125 C 152.996094 205.578125 153.023438 205.203125 153.03125 205.078125 C 154.285156 187.851562 157.277344 180.832031 158.847656 179.402344 C 161.164062 177.390625 174.921875 172.542969 187.292969 168.914062 L 204.339844 181.007812 C 205.28125 181.679688 206.386719 182.011719 207.488281 182.011719 C 208.59375 182.011719 209.695312 181.679688 210.640625 181.007812 L 227.691406 168.914062 C 240.058594 172.542969 253.816406 177.390625 256.132812 179.402344 C 257.699219 180.832031 260.691406 187.851562 261.9375 205.082031 C 261.945312 205.207031 261.972656 205.582031 261.625 205.957031 Z M 261.625 205.957031 " fill-opacity="1" fill-rule="nonzero"/></svg>