<svg xmlns="http://www.w3.org/2000/svg" xmlns:xlink="http://www.w3.org/1999/xlink" width="500" zoomAndPan="magnify" viewBox="0 0 375 374.999991" height="500" preserveAspectRatio="xMidYMid meet" version="1.0"><defs><clipPath id="f66824b4d3"><path d="M 163.8125 124.320312 L 337.8125 124.320312 L 337.8125 250.320312 L 163.8125 250.320312 Z M 163.8125 124.320312 " clip-rule="nonzero"/></clipPath><clipPath id="ab0dea8b2f"><path d="M 100.65625 179.023438 L 274.65625 179.023438 L 274.65625 305.023438 L 100.65625 305.023438 Z M 100.65625 179.023438 " clip-rule="nonzero"/></clipPath><clipPath id="6689448536"><path d="M 33.226562 211.140625 L 207 211.140625 L 207 337.140625 L 33.226562 337.140625 Z M 33.226562 211.140625 " clip-rule="nonzero"/></clipPath></defs><rect x="-37.5" width="450" fill="#ffffff" y="-37.499999" height="449.999989" fill-opacity="1"/><rect x="-37.5" width="450" fill="#ffffff" y="-37.499999" height="449.999989" fill-opacity="1"/><g clip-path="url(#f66824b4d3)"><path fill="#e2271b" d="M 313.808594 155.917969 L 290.125 155.917969 L 290.125 124.339844 L 179.601562 124.339844 C 170.875 124.339844 163.8125 131.40625 163.8125 140.128906 L 163.8125 226.96875 L 179.601562 226.96875 C 179.601562 240.035156 190.21875 250.652344 203.285156 250.652344 C 216.351562 250.652344 226.96875 240.035156 226.96875 226.96875 L 274.335938 226.96875 C 274.335938 240.035156 284.957031 250.652344 298.019531 250.652344 C 311.085938 250.652344 321.707031 240.035156 321.707031 226.96875 L 337.496094 226.96875 L 337.496094 187.496094 Z M 203.285156 238.8125 C 196.730469 238.8125 191.441406 233.523438 191.441406 226.96875 C 191.441406 220.417969 196.730469 215.128906 203.285156 215.128906 C 209.835938 215.128906 215.125 220.417969 215.125 226.96875 C 215.125 233.523438 209.835938 238.8125 203.285156 238.8125 Z M 309.863281 167.757812 L 325.375 187.496094 L 290.125 187.496094 L 290.125 167.757812 Z M 298.019531 238.8125 C 291.46875 238.8125 286.179688 233.523438 286.179688 226.96875 C 286.179688 220.417969 291.46875 215.128906 298.019531 215.128906 C 304.574219 215.128906 309.863281 220.417969 309.863281 226.96875 C 309.863281 233.523438 304.574219 238.8125 298.019531 238.8125 Z M 298.019531 238.8125 " fill-opacity="1" fill-rule="nonzero"/></g><g clip-path="url(#ab0dea8b2f)"><path fill="#0b3b5c" d="M 250.65625 210.621094 L 226.972656 210.621094 L 226.972656 179.042969 L 116.445312 179.042969 C 107.722656 179.042969 100.65625 186.109375 100.65625 194.832031 L 100.65625 281.671875 L 116.445312 281.671875 C 116.445312 294.738281 127.0625 305.355469 140.128906 305.355469 C 153.195312 305.355469 163.8125 294.738281 163.8125 281.671875 L 211.179688 281.671875 C 211.179688 294.738281 221.800781 305.355469 234.867188 305.355469 C 247.929688 305.355469 258.550781 294.738281 258.550781 281.671875 L 274.339844 281.671875 L 274.339844 242.199219 Z M 140.128906 293.515625 C 133.578125 293.515625 128.285156 288.226562 128.285156 281.671875 C 128.285156 275.121094 133.578125 269.832031 140.128906 269.832031 C 146.683594 269.832031 151.972656 275.121094 151.972656 281.671875 C 151.972656 288.226562 146.683594 293.515625 140.128906 293.515625 Z M 246.707031 222.460938 L 262.222656 242.199219 L 226.972656 242.199219 L 226.972656 222.460938 Z M 234.867188 293.515625 C 228.3125 293.515625 223.023438 288.226562 223.023438 281.671875 C 223.023438 275.121094 228.3125 269.832031 234.867188 269.832031 C 241.417969 269.832031 246.707031 275.121094 246.707031 281.671875 C 246.707031 288.226562 241.417969 293.515625 234.867188 293.515625 Z M 234.867188 293.515625 " fill-opacity="1" fill-rule="nonzero"/></g><g clip-path="url(#6689448536)"><path fill="#e2271b" d="M 183.226562 242.738281 L 159.542969 242.738281 L 159.542969 211.160156 L 49.015625 211.160156 C 40.292969 211.160156 33.226562 218.226562 33.226562 226.949219 L 33.226562 313.789062 L 49.015625 313.789062 C 49.015625 326.855469 59.632812 337.476562 72.699219 337.476562 C 85.765625 337.476562 96.382812 326.855469 96.382812 313.789062 L 143.753906 313.789062 C 143.753906 326.855469 154.371094 337.476562 167.4375 337.476562 C 180.5 337.476562 191.121094 326.855469 191.121094 313.789062 L 206.910156 313.789062 L 206.910156 274.316406 Z M 72.699219 325.632812 C 66.148438 325.632812 60.859375 320.34375 60.859375 313.789062 C 60.859375 307.238281 66.148438 301.949219 72.699219 301.949219 C 79.253906 301.949219 84.542969 307.238281 84.542969 313.789062 C 84.542969 320.34375 79.253906 325.632812 72.699219 325.632812 Z M 179.277344 254.582031 L 194.792969 274.316406 L 159.542969 274.316406 L 159.542969 254.582031 Z M 167.4375 325.632812 C 160.882812 325.632812 155.59375 320.34375 155.59375 313.789062 C 155.59375 307.238281 160.882812 301.949219 167.4375 301.949219 C 173.988281 301.949219 179.277344 307.238281 179.277344 313.789062 C 179.277344 320.34375 173.988281 325.632812 167.4375 325.632812 Z M 167.4375 325.632812 " fill-opacity="1" fill-rule="nonzero"/></g></svg>