<svg xmlns="http://www.w3.org/2000/svg" xmlns:xlink="http://www.w3.org/1999/xlink" width="500" zoomAndPan="magnify" viewBox="0 0 375 374.999991" height="500" preserveAspectRatio="xMidYMid meet" version="1.0"><defs><clipPath id="f387a26ad3"><path d="M 37.5 135.375 L 337.5 135.375 L 337.5 337.875 L 37.5 337.875 Z M 37.5 135.375 " clip-rule="nonzero"/></clipPath><clipPath id="e7fa08f5f1"><path d="M 83.925781 169.578125 L 154 169.578125 L 154 221 L 83.925781 221 Z M 83.925781 169.578125 " clip-rule="nonzero"/></clipPath><clipPath id="62008da916"><path d="M 83.925781 207 L 118 207 L 118 230 L 83.925781 230 Z M 83.925781 207 " clip-rule="nonzero"/></clipPath><clipPath id="bd32259d0a"><path d="M 83.925781 217 L 118 217 L 118 240 L 83.925781 240 Z M 83.925781 217 " clip-rule="nonzero"/></clipPath><clipPath id="0da48d4e52"><path d="M 120 200 L 187.425781 200 L 187.425781 267 L 120 267 Z M 120 200 " clip-rule="nonzero"/></clipPath></defs><rect x="-37.5" width="450" fill="#ffffff" y="-37.499999" height="449.999989" fill-opacity="1"/><rect x="-37.5" width="450" fill="#ffffff" y="-37.499999" height="449.999989" fill-opacity="1"/><g clip-path="url(#f387a26ad3)"><path fill="#0b3b5c" d="M 334.664062 231.195312 L 285.730469 172.707031 C 283.441406 169.96875 280.082031 168.398438 276.515625 168.398438 L 232.480469 168.398438 L 232.480469 147.425781 C 232.480469 140.796875 227.089844 135.40625 220.460938 135.40625 L 49.496094 135.40625 C 42.867188 135.40625 37.476562 140.796875 37.476562 147.425781 L 37.476562 297.402344 C 37.476562 304.027344 42.867188 309.421875 49.496094 309.421875 L 73.671875 309.421875 C 75.429688 325.144531 88.800781 337.410156 104.984375 337.410156 C 121.167969 337.410156 134.535156 325.144531 136.292969 309.421875 L 220.460938 309.421875 C 222.652344 309.421875 224.699219 308.824219 226.46875 307.796875 C 228.234375 308.820312 230.277344 309.414062 232.464844 309.414062 L 247.644531 309.414062 C 249.398438 325.140625 262.769531 337.410156 278.957031 337.410156 C 295.140625 337.410156 308.511719 325.140625 310.269531 309.414062 L 325.449219 309.414062 C 332.074219 309.414062 337.464844 304.023438 337.464844 297.398438 L 337.464844 238.90625 C 337.464844 236.089844 336.46875 233.347656 334.664062 231.195312 Z M 49.496094 147.441406 L 220.445312 147.425781 L 220.449219 180.34375 C 220.449219 180.371094 220.445312 180.390625 220.445312 180.417969 L 220.445312 297.382812 L 135.320312 297.382812 C 131.597656 284.128906 119.410156 274.382812 104.984375 274.382812 C 90.554688 274.382812 78.367188 284.132812 74.644531 297.386719 L 49.511719 297.402344 Z M 104.984375 325.371094 C 94.242188 325.371094 85.503906 316.636719 85.503906 305.894531 C 85.503906 295.15625 94.242188 286.417969 104.984375 286.417969 C 115.722656 286.417969 124.460938 295.15625 124.460938 305.894531 C 124.460938 316.636719 115.722656 325.371094 104.984375 325.371094 Z M 278.957031 325.371094 C 268.214844 325.371094 259.476562 316.636719 259.476562 305.894531 C 259.476562 295.15625 268.214844 286.417969 278.957031 286.417969 C 289.695312 286.417969 298.433594 295.15625 298.433594 305.894531 C 298.433594 316.636719 289.695312 325.371094 278.957031 325.371094 Z M 309.289062 297.378906 C 305.566406 284.128906 293.382812 274.382812 278.957031 274.382812 C 264.527344 274.382812 252.34375 284.128906 248.621094 297.382812 L 232.480469 297.398438 L 232.480469 180.433594 L 276.5 180.429688 L 325.429688 238.90625 L 325.449219 297.378906 Z M 309.289062 297.378906 " fill-opacity="1" fill-rule="nonzero"/></g><path fill="#0b3b5c" d="M 275.492188 193.710938 C 274.355469 192.34375 272.664062 191.554688 270.886719 191.554688 L 244.460938 191.554688 C 241.148438 191.554688 238.460938 194.242188 238.460938 197.550781 L 238.460938 227.546875 C 238.460938 230.863281 241.148438 233.546875 244.460938 233.546875 L 295.878906 233.546875 C 300.964844 233.546875 303.742188 227.617188 300.488281 223.707031 Z M 275.492188 193.710938 " fill-opacity="1" fill-rule="nonzero"/><g clip-path="url(#e7fa08f5f1)"><path fill="#e2271b" d="M 118.699219 217.28125 C 101.207031 217.28125 86.96875 209.25 86.96875 199.367188 C 86.980469 199.265625 86.980469 199.164062 86.96875 199.0625 C 92.371094 206.367188 104.578125 211.550781 118.746094 211.550781 C 120.402344 211.550781 122.070312 211.476562 123.710938 211.332031 C 123.90625 211.308594 124.09375 211.25 124.265625 211.15625 C 124.441406 211.058594 124.589844 210.9375 124.714844 210.785156 C 124.839844 210.628906 124.933594 210.460938 124.992188 210.269531 C 125.050781 210.082031 125.070312 209.890625 125.054688 209.691406 C 125.035156 209.496094 124.984375 209.308594 124.894531 209.132812 C 124.804688 208.957031 124.6875 208.800781 124.535156 208.671875 C 124.386719 208.542969 124.21875 208.445312 124.03125 208.382812 C 123.84375 208.316406 123.652344 208.289062 123.457031 208.300781 C 121.898438 208.433594 120.316406 208.507812 118.746094 208.507812 C 101.207031 208.507812 86.96875 200.460938 86.96875 190.582031 C 86.96875 180.699219 101.207031 172.664062 118.699219 172.664062 C 136.1875 172.664062 150.425781 180.660156 150.425781 190.582031 C 150.414062 192.367188 149.980469 194.046875 149.125 195.617188 C 149.027344 195.796875 148.972656 195.988281 148.953125 196.1875 C 148.933594 196.390625 148.953125 196.585938 149.011719 196.777344 C 149.070312 196.972656 149.167969 197.144531 149.292969 197.300781 C 149.421875 197.457031 149.578125 197.582031 149.753906 197.675781 C 149.933594 197.773438 150.125 197.828125 150.324219 197.847656 C 150.527344 197.867188 150.722656 197.847656 150.914062 197.785156 C 151.109375 197.726562 151.28125 197.632812 151.4375 197.503906 C 151.59375 197.375 151.71875 197.222656 151.8125 197.042969 C 152.902344 195.027344 153.453125 192.871094 153.46875 190.582031 C 153.46875 179.019531 137.867188 169.621094 118.699219 169.621094 C 99.527344 169.621094 83.9375 179.019531 83.9375 190.582031 C 83.96875 193.316406 84.746094 195.824219 86.261719 198.101562 C 86.035156 197.945312 85.785156 197.859375 85.511719 197.84375 C 85.238281 197.828125 84.976562 197.882812 84.734375 198.011719 C 84.492188 198.136719 84.296875 198.320312 84.15625 198.554688 C 84.011719 198.789062 83.941406 199.042969 83.9375 199.320312 C 83.9375 210.878906 99.527344 220.277344 118.699219 220.277344 C 118.898438 220.277344 119.09375 220.238281 119.28125 220.160156 C 119.464844 220.082031 119.628906 219.972656 119.773438 219.832031 C 119.914062 219.6875 120.027344 219.523438 120.101562 219.335938 C 120.179688 219.152344 120.21875 218.957031 120.21875 218.753906 C 120.21875 218.554688 120.179688 218.359375 120.101562 218.171875 C 120.027344 217.984375 119.914062 217.820312 119.773438 217.679688 C 119.628906 217.535156 119.464844 217.425781 119.28125 217.347656 C 119.09375 217.273438 118.898438 217.234375 118.699219 217.234375 Z M 118.699219 217.28125 " fill-opacity="1" fill-rule="nonzero"/></g><g clip-path="url(#62008da916)"><path fill="#e2271b" d="M 116.03125 226.910156 C 99.734375 226.167969 86.96875 218.316406 86.96875 209.078125 C 86.96875 208.878906 86.929688 208.683594 86.851562 208.496094 C 86.777344 208.3125 86.667969 208.144531 86.523438 208.003906 C 86.378906 207.859375 86.214844 207.75 86.03125 207.675781 C 85.84375 207.597656 85.648438 207.558594 85.449219 207.558594 C 85.246094 207.558594 85.050781 207.597656 84.867188 207.675781 C 84.679688 207.75 84.515625 207.859375 84.371094 208.003906 C 84.230469 208.144531 84.121094 208.3125 84.042969 208.496094 C 83.964844 208.683594 83.925781 208.878906 83.925781 209.078125 C 83.925781 220.128906 97.65625 229.113281 115.875 229.988281 L 115.945312 229.988281 C 116.148438 229.992188 116.34375 229.957031 116.53125 229.886719 C 116.71875 229.8125 116.886719 229.707031 117.03125 229.566406 C 117.179688 229.429688 117.292969 229.265625 117.375 229.082031 C 117.457031 228.898438 117.5 228.703125 117.503906 228.503906 C 117.507812 228.300781 117.472656 228.105469 117.402344 227.917969 C 117.328125 227.730469 117.222656 227.5625 117.085938 227.417969 C 116.945312 227.269531 116.785156 227.15625 116.597656 227.074219 C 116.414062 226.992188 116.222656 226.949219 116.019531 226.945312 Z M 116.03125 226.910156 " fill-opacity="1" fill-rule="nonzero"/></g><g clip-path="url(#bd32259d0a)"><path fill="#e2271b" d="M 115.835938 236.644531 C 99.652344 235.828125 86.96875 227.980469 86.96875 218.804688 C 86.96875 218.601562 86.929688 218.40625 86.851562 218.222656 C 86.777344 218.035156 86.667969 217.871094 86.523438 217.726562 C 86.378906 217.585938 86.214844 217.476562 86.03125 217.398438 C 85.84375 217.320312 85.648438 217.28125 85.449219 217.28125 C 85.246094 217.28125 85.050781 217.320312 84.867188 217.398438 C 84.679688 217.476562 84.515625 217.585938 84.371094 217.726562 C 84.230469 217.871094 84.121094 218.035156 84.042969 218.222656 C 83.964844 218.40625 83.925781 218.601562 83.925781 218.804688 C 83.925781 229.757812 97.570312 238.761719 115.667969 239.699219 L 115.738281 239.699219 C 115.941406 239.707031 116.136719 239.671875 116.324219 239.601562 C 116.511719 239.527344 116.679688 239.421875 116.828125 239.285156 C 116.972656 239.144531 117.085938 238.984375 117.167969 238.800781 C 117.25 238.617188 117.296875 238.421875 117.300781 238.222656 C 117.308594 238.019531 117.273438 237.824219 117.203125 237.636719 C 117.128906 237.449219 117.023438 237.28125 116.886719 237.132812 C 116.75 236.988281 116.585938 236.871094 116.402344 236.789062 C 116.21875 236.707031 116.027344 236.664062 115.824219 236.65625 Z M 115.835938 236.644531 " fill-opacity="1" fill-rule="nonzero"/></g><path fill="#e2271b" d="M 156.046875 247.597656 L 156.597656 247.597656 C 156.878906 247.613281 157.15625 247.597656 157.433594 247.554688 C 157.714844 247.515625 157.984375 247.445312 158.25 247.351562 C 158.515625 247.257812 158.765625 247.136719 159.007812 246.992188 C 159.25 246.847656 159.476562 246.683594 159.683594 246.492188 C 159.894531 246.304688 160.082031 246.097656 160.25 245.871094 C 160.417969 245.648438 160.5625 245.40625 160.683594 245.152344 C 160.804688 244.898438 160.902344 244.636719 160.972656 244.363281 C 161.039062 244.089844 161.082031 243.816406 161.097656 243.535156 L 161.097656 239.675781 C 161.097656 238.738281 160.136719 237.617188 158.457031 236.609375 L 156.023438 235.757812 Z M 156.046875 247.597656 " fill-opacity="1" fill-rule="nonzero"/><g clip-path="url(#0da48d4e52)"><path fill="#e2271b" d="M 154.160156 200.328125 C 153.070312 200.328125 151.984375 200.382812 150.898438 200.488281 C 149.8125 200.597656 148.734375 200.757812 147.664062 200.96875 C 146.59375 201.179688 145.539062 201.445312 144.496094 201.761719 C 143.453125 202.078125 142.425781 202.445312 141.417969 202.863281 C 140.410156 203.28125 139.425781 203.746094 138.464844 204.261719 C 137.503906 204.773438 136.566406 205.335938 135.660156 205.941406 C 134.753906 206.546875 133.878906 207.195312 133.035156 207.886719 C 132.191406 208.582031 131.386719 209.3125 130.613281 210.082031 C 129.84375 210.855469 129.113281 211.660156 128.421875 212.503906 C 127.730469 213.347656 127.078125 214.222656 126.472656 215.128906 C 125.867188 216.035156 125.308594 216.972656 124.792969 217.933594 C 124.28125 218.894531 123.8125 219.878906 123.398438 220.886719 C 122.980469 221.894531 122.613281 222.921875 122.296875 223.964844 C 121.980469 225.007812 121.714844 226.066406 121.503906 227.132812 C 121.289062 228.203125 121.128906 229.28125 121.023438 230.367188 C 120.917969 231.453125 120.863281 232.539062 120.863281 233.632812 C 120.863281 234.722656 120.917969 235.808594 121.023438 236.894531 C 121.132812 237.980469 121.292969 239.058594 121.503906 240.128906 C 121.71875 241.199219 121.980469 242.253906 122.300781 243.296875 C 122.617188 244.339844 122.984375 245.367188 123.398438 246.375 C 123.816406 247.382812 124.285156 248.367188 124.796875 249.328125 C 125.3125 250.289062 125.871094 251.222656 126.476562 252.132812 C 127.085938 253.039062 127.734375 253.914062 128.425781 254.753906 C 129.117188 255.597656 129.847656 256.40625 130.621094 257.175781 C 131.390625 257.949219 132.199219 258.679688 133.042969 259.371094 C 133.886719 260.0625 134.761719 260.710938 135.667969 261.316406 C 136.574219 261.921875 137.507812 262.484375 138.472656 262.996094 C 139.433594 263.511719 140.417969 263.976562 141.425781 264.394531 C 142.433594 264.8125 143.460938 265.175781 144.503906 265.492188 C 145.546875 265.808594 146.601562 266.074219 147.671875 266.285156 C 148.742188 266.5 149.820312 266.660156 150.90625 266.765625 C 151.992188 266.871094 153.078125 266.925781 154.171875 266.925781 C 155.261719 266.925781 156.347656 266.871094 157.433594 266.765625 C 158.519531 266.65625 159.597656 266.496094 160.667969 266.285156 C 161.734375 266.070312 162.792969 265.804688 163.835938 265.488281 C 164.878906 265.171875 165.90625 264.804688 166.914062 264.386719 C 167.921875 263.96875 168.90625 263.503906 169.867188 262.988281 C 170.828125 262.476562 171.761719 261.914062 172.667969 261.308594 C 173.574219 260.703125 174.449219 260.054688 175.292969 259.359375 C 176.136719 258.667969 176.945312 257.9375 177.714844 257.164062 C 178.484375 256.394531 179.214844 255.585938 179.910156 254.742188 C 180.601562 253.898438 181.25 253.023438 181.855469 252.117188 C 182.460938 251.210938 183.019531 250.277344 183.535156 249.3125 C 184.046875 248.351562 184.511719 247.367188 184.929688 246.359375 C 185.347656 245.351562 185.714844 244.324219 186.03125 243.28125 C 186.347656 242.238281 186.609375 241.179688 186.824219 240.113281 C 187.035156 239.042969 187.195312 237.964844 187.300781 236.878906 C 187.40625 235.792969 187.460938 234.707031 187.460938 233.613281 C 187.460938 232.523438 187.40625 231.4375 187.296875 230.351562 C 187.1875 229.269531 187.027344 228.191406 186.8125 227.121094 C 186.601562 226.054688 186.335938 224.996094 186.019531 223.953125 C 185.699219 222.910156 185.332031 221.886719 184.914062 220.878906 C 184.496094 219.871094 184.03125 218.890625 183.515625 217.929688 C 183.003906 216.964844 182.441406 216.03125 181.835938 215.128906 C 181.230469 214.222656 180.582031 213.347656 179.890625 212.503906 C 179.199219 211.660156 178.46875 210.855469 177.695312 210.085938 C 176.925781 209.3125 176.117188 208.582031 175.277344 207.890625 C 174.433594 207.199219 173.558594 206.550781 172.652344 205.945312 C 171.746094 205.339844 170.8125 204.78125 169.851562 204.265625 C 168.890625 203.753906 167.90625 203.285156 166.898438 202.867188 C 165.890625 202.453125 164.867188 202.085938 163.824219 201.765625 C 162.78125 201.449219 161.722656 201.1875 160.65625 200.972656 C 159.585938 200.757812 158.507812 200.597656 157.425781 200.492188 C 156.339844 200.382812 155.253906 200.328125 154.160156 200.328125 Z M 154.160156 260.390625 C 153.285156 260.390625 152.410156 260.347656 151.539062 260.261719 C 150.664062 260.175781 149.796875 260.046875 148.9375 259.875 C 148.078125 259.703125 147.230469 259.492188 146.390625 259.238281 C 145.550781 258.980469 144.726562 258.6875 143.914062 258.351562 C 143.105469 258.015625 142.3125 257.640625 141.539062 257.226562 C 140.765625 256.816406 140.015625 256.363281 139.285156 255.878906 C 138.558594 255.390625 137.855469 254.867188 137.175781 254.3125 C 136.5 253.757812 135.847656 253.167969 135.230469 252.546875 C 134.609375 251.925781 134.019531 251.277344 133.464844 250.601562 C 132.910156 249.921875 132.386719 249.21875 131.898438 248.492188 C 131.414062 247.761719 130.960938 247.011719 130.546875 246.238281 C 130.136719 245.464844 129.761719 244.671875 129.425781 243.859375 C 129.089844 243.050781 128.792969 242.226562 128.539062 241.386719 C 128.285156 240.546875 128.074219 239.699219 127.902344 238.839844 C 127.730469 237.976562 127.601562 237.113281 127.515625 236.238281 C 127.429688 235.367188 127.386719 234.492188 127.386719 233.613281 C 127.386719 232.738281 127.429688 231.863281 127.515625 230.992188 C 127.601562 230.117188 127.730469 229.25 127.902344 228.390625 C 128.074219 227.53125 128.285156 226.683594 128.539062 225.84375 C 128.792969 225.003906 129.089844 224.179688 129.425781 223.367188 C 129.761719 222.558594 130.136719 221.765625 130.546875 220.992188 C 130.960938 220.21875 131.414062 219.46875 131.898438 218.738281 C 132.386719 218.011719 132.910156 217.308594 133.464844 216.628906 C 134.019531 215.953125 134.609375 215.300781 135.230469 214.683594 C 135.847656 214.0625 136.5 213.472656 137.175781 212.917969 C 137.855469 212.359375 138.558594 211.839844 139.285156 211.351562 C 140.015625 210.863281 140.765625 210.414062 141.539062 210 C 142.3125 209.589844 143.105469 209.214844 143.914062 208.878906 C 144.726562 208.542969 145.550781 208.246094 146.390625 207.992188 C 147.230469 207.738281 148.078125 207.527344 148.9375 207.355469 C 149.796875 207.183594 150.664062 207.054688 151.539062 206.96875 C 152.410156 206.882812 153.285156 206.839844 154.160156 206.839844 C 155.039062 206.839844 155.914062 206.882812 156.785156 206.96875 C 157.660156 207.054688 158.523438 207.183594 159.386719 207.355469 C 160.246094 207.527344 161.09375 207.738281 161.933594 207.992188 C 162.773438 208.246094 163.597656 208.542969 164.410156 208.878906 C 165.21875 209.214844 166.011719 209.589844 166.785156 210 C 167.558594 210.414062 168.308594 210.863281 169.039062 211.351562 C 169.765625 211.839844 170.46875 212.359375 171.148438 212.917969 C 171.824219 213.472656 172.472656 214.0625 173.09375 214.683594 C 173.714844 215.300781 174.304688 215.953125 174.859375 216.628906 C 175.414062 217.308594 175.9375 218.011719 176.425781 218.738281 C 176.910156 219.46875 177.363281 220.21875 177.773438 220.992188 C 178.1875 221.765625 178.5625 222.558594 178.898438 223.367188 C 179.234375 224.179688 179.53125 225.003906 179.785156 225.84375 C 180.039062 226.683594 180.25 227.53125 180.421875 228.390625 C 180.59375 229.25 180.722656 230.117188 180.808594 230.992188 C 180.894531 231.863281 180.9375 232.738281 180.9375 233.613281 C 180.9375 234.492188 180.894531 235.367188 180.808594 236.238281 C 180.722656 237.113281 180.59375 237.976562 180.421875 238.839844 C 180.25 239.699219 180.039062 240.546875 179.785156 241.386719 C 179.53125 242.226562 179.234375 243.050781 178.898438 243.859375 C 178.5625 244.671875 178.1875 245.464844 177.773438 246.238281 C 177.363281 247.011719 176.910156 247.761719 176.425781 248.492188 C 175.9375 249.21875 175.414062 249.921875 174.859375 250.601562 C 174.304688 251.277344 173.714844 251.925781 173.09375 252.546875 C 172.472656 253.167969 171.824219 253.757812 171.148438 254.3125 C 170.46875 254.867188 169.765625 255.390625 169.039062 255.878906 C 168.308594 256.363281 167.558594 256.816406 166.785156 257.226562 C 166.011719 257.640625 165.21875 258.015625 164.410156 258.351562 C 163.597656 258.6875 162.773438 258.980469 161.933594 259.238281 C 161.09375 259.492188 160.246094 259.703125 159.386719 259.875 C 158.523438 260.046875 157.660156 260.175781 156.785156 260.261719 C 155.914062 260.347656 155.039062 260.390625 154.160156 260.390625 Z M 154.160156 260.390625 " fill-opacity="1" fill-rule="nonzero"/></g><path fill="#e2271b" d="M 147.226562 223.511719 L 147.226562 227.3125 C 147.226562 228.527344 148.585938 229.574219 149.769531 230.28125 L 153.003906 231.4375 L 153.003906 219.449219 L 151.789062 219.449219 C 151.503906 219.433594 151.222656 219.445312 150.941406 219.484375 C 150.660156 219.523438 150.386719 219.589844 150.117188 219.679688 C 149.851562 219.773438 149.59375 219.894531 149.347656 220.035156 C 149.105469 220.179688 148.875 220.347656 148.664062 220.535156 C 148.453125 220.722656 148.261719 220.933594 148.089844 221.160156 C 147.917969 221.382812 147.773438 221.625 147.648438 221.882812 C 147.523438 222.136719 147.425781 222.402344 147.355469 222.675781 C 147.285156 222.949219 147.242188 223.230469 147.226562 223.511719 Z M 147.226562 223.511719 " fill-opacity="1" fill-rule="nonzero"/><path fill="#e2271b" d="M 154.160156 209.871094 C 153.382812 209.871094 152.609375 209.910156 151.835938 209.984375 C 151.0625 210.0625 150.292969 210.175781 149.53125 210.328125 C 148.769531 210.476562 148.015625 210.667969 147.273438 210.890625 C 146.527344 211.117188 145.796875 211.378906 145.078125 211.675781 C 144.363281 211.972656 143.660156 212.304688 142.972656 212.671875 C 142.289062 213.039062 141.625 213.4375 140.976562 213.871094 C 140.332031 214.300781 139.707031 214.765625 139.105469 215.257812 C 138.503906 215.75 137.929688 216.273438 137.378906 216.820312 C 136.832031 217.371094 136.308594 217.945312 135.816406 218.546875 C 135.324219 219.148438 134.859375 219.773438 134.429688 220.417969 C 133.996094 221.0625 133.597656 221.730469 133.230469 222.414062 C 132.867188 223.101562 132.535156 223.800781 132.234375 224.519531 C 131.9375 225.238281 131.675781 225.96875 131.453125 226.714844 C 131.226562 227.457031 131.039062 228.210938 130.886719 228.972656 C 130.734375 229.734375 130.621094 230.503906 130.542969 231.277344 C 130.46875 232.050781 130.429688 232.824219 130.429688 233.601562 C 130.429688 234.378906 130.46875 235.15625 130.542969 235.929688 C 130.621094 236.703125 130.734375 237.46875 130.886719 238.234375 C 131.039062 238.996094 131.226562 239.75 131.453125 240.492188 C 131.675781 241.234375 131.9375 241.964844 132.234375 242.683594 C 132.535156 243.402344 132.867188 244.105469 133.230469 244.789062 C 133.597656 245.476562 133.996094 246.140625 134.429688 246.789062 C 134.859375 247.433594 135.324219 248.058594 135.816406 248.660156 C 136.308594 249.257812 136.832031 249.835938 137.378906 250.382812 C 137.929688 250.933594 138.503906 251.453125 139.105469 251.949219 C 139.707031 252.441406 140.332031 252.902344 140.976562 253.335938 C 141.625 253.765625 142.289062 254.167969 142.972656 254.53125 C 143.660156 254.898438 144.363281 255.230469 145.078125 255.527344 C 145.796875 255.824219 146.527344 256.085938 147.273438 256.3125 C 148.015625 256.539062 148.769531 256.726562 149.53125 256.878906 C 150.292969 257.03125 151.0625 257.144531 151.835938 257.222656 C 152.609375 257.296875 153.382812 257.335938 154.160156 257.335938 C 154.9375 257.335938 155.714844 257.296875 156.488281 257.222656 C 157.261719 257.144531 158.03125 257.03125 158.792969 256.878906 C 159.554688 256.726562 160.308594 256.539062 161.050781 256.3125 C 161.792969 256.085938 162.527344 255.824219 163.242188 255.527344 C 163.960938 255.230469 164.664062 254.898438 165.347656 254.53125 C 166.035156 254.167969 166.699219 253.765625 167.347656 253.335938 C 167.992188 252.902344 168.617188 252.441406 169.21875 251.949219 C 169.820312 251.453125 170.394531 250.933594 170.941406 250.382812 C 171.492188 249.835938 172.015625 249.257812 172.507812 248.660156 C 173 248.058594 173.460938 247.433594 173.894531 246.789062 C 174.328125 246.140625 174.726562 245.476562 175.09375 244.789062 C 175.457031 244.105469 175.789062 243.402344 176.085938 242.683594 C 176.386719 241.964844 176.648438 241.234375 176.871094 240.492188 C 177.097656 239.75 177.285156 238.996094 177.4375 238.234375 C 177.589844 237.46875 177.703125 236.703125 177.78125 235.929688 C 177.855469 235.15625 177.894531 234.378906 177.894531 233.601562 C 177.894531 232.824219 177.855469 232.050781 177.777344 231.277344 C 177.699219 230.503906 177.585938 229.738281 177.433594 228.976562 C 177.28125 228.214844 177.089844 227.460938 176.863281 226.71875 C 176.636719 225.972656 176.375 225.242188 176.078125 224.527344 C 175.78125 223.808594 175.449219 223.109375 175.082031 222.421875 C 174.714844 221.738281 174.316406 221.070312 173.882812 220.425781 C 173.453125 219.78125 172.988281 219.15625 172.496094 218.558594 C 172.003906 217.957031 171.480469 217.382812 170.933594 216.832031 C 170.382812 216.28125 169.808594 215.761719 169.207031 215.269531 C 168.605469 214.777344 167.984375 214.3125 167.339844 213.882812 C 166.691406 213.449219 166.027344 213.050781 165.34375 212.683594 C 164.65625 212.316406 163.957031 211.984375 163.238281 211.6875 C 162.519531 211.390625 161.789062 211.125 161.046875 210.902344 C 160.304688 210.675781 159.550781 210.484375 158.789062 210.332031 C 158.027344 210.179688 157.261719 210.066406 156.488281 209.988281 C 155.714844 209.910156 154.9375 209.871094 154.160156 209.871094 Z M 164.140625 225.277344 C 164.140625 225.480469 164.101562 225.675781 164.027344 225.859375 C 163.949219 226.046875 163.839844 226.210938 163.695312 226.355469 C 163.554688 226.496094 163.390625 226.605469 163.203125 226.683594 C 163.015625 226.761719 162.820312 226.800781 162.621094 226.800781 C 162.417969 226.800781 162.222656 226.761719 162.039062 226.683594 C 161.851562 226.605469 161.6875 226.496094 161.542969 226.355469 C 161.402344 226.210938 161.292969 226.046875 161.214844 225.859375 C 161.136719 225.675781 161.097656 225.480469 161.097656 225.277344 L 161.097656 223.511719 C 161.082031 223.234375 161.039062 222.957031 160.972656 222.683594 C 160.902344 222.410156 160.804688 222.148438 160.683594 221.894531 C 160.5625 221.640625 160.417969 221.402344 160.25 221.175781 C 160.082031 220.949219 159.894531 220.742188 159.683594 220.554688 C 159.476562 220.367188 159.25 220.199219 159.007812 220.054688 C 158.765625 219.910156 158.515625 219.789062 158.25 219.695312 C 157.984375 219.601562 157.714844 219.53125 157.433594 219.492188 C 157.15625 219.449219 156.878906 219.433594 156.597656 219.449219 L 156.046875 219.449219 L 156.046875 232.53125 L 159.613281 233.75 C 159.703125 233.78125 159.789062 233.824219 159.871094 233.871094 C 162.667969 235.5 164.140625 237.523438 164.140625 239.628906 L 164.140625 243.4375 C 164.128906 243.917969 164.070312 244.394531 163.960938 244.863281 C 163.855469 245.332031 163.703125 245.789062 163.507812 246.226562 C 163.3125 246.667969 163.074219 247.085938 162.792969 247.476562 C 162.515625 247.871094 162.199219 248.230469 161.847656 248.5625 C 161.496094 248.890625 161.117188 249.183594 160.710938 249.441406 C 160.300781 249.695312 159.871094 249.90625 159.421875 250.078125 C 158.96875 250.246094 158.507812 250.371094 158.03125 250.449219 C 157.554688 250.527344 157.078125 250.558594 156.597656 250.542969 L 156.046875 250.542969 L 156.046875 251.761719 C 156.046875 251.960938 156.007812 252.15625 155.933594 252.34375 C 155.855469 252.53125 155.746094 252.695312 155.601562 252.835938 C 155.460938 252.980469 155.296875 253.089844 155.109375 253.167969 C 154.921875 253.242188 154.730469 253.28125 154.527344 253.28125 C 154.324219 253.28125 154.132812 253.242188 153.945312 253.167969 C 153.757812 253.089844 153.59375 252.980469 153.453125 252.835938 C 153.308594 252.695312 153.199219 252.53125 153.121094 252.34375 C 153.042969 252.15625 153.003906 251.960938 153.003906 251.761719 L 153.003906 250.542969 L 151.789062 250.542969 C 151.304688 250.566406 150.828125 250.539062 150.347656 250.464844 C 149.871094 250.390625 149.40625 250.269531 148.953125 250.105469 C 148.5 249.9375 148.066406 249.726562 147.65625 249.476562 C 147.242188 249.222656 146.859375 248.933594 146.503906 248.605469 C 146.152344 248.277344 145.832031 247.917969 145.550781 247.527344 C 145.265625 247.132812 145.023438 246.71875 144.824219 246.277344 C 144.625 245.839844 144.46875 245.386719 144.359375 244.914062 C 144.25 244.445312 144.1875 243.96875 144.171875 243.484375 L 144.171875 241.707031 C 144.171875 241.507812 144.207031 241.3125 144.285156 241.125 C 144.363281 240.941406 144.472656 240.773438 144.617188 240.632812 C 144.757812 240.488281 144.921875 240.378906 145.109375 240.304688 C 145.296875 240.226562 145.488281 240.1875 145.691406 240.1875 C 145.894531 240.1875 146.085938 240.226562 146.273438 240.304688 C 146.460938 240.378906 146.625 240.488281 146.765625 240.632812 C 146.910156 240.773438 147.019531 240.941406 147.097656 241.125 C 147.175781 241.3125 147.210938 241.507812 147.210938 241.707031 L 147.210938 243.484375 C 147.226562 243.769531 147.265625 244.046875 147.335938 244.324219 C 147.402344 244.601562 147.5 244.867188 147.621094 245.125 C 147.742188 245.378906 147.886719 245.625 148.054688 245.851562 C 148.222656 246.082031 148.414062 246.289062 148.621094 246.480469 C 148.832031 246.671875 149.058594 246.839844 149.304688 246.988281 C 149.546875 247.132812 149.800781 247.253906 150.070312 247.351562 C 150.335938 247.445312 150.613281 247.515625 150.894531 247.558594 C 151.175781 247.597656 151.457031 247.613281 151.738281 247.597656 L 152.957031 247.597656 L 152.957031 234.671875 L 148.5625 233.105469 L 148.296875 232.980469 C 145.582031 231.363281 144.171875 229.453125 144.171875 227.3125 L 144.171875 223.511719 C 144.183594 223.03125 144.242188 222.554688 144.347656 222.085938 C 144.457031 221.613281 144.609375 221.160156 144.804688 220.71875 C 145.003906 220.277344 145.242188 219.863281 145.519531 219.46875 C 145.800781 219.078125 146.117188 218.714844 146.46875 218.382812 C 146.820312 218.054688 147.199219 217.761719 147.609375 217.507812 C 148.019531 217.25 148.449219 217.039062 148.898438 216.867188 C 149.351562 216.699219 149.816406 216.574219 150.289062 216.496094 C 150.765625 216.417969 151.246094 216.390625 151.726562 216.40625 L 152.945312 216.40625 L 152.945312 215.480469 C 152.945312 215.277344 152.984375 215.085938 153.0625 214.898438 C 153.136719 214.710938 153.246094 214.546875 153.390625 214.40625 C 153.53125 214.261719 153.699219 214.152344 153.882812 214.074219 C 154.070312 214 154.265625 213.960938 154.464844 213.960938 C 154.667969 213.960938 154.863281 214 155.046875 214.074219 C 155.234375 214.152344 155.398438 214.261719 155.542969 214.40625 C 155.683594 214.546875 155.792969 214.710938 155.871094 214.898438 C 155.949219 215.085938 155.988281 215.277344 155.988281 215.480469 L 155.988281 216.40625 L 156.535156 216.40625 C 157.015625 216.390625 157.496094 216.421875 157.96875 216.5 C 158.445312 216.578125 158.910156 216.703125 159.359375 216.871094 C 159.808594 217.042969 160.238281 217.253906 160.648438 217.511719 C 161.058594 217.765625 161.4375 218.058594 161.789062 218.386719 C 162.136719 218.71875 162.453125 219.082031 162.734375 219.472656 C 163.011719 219.867188 163.25 220.28125 163.445312 220.722656 C 163.644531 221.160156 163.796875 221.617188 163.902344 222.085938 C 164.007812 222.554688 164.066406 223.03125 164.082031 223.511719 Z M 164.140625 225.277344 " fill-opacity="1" fill-rule="nonzero"/><path fill="#e2271b" d="M 127.132812 184.652344 C 127.339844 184.65625 127.539062 184.621094 127.730469 184.542969 C 127.921875 184.464844 128.089844 184.351562 128.234375 184.203125 C 128.382812 184.058594 128.492188 183.886719 128.570312 183.695312 C 128.644531 183.503906 128.683594 183.300781 128.675781 183.09375 L 128.675781 181.878906 C 128.675781 178.738281 125.367188 176.269531 121.132812 176.269531 L 120.597656 176.269531 L 120.597656 176.011719 C 120.597656 175.8125 120.558594 175.617188 120.480469 175.429688 C 120.402344 175.242188 120.292969 175.078125 120.148438 174.9375 C 120.007812 174.792969 119.84375 174.683594 119.65625 174.605469 C 119.46875 174.53125 119.277344 174.492188 119.074219 174.492188 C 118.871094 174.492188 118.679688 174.53125 118.492188 174.605469 C 118.304688 174.683594 118.140625 174.792969 118 174.9375 C 117.855469 175.078125 117.746094 175.242188 117.667969 175.429688 C 117.59375 175.617188 117.554688 175.8125 117.554688 176.011719 L 117.554688 176.269531 L 116.273438 176.269531 C 112.039062 176.269531 108.730469 178.703125 108.730469 181.878906 L 108.730469 184.652344 C 108.730469 187.367188 111.980469 188.765625 113.0625 189.230469 C 113.125 189.265625 113.195312 189.289062 113.269531 189.300781 L 117.554688 190.421875 L 117.554688 199.015625 L 116.273438 199.015625 C 113.621094 199.015625 111.773438 197.664062 111.773438 196.457031 L 111.773438 195.121094 C 111.773438 194.917969 111.734375 194.722656 111.65625 194.539062 C 111.578125 194.351562 111.46875 194.1875 111.328125 194.042969 C 111.183594 193.902344 111.019531 193.792969 110.832031 193.714844 C 110.648438 193.636719 110.453125 193.597656 110.25 193.597656 C 110.050781 193.597656 109.855469 193.636719 109.667969 193.714844 C 109.484375 193.792969 109.316406 193.902344 109.175781 194.042969 C 109.03125 194.1875 108.921875 194.351562 108.84375 194.539062 C 108.769531 194.722656 108.730469 194.917969 108.730469 195.121094 L 108.730469 196.484375 C 108.730469 199.621094 112.039062 202.082031 116.273438 202.082031 L 117.554688 202.082031 L 117.554688 202.519531 C 117.554688 202.722656 117.59375 202.914062 117.667969 203.101562 C 117.746094 203.289062 117.855469 203.453125 118 203.59375 C 118.140625 203.738281 118.304688 203.847656 118.492188 203.925781 C 118.679688 204.003906 118.871094 204.039062 119.074219 204.039062 C 119.277344 204.039062 119.46875 204.003906 119.65625 203.925781 C 119.84375 203.847656 120.007812 203.738281 120.148438 203.59375 C 120.292969 203.453125 120.402344 203.289062 120.480469 203.101562 C 120.558594 202.914062 120.597656 202.722656 120.597656 202.519531 L 120.597656 202.082031 L 121.132812 202.082031 C 125.367188 202.082031 128.675781 199.648438 128.675781 196.484375 L 128.675781 193.636719 C 128.675781 191.820312 127.179688 190.25 124.234375 189 C 124.171875 188.960938 124.101562 188.9375 124.027344 188.925781 L 120.597656 188.023438 L 120.597656 179.273438 L 121.132812 179.273438 C 123.785156 179.273438 125.632812 180.625 125.632812 181.84375 L 125.632812 183.09375 C 125.628906 183.296875 125.664062 183.496094 125.738281 183.683594 C 125.8125 183.871094 125.917969 184.039062 126.058594 184.1875 C 126.199219 184.332031 126.363281 184.445312 126.546875 184.527344 C 126.734375 184.609375 126.929688 184.648438 127.132812 184.652344 Z M 123.113281 191.832031 C 125.160156 192.734375 125.609375 193.5 125.609375 193.636719 L 125.609375 196.484375 C 125.609375 197.699219 123.761719 199.039062 121.105469 199.039062 L 120.570312 199.039062 L 120.570312 191.175781 Z M 117.554688 187.234375 L 114.15625 186.355469 C 112.199219 185.492188 111.722656 184.8125 111.722656 184.617188 L 111.722656 181.878906 C 111.722656 180.660156 113.574219 179.308594 116.226562 179.308594 L 117.503906 179.308594 Z M 117.554688 187.234375 " fill-opacity="1" fill-rule="nonzero"/></svg>