<svg xmlns="http://www.w3.org/2000/svg" xmlns:xlink="http://www.w3.org/1999/xlink" width="500" zoomAndPan="magnify" viewBox="0 0 375 374.999991" height="500" preserveAspectRatio="xMidYMid meet" version="1.0"><defs><clipPath id="428c585302"><path d="M 39 234.851562 L 63 234.851562 L 63 257 L 39 257 Z M 39 234.851562 " clip-rule="nonzero"/></clipPath><clipPath id="a16d70209e"><path d="M 39 252 L 104.25 252 L 104.25 291 L 39 291 Z M 39 252 " clip-rule="nonzero"/></clipPath><clipPath id="34035d1afa"><path d="M 114.867188 187.5 L 337.617188 187.5 L 337.617188 337.5 L 114.867188 337.5 Z M 114.867188 187.5 " clip-rule="nonzero"/></clipPath></defs><rect x="-37.5" width="450" fill="#ffffff" y="-37.499999" height="449.999989" fill-opacity="1"/><rect x="-37.5" width="450" fill="#ffffff" y="-37.499999" height="449.999989" fill-opacity="1"/><g clip-path="url(#428c585302)"><path fill="#e2271b" d="M 51.117188 234.90625 C 55.515625 234.875 59.707031 237.421875 61.5625 241.71875 C 63.007812 245.070312 62.667969 248.730469 61.007812 251.691406 C 56.886719 252.789062 52.351562 254.445312 47.382812 256.761719 C 44.554688 255.742188 42.125 253.628906 40.839844 250.65625 C 38.375 244.9375 41 238.296875 46.738281 235.820312 C 48.167969 235.207031 49.65625 234.914062 51.117188 234.90625 Z M 51.117188 234.90625 " fill-opacity="1" fill-rule="evenodd"/></g><path fill="#e2271b" d="M 57.75 267.480469 C 60.097656 267.5 62.097656 267.789062 63.75 268.308594 C 68.117188 269.6875 70.398438 272.34375 71.597656 277.171875 C 72.113281 281.925781 74.589844 286.046875 78.179688 288.832031 L 78.824219 291.195312 C 79.808594 294.816406 76.953125 298.453125 74.054688 298.453125 L 53.050781 298.453125 L 53.050781 314.1875 C 53.050781 321.84375 41.574219 321.84375 41.574219 314.1875 L 41.574219 292.707031 C 41.574219 289.535156 44.144531 286.972656 47.304688 286.972656 L 62.511719 286.972656 L 60.585938 280.03125 L 59.636719 282.257812 C 58.273438 285.480469 54.070312 286.269531 51.617188 283.765625 L 41.058594 272.957031 C 39.957031 271.824219 39.535156 270.5625 39.59375 269.367188 C 40.597656 269.828125 41.777344 269.964844 42.984375 269.652344 C 45.53125 268.988281 47.886719 268.492188 50.054688 268.136719 L 53.492188 271.660156 L 55.238281 267.539062 C 56.121094 267.484375 56.957031 267.464844 57.75 267.480469 Z M 57.75 267.480469 " fill-opacity="1" fill-rule="nonzero"/><path fill="#e2271b" d="M 72.804688 300.644531 L 69.0625 310.726562 L 78.066406 324.277344 C 82.792969 330.742188 72.632812 337.480469 68.507812 330.617188 L 57.898438 314.632812 C 56.882812 313.113281 56.652344 311.191406 57.289062 309.476562 L 60.570312 300.640625 L 72.804688 300.640625 Z M 72.804688 300.644531 " fill-opacity="1" fill-rule="nonzero"/><g clip-path="url(#a16d70209e)"><path fill="#e2271b" d="M 75.527344 252.1875 C 82.101562 252.351562 87.003906 254.089844 90.902344 255.675781 C 100.164062 259.433594 104.523438 267.300781 104.414062 275.421875 C 104.308594 283.539062 97.503906 290.167969 89.101562 290.167969 C 81.261719 290.167969 74.699219 284.347656 73.96875 276.734375 C 71.304688 265.761719 61.847656 262.265625 42.378906 267.34375 C 39.722656 268.039062 37.589844 264.613281 40.492188 262.984375 C 55.855469 254.34375 67.070312 251.964844 75.527344 252.1875 Z M 75.527344 252.1875 " fill-opacity="1" fill-rule="nonzero"/></g><g clip-path="url(#34035d1afa)"><path fill="#0b3b5c" d="M 335.394531 258.609375 L 299.078125 215.207031 C 297.378906 213.171875 294.886719 212.007812 292.238281 212.007812 L 259.5625 212.007812 L 259.5625 196.445312 C 259.5625 191.527344 255.5625 187.523438 250.644531 187.523438 L 123.765625 187.523438 C 118.847656 187.523438 114.847656 191.527344 114.847656 196.445312 L 114.847656 307.742188 C 114.847656 312.660156 118.847656 316.660156 123.765625 316.660156 L 141.707031 316.660156 C 143.015625 328.328125 152.933594 337.429688 164.945312 337.429688 C 176.957031 337.429688 186.875 328.328125 188.183594 316.660156 L 250.644531 316.660156 C 252.269531 316.660156 253.789062 316.21875 255.101562 315.457031 C 256.410156 316.214844 257.929688 316.65625 259.550781 316.65625 L 270.816406 316.65625 C 272.117188 328.328125 282.039062 337.429688 294.050781 337.429688 C 306.0625 337.429688 315.984375 328.328125 317.289062 316.65625 L 328.554688 316.65625 C 333.472656 316.65625 337.472656 312.65625 337.472656 307.738281 L 337.472656 264.332031 C 337.472656 262.242188 336.734375 260.207031 335.394531 258.609375 Z M 123.765625 196.457031 L 250.632812 196.445312 L 250.632812 220.875 C 250.632812 220.890625 250.632812 220.910156 250.632812 220.925781 L 250.632812 307.730469 L 187.457031 307.730469 C 184.695312 297.894531 175.652344 290.660156 164.945312 290.660156 C 154.238281 290.660156 145.195312 297.894531 142.433594 307.730469 L 123.78125 307.742188 Z M 164.945312 328.5 C 156.976562 328.5 150.492188 322.015625 150.492188 314.042969 C 150.492188 306.074219 156.976562 299.589844 164.945312 299.589844 C 172.914062 299.589844 179.398438 306.074219 179.398438 314.042969 C 179.398438 322.015625 172.914062 328.5 164.945312 328.5 Z M 294.050781 328.5 C 286.082031 328.5 279.597656 322.015625 279.597656 314.042969 C 279.597656 306.074219 286.082031 299.589844 294.050781 299.589844 C 302.023438 299.589844 308.507812 306.074219 308.507812 314.042969 C 308.507812 322.015625 302.023438 328.5 294.050781 328.5 Z M 316.5625 307.726562 C 313.800781 297.890625 304.757812 290.660156 294.050781 290.660156 C 283.34375 290.660156 274.304688 297.894531 271.539062 307.726562 L 259.5625 307.738281 L 259.5625 220.941406 L 292.230469 220.9375 L 328.539062 264.332031 L 328.554688 307.726562 Z M 316.5625 307.726562 " fill-opacity="1" fill-rule="nonzero"/></g><path fill="#0b3b5c" d="M 291.484375 230.792969 C 290.636719 229.777344 289.382812 229.191406 288.0625 229.191406 L 268.453125 229.191406 C 265.992188 229.191406 264 231.183594 264 233.644531 L 264 255.902344 C 264 258.363281 265.992188 260.355469 268.453125 260.355469 L 306.609375 260.355469 C 310.386719 260.355469 312.445312 255.953125 310.03125 253.050781 Z M 291.484375 230.792969 " fill-opacity="1" fill-rule="nonzero"/></svg>