<svg xmlns="http://www.w3.org/2000/svg" xmlns:xlink="http://www.w3.org/1999/xlink" width="500" zoomAndPan="magnify" viewBox="0 0 375 374.999991" height="500" preserveAspectRatio="xMidYMid meet" version="1.0"><defs><g/><clipPath id="9326980921"><path d="M 37 37 L 338 37 L 338 338 L 37 338 Z M 37 37 " clip-rule="nonzero"/></clipPath><clipPath id="3aea1d80fb"><path d="M -23.238281 163.226562 L 211.773438 -23.238281 L 398.238281 211.773438 L 163.226562 398.238281 Z M -23.238281 163.226562 " clip-rule="nonzero"/></clipPath><clipPath id="88a138a3f0"><path d="M -23.238281 163.226562 L 211.773438 -23.238281 L 398.238281 211.773438 L 163.226562 398.238281 Z M -23.238281 163.226562 " clip-rule="nonzero"/></clipPath><clipPath id="02bdd3ab5a"><path d="M 257.605469 51.839844 L 319 51.839844 L 319 113.339844 L 257.605469 113.339844 Z M 257.605469 51.839844 " clip-rule="nonzero"/></clipPath></defs><rect x="-37.5" width="450" fill="#ffffff" y="-37.499999" height="449.999989" fill-opacity="1"/><rect x="-37.5" width="450" fill="#ffffff" y="-37.499999" height="449.999989" fill-opacity="1"/><g clip-path="url(#9326980921)"><g clip-path="url(#3aea1d80fb)"><g clip-path="url(#88a138a3f0)"><path fill="#e2271b" d="M 282.035156 303.382812 C 297.195312 290.988281 309.859375 275.671875 319.082031 258.535156 C 328.300781 241.402344 334.226562 222.519531 336.296875 203.246094 C 338.363281 183.96875 336.730469 164.269531 331.367188 145.707031 C 326.058594 127.105469 316.976562 109.585938 304.941406 94.414062 C 316.976562 109.585938 326.003906 127.148438 331.3125 145.753906 C 336.621094 164.359375 338.097656 184.09375 335.738281 203.234375 C 333.425781 222.429688 327.222656 241.078125 317.691406 257.820312 C 308.160156 274.5625 295.214844 289.289062 280.03125 300.972656 C 264.847656 312.65625 247.386719 321.238281 228.972656 326.210938 C 210.613281 331.140625 191.257812 332.410156 172.53125 330 C 153.746094 327.632812 135.488281 321.574219 119.078125 312.234375 C 102.65625 302.992188 88.082031 290.46875 76.398438 275.742188 C 64.667969 260.960938 55.828125 243.976562 50.5625 225.882812 C 45.296875 207.789062 43.550781 188.632812 45.460938 169.847656 C 47.429688 151.015625 53.007812 132.5 61.984375 115.742188 C 70.980469 98.785156 83.351562 83.789062 98.183594 71.660156 C 113.011719 59.53125 130.296875 50.269531 148.769531 44.796875 C 167.195312 39.265625 186.808594 37.519531 206.082031 39.589844 C 225.304688 41.699219 244.085938 47.613281 261.050781 56.96875 C 278.019531 66.324219 293.011719 79.152344 305.050781 94.324219 C 293.011719 79.152344 278.019531 66.324219 261.105469 56.925781 C 244.152344 47.472656 225.4375 41.414062 206.199219 39.042969 C 186.957031 36.675781 167.175781 38.097656 148.441406 43.238281 C 129.457031 48.300781 111.707031 57.203125 96.144531 69.09375 C 80.628906 81.042969 67.34375 96.035156 57.566406 113.15625 C 47.746094 130.21875 41.285156 149.34375 38.769531 168.972656 C 36.257812 188.601562 37.730469 208.792969 43.027344 227.953125 C 48.375 247.070312 57.644531 265.167969 69.992188 280.730469 C 82.339844 296.296875 97.859375 309.4375 115.3125 318.949219 C 132.710938 328.503906 152.09375 334.488281 171.78125 336.5 C 191.46875 338.515625 211.503906 336.617188 230.410156 330.886719 C 249.25 325.304688 266.871094 315.777344 282.035156 303.382812 Z M 282.035156 303.382812 " fill-opacity="1" fill-rule="nonzero"/></g></g></g><g clip-path="url(#02bdd3ab5a)"><path fill="#e2271b" d="M 297.84375 74.074219 C 297.261719 74.074219 296.785156 73.601562 296.785156 73.015625 C 296.785156 73.015625 296.785156 55.039062 296.785156 55.039062 C 296.785156 53.285156 295.363281 51.863281 293.609375 51.863281 L 283.019531 51.863281 C 281.265625 51.863281 279.84375 53.285156 279.84375 55.039062 L 279.84375 73.015625 C 279.84375 73.601562 279.367188 74.074219 278.785156 74.074219 C 278.785156 74.074219 260.808594 74.074219 260.808594 74.074219 C 259.054688 74.074219 257.632812 75.496094 257.632812 77.253906 L 257.632812 87.84375 C 257.632812 89.597656 259.054688 91.019531 260.808594 91.019531 L 278.785156 91.019531 C 279.367188 91.019531 279.84375 91.492188 279.84375 92.078125 C 279.84375 92.078125 279.84375 110.054688 279.84375 110.054688 C 279.84375 111.808594 281.265625 113.230469 283.019531 113.230469 L 293.609375 113.230469 C 295.363281 113.230469 296.785156 111.808594 296.785156 110.054688 L 296.785156 92.078125 C 296.785156 91.492188 297.261719 91.019531 297.84375 91.019531 C 297.84375 91.019531 315.820312 91.019531 315.820312 91.019531 C 317.574219 91.019531 319 89.597656 319 87.84375 L 319 77.253906 C 319 75.496094 317.574219 74.074219 315.820312 74.074219 Z M 297.84375 74.074219 " fill-opacity="1" fill-rule="evenodd"/></g><g fill="#0b3b5c" fill-opacity="1"><g transform="translate(54.29883, 218.249986)"><g><path d="M 4.40625 0 C 4.863281 0 5.328125 -0.460938 5.796875 -1.390625 C 6.265625 -2.328125 6.5 -3.863281 6.5 -6 L 6.5 -40.796875 C 6.5 -42.929688 6.28125 -44.460938 5.84375 -45.390625 C 5.414062 -46.328125 4.96875 -46.796875 4.5 -46.796875 L 20.703125 -46.796875 L 20.703125 -6 C 20.703125 -3.863281 20.914062 -2.328125 21.34375 -1.390625 C 21.78125 -0.460938 22.234375 0 22.703125 0 Z M 12.5 -54.40625 C 10.03125 -54.40625 8.0625 -55.070312 6.59375 -56.40625 C 5.132812 -57.738281 4.40625 -59.570312 4.40625 -61.90625 C 4.40625 -64.238281 5.117188 -66.070312 6.546875 -67.40625 C 7.984375 -68.738281 9.96875 -69.40625 12.5 -69.40625 C 15.03125 -69.40625 17.007812 -68.738281 18.4375 -67.40625 C 19.875 -66.070312 20.59375 -64.238281 20.59375 -61.90625 C 20.59375 -59.570312 19.875 -57.738281 18.4375 -56.40625 C 17.007812 -55.070312 15.03125 -54.40625 12.5 -54.40625 Z M 12.5 -54.40625 "/></g></g></g><g fill="#0b3b5c" fill-opacity="1"><g transform="translate(81.597782, 218.249986)"><g><path d="M 26.09375 1 C 20.164062 1 15.515625 -0.0664062 12.140625 -2.203125 C 8.773438 -4.335938 6.410156 -7.238281 5.046875 -10.90625 C 3.679688 -14.570312 3 -18.703125 3 -23.296875 C 3 -27.960938 3.679688 -32.128906 5.046875 -35.796875 C 6.410156 -39.460938 8.773438 -42.378906 12.140625 -44.546875 C 15.515625 -46.710938 20.164062 -47.796875 26.09375 -47.796875 C 28.09375 -47.796875 29.910156 -47.628906 31.546875 -47.296875 C 33.179688 -46.960938 34.648438 -46.507812 35.953125 -45.9375 C 37.253906 -45.375 38.40625 -44.660156 39.40625 -43.796875 L 39.59375 -43.90625 L 39.40625 -45.796875 L 39.40625 -63 C 39.40625 -65.132812 39.1875 -66.648438 38.75 -67.546875 C 38.3125 -68.453125 37.863281 -68.9375 37.40625 -69 L 53.59375 -69 L 53.59375 -6 C 53.59375 -3.863281 53.8125 -2.328125 54.25 -1.390625 C 54.6875 -0.460938 55.132812 0 55.59375 0 L 39.40625 0 L 39.40625 -1.296875 L 39.703125 -3.203125 L 39.40625 -3.296875 C 38.40625 -2.429688 37.238281 -1.679688 35.90625 -1.046875 C 34.570312 -0.410156 33.085938 0.0859375 31.453125 0.453125 C 29.816406 0.816406 28.03125 1 26.09375 1 Z M 27.796875 -9.09375 C 29.992188 -9.09375 31.84375 -9.425781 33.34375 -10.09375 C 34.84375 -10.757812 36.039062 -11.707031 36.9375 -12.9375 C 37.84375 -14.175781 38.476562 -15.675781 38.84375 -17.4375 C 39.21875 -19.207031 39.40625 -21.160156 39.40625 -23.296875 C 39.40625 -25.429688 39.203125 -27.378906 38.796875 -29.140625 C 38.398438 -30.910156 37.765625 -32.445312 36.890625 -33.75 C 36.023438 -35.050781 34.84375 -36.050781 33.34375 -36.75 C 31.84375 -37.445312 29.992188 -37.796875 27.796875 -37.796875 C 24.597656 -37.796875 22.015625 -36.695312 20.046875 -34.5 C 18.078125 -32.300781 17.09375 -28.535156 17.09375 -23.203125 C 17.09375 -19.671875 17.523438 -16.867188 18.390625 -14.796875 C 19.265625 -12.734375 20.5 -11.265625 22.09375 -10.390625 C 23.695312 -9.523438 25.597656 -9.09375 27.796875 -9.09375 Z M 27.796875 -9.09375 "/></g></g></g><g fill="#0b3b5c" fill-opacity="1"><g transform="translate(142.195445, 218.249986)"><g><path d="M 23.703125 1 C 17.703125 1 12.914062 -0.179688 9.34375 -2.546875 C 5.78125 -4.910156 4 -8.726562 4 -14 C 4 -17.664062 4.929688 -20.628906 6.796875 -22.890625 C 8.660156 -25.160156 11.207031 -26.84375 14.4375 -27.9375 C 17.675781 -29.039062 21.363281 -29.59375 25.5 -29.59375 C 28.5625 -29.59375 31.175781 -29.328125 33.34375 -28.796875 C 35.507812 -28.265625 37.257812 -27.695312 38.59375 -27.09375 C 39.925781 -26.5 40.796875 -26.066406 41.203125 -25.796875 C 41.203125 -28.597656 40.898438 -30.878906 40.296875 -32.640625 C 39.703125 -34.410156 38.617188 -35.710938 37.046875 -36.546875 C 35.484375 -37.378906 33.300781 -37.796875 30.5 -37.796875 C 26.4375 -37.796875 22.835938 -37.394531 19.703125 -36.59375 C 16.566406 -35.800781 14.015625 -34.867188 12.046875 -33.796875 C 10.078125 -32.734375 8.726562 -31.832031 8 -31.09375 L 8 -34.09375 L 7 -43.90625 C 7.46875 -44.164062 8.703125 -44.59375 10.703125 -45.1875 C 12.703125 -45.789062 15.429688 -46.375 18.890625 -46.9375 C 22.359375 -47.507812 26.492188 -47.796875 31.296875 -47.796875 C 37.898438 -47.796875 42.929688 -46.84375 46.390625 -44.9375 C 49.859375 -43.039062 52.242188 -40.328125 53.546875 -36.796875 C 54.847656 -33.265625 55.5 -29 55.5 -24 L 55.5 -6 C 55.5 -4.132812 55.710938 -2.785156 56.140625 -1.953125 C 56.578125 -1.117188 57.03125 -0.46875 57.5 0 L 41.296875 0 L 41.296875 -2.09375 L 41.5 -4 L 41.296875 -4.203125 C 40.765625 -3.597656 40 -2.992188 39 -2.390625 C 38 -1.796875 36.765625 -1.25 35.296875 -0.75 C 33.828125 -0.25 32.125 0.164062 30.1875 0.5 C 28.257812 0.832031 26.097656 1 23.703125 1 Z M 28.40625 -9.09375 C 31.195312 -9.09375 33.539062 -9.3125 35.4375 -9.75 C 37.34375 -10.1875 38.796875 -10.785156 39.796875 -11.546875 C 40.796875 -12.316406 41.296875 -13.234375 41.296875 -14.296875 C 41.296875 -15.828125 40.144531 -17.09375 37.84375 -18.09375 C 35.550781 -19.09375 32.4375 -19.59375 28.5 -19.59375 C 24.695312 -19.59375 22.007812 -19.0625 20.4375 -18 C 18.875 -16.9375 18.09375 -15.601562 18.09375 -14 C 18.09375 -12 18.992188 -10.679688 20.796875 -10.046875 C 22.597656 -9.410156 25.132812 -9.09375 28.40625 -9.09375 Z M 28.40625 -9.09375 "/></g></g></g><g fill="#0b3b5c" fill-opacity="1"><g transform="translate(203.493075, 218.249986)"><g><path d="M 26.09375 1 C 20.164062 1 15.515625 -0.0664062 12.140625 -2.203125 C 8.773438 -4.335938 6.410156 -7.238281 5.046875 -10.90625 C 3.679688 -14.570312 3 -18.703125 3 -23.296875 C 3 -27.960938 3.679688 -32.128906 5.046875 -35.796875 C 6.410156 -39.460938 8.773438 -42.378906 12.140625 -44.546875 C 15.515625 -46.710938 20.164062 -47.796875 26.09375 -47.796875 C 28.09375 -47.796875 29.910156 -47.628906 31.546875 -47.296875 C 33.179688 -46.960938 34.648438 -46.507812 35.953125 -45.9375 C 37.253906 -45.375 38.40625 -44.660156 39.40625 -43.796875 L 39.59375 -43.90625 L 39.40625 -45.796875 L 39.40625 -63 C 39.40625 -65.132812 39.1875 -66.648438 38.75 -67.546875 C 38.3125 -68.453125 37.863281 -68.9375 37.40625 -69 L 53.59375 -69 L 53.59375 -6 C 53.59375 -3.863281 53.8125 -2.328125 54.25 -1.390625 C 54.6875 -0.460938 55.132812 0 55.59375 0 L 39.40625 0 L 39.40625 -1.296875 L 39.703125 -3.203125 L 39.40625 -3.296875 C 38.40625 -2.429688 37.238281 -1.679688 35.90625 -1.046875 C 34.570312 -0.410156 33.085938 0.0859375 31.453125 0.453125 C 29.816406 0.816406 28.03125 1 26.09375 1 Z M 27.796875 -9.09375 C 29.992188 -9.09375 31.84375 -9.425781 33.34375 -10.09375 C 34.84375 -10.757812 36.039062 -11.707031 36.9375 -12.9375 C 37.84375 -14.175781 38.476562 -15.675781 38.84375 -17.4375 C 39.21875 -19.207031 39.40625 -21.160156 39.40625 -23.296875 C 39.40625 -25.429688 39.203125 -27.378906 38.796875 -29.140625 C 38.398438 -30.910156 37.765625 -32.445312 36.890625 -33.75 C 36.023438 -35.050781 34.84375 -36.050781 33.34375 -36.75 C 31.84375 -37.445312 29.992188 -37.796875 27.796875 -37.796875 C 24.597656 -37.796875 22.015625 -36.695312 20.046875 -34.5 C 18.078125 -32.300781 17.09375 -28.535156 17.09375 -23.203125 C 17.09375 -19.671875 17.523438 -16.867188 18.390625 -14.796875 C 19.265625 -12.734375 20.5 -11.265625 22.09375 -10.390625 C 23.695312 -9.523438 25.597656 -9.09375 27.796875 -9.09375 Z M 27.796875 -9.09375 "/></g></g></g><g fill="#0b3b5c" fill-opacity="1"><g transform="translate(264.090739, 218.249986)"><g><path d="M 30.203125 1 C 24.929688 1 20.546875 0.453125 17.046875 -0.640625 C 13.546875 -1.742188 10.757812 -3.34375 8.6875 -5.4375 C 6.625 -7.539062 5.160156 -10.09375 4.296875 -13.09375 C 3.429688 -16.09375 3 -19.492188 3 -23.296875 C 3 -30.828125 5.097656 -36.789062 9.296875 -41.1875 C 13.492188 -45.59375 19.925781 -47.796875 28.59375 -47.796875 C 33.664062 -47.796875 37.785156 -47.09375 40.953125 -45.6875 C 44.117188 -44.289062 46.535156 -42.425781 48.203125 -40.09375 C 49.867188 -37.757812 51.015625 -35.175781 51.640625 -32.34375 C 52.273438 -29.507812 52.59375 -26.660156 52.59375 -23.796875 L 52.59375 -19.09375 C 52.59375 -19.300781 51.675781 -19.519531 49.84375 -19.75 C 48.007812 -19.976562 44.925781 -20.09375 40.59375 -20.09375 L 17.40625 -20.09375 C 17.40625 -16.425781 18.519531 -13.675781 20.75 -11.84375 C 22.976562 -10.007812 26.628906 -9.09375 31.703125 -9.09375 C 35.960938 -9.09375 39.773438 -9.609375 43.140625 -10.640625 C 46.515625 -11.679688 48.96875 -12.664062 50.5 -13.59375 L 50.5 -10.59375 L 51.5 -3 C 50.226562 -2.132812 47.789062 -1.25 44.1875 -0.34375 C 40.59375 0.550781 35.929688 1 30.203125 1 Z M 21.09375 -28.703125 L 38.40625 -28.703125 C 38.40625 -30.171875 38.085938 -31.601562 37.453125 -33 C 36.816406 -34.394531 35.796875 -35.539062 34.390625 -36.4375 C 32.992188 -37.34375 31.0625 -37.796875 28.59375 -37.796875 C 26.132812 -37.796875 24.15625 -37.425781 22.65625 -36.6875 C 21.15625 -35.957031 20.050781 -35.0625 19.34375 -34 C 18.644531 -32.9375 18.296875 -31.835938 18.296875 -30.703125 C 18.296875 -30.035156 18.492188 -29.535156 18.890625 -29.203125 C 19.296875 -28.867188 20.03125 -28.703125 21.09375 -28.703125 Z M 21.09375 -28.703125 "/></g></g></g></svg>