<svg xmlns="http://www.w3.org/2000/svg" xmlns:xlink="http://www.w3.org/1999/xlink" width="241" zoomAndPan="magnify" viewBox="0 0 180.75 179.999997" height="240" preserveAspectRatio="xMidYMid meet" version="1.0"><defs><clipPath id="d529e3be1b"><path d="M 90.382812 46.636719 L 118.667969 46.636719 L 118.667969 65.238281 L 90.382812 65.238281 Z M 90.382812 46.636719 " clip-rule="nonzero"/></clipPath><clipPath id="61e08d7217"><path d="M 0.507812 0.125 L 180.257812 0.125 L 180.257812 179.875 L 0.507812 179.875 Z M 0.507812 0.125 " clip-rule="nonzero"/></clipPath></defs><g clip-path="url(#d529e3be1b)"><path fill="#7ec34a" d="M 90.382812 46.636719 L 118.667969 46.636719 L 118.667969 65.238281 L 90.382812 65.238281 Z M 90.382812 46.636719 " fill-opacity="1" fill-rule="nonzero"/></g><g clip-path="url(#61e08d7217)"><path fill="#ffffff" d="M 180.257812 90.023438 C 180.257812 91.496094 180.21875 92.964844 180.148438 94.433594 C 180.074219 95.902344 179.96875 97.371094 179.824219 98.832031 C 179.679688 100.296875 179.5 101.757812 179.285156 103.210938 C 179.066406 104.667969 178.816406 106.113281 178.53125 107.558594 C 178.242188 109 177.921875 110.433594 177.5625 111.863281 C 177.207031 113.289062 176.8125 114.707031 176.386719 116.113281 C 175.960938 117.519531 175.5 118.917969 175.003906 120.300781 C 174.507812 121.6875 173.976562 123.058594 173.414062 124.417969 C 172.851562 125.777344 172.257812 127.121094 171.628906 128.449219 C 171 129.78125 170.335938 131.09375 169.644531 132.390625 C 168.949219 133.6875 168.226562 134.964844 167.46875 136.226562 C 166.714844 137.488281 165.925781 138.730469 165.109375 139.957031 C 164.292969 141.179688 163.445312 142.378906 162.570312 143.5625 C 161.695312 144.742188 160.789062 145.902344 159.855469 147.039062 C 158.921875 148.175781 157.960938 149.289062 156.976562 150.378906 C 155.988281 151.46875 154.972656 152.535156 153.933594 153.574219 C 152.894531 154.613281 151.828125 155.628906 150.738281 156.617188 C 149.648438 157.605469 148.535156 158.5625 147.398438 159.496094 C 146.261719 160.429688 145.101562 161.335938 143.921875 162.210938 C 142.738281 163.085938 141.535156 163.933594 140.3125 164.75 C 139.089844 165.570312 137.847656 166.355469 136.585938 167.113281 C 135.324219 167.867188 134.046875 168.59375 132.75 169.285156 C 131.453125 169.980469 130.136719 170.640625 128.808594 171.269531 C 127.480469 171.898438 126.132812 172.492188 124.777344 173.058594 C 123.417969 173.621094 122.042969 174.148438 120.660156 174.644531 C 119.273438 175.140625 117.878906 175.601562 116.472656 176.027344 C 115.0625 176.453125 113.648438 176.847656 112.21875 177.203125 C 110.792969 177.5625 109.359375 177.882812 107.914062 178.171875 C 106.472656 178.457031 105.023438 178.710938 103.570312 178.925781 C 102.113281 179.140625 100.65625 179.320312 99.191406 179.464844 C 97.726562 179.609375 96.261719 179.71875 94.792969 179.789062 C 93.324219 179.863281 91.851562 179.898438 90.382812 179.898438 C 88.910156 179.898438 87.441406 179.863281 85.972656 179.789062 C 84.503906 179.71875 83.035156 179.609375 81.574219 179.464844 C 80.109375 179.320312 78.648438 179.140625 77.195312 178.925781 C 75.738281 178.710938 74.292969 178.457031 72.847656 178.171875 C 71.40625 177.882812 69.972656 177.5625 68.542969 177.203125 C 67.117188 176.847656 65.699219 176.453125 64.292969 176.027344 C 62.886719 175.601562 61.488281 175.140625 60.105469 174.644531 C 58.71875 174.148438 57.347656 173.621094 55.988281 173.058594 C 54.628906 172.492188 53.285156 171.898438 51.957031 171.269531 C 50.625 170.640625 49.3125 169.980469 48.015625 169.285156 C 46.71875 168.59375 45.4375 167.867188 44.179688 167.113281 C 42.917969 166.355469 41.675781 165.570312 40.449219 164.75 C 39.226562 163.933594 38.027344 163.085938 36.84375 162.210938 C 35.664062 161.335938 34.503906 160.429688 33.367188 159.496094 C 32.230469 158.5625 31.117188 157.605469 30.027344 156.617188 C 28.9375 155.628906 27.871094 154.613281 26.832031 153.574219 C 25.792969 152.535156 24.777344 151.46875 23.789062 150.378906 C 22.800781 149.289062 21.84375 148.175781 20.910156 147.039062 C 19.976562 145.902344 19.070312 144.742188 18.195312 143.5625 C 17.320312 142.378906 16.472656 141.179688 15.65625 139.957031 C 14.835938 138.730469 14.050781 137.488281 13.292969 136.226562 C 12.539062 134.964844 11.8125 133.6875 11.121094 132.390625 C 10.425781 131.09375 9.765625 129.78125 9.136719 128.449219 C 8.507812 127.121094 7.914062 125.777344 7.347656 124.417969 C 6.785156 123.058594 6.257812 121.6875 5.761719 120.300781 C 5.265625 118.917969 4.804688 117.519531 4.378906 116.113281 C 3.953125 114.707031 3.558594 113.289062 3.203125 111.863281 C 2.84375 110.433594 2.523438 109 2.234375 107.558594 C 1.949219 106.113281 1.695312 104.667969 1.480469 103.210938 C 1.265625 101.757812 1.085938 100.296875 0.941406 98.832031 C 0.796875 97.371094 0.6875 95.902344 0.617188 94.433594 C 0.542969 92.964844 0.507812 91.496094 0.507812 90.023438 C 0.507812 88.554688 0.542969 87.082031 0.617188 85.613281 C 0.6875 84.144531 0.796875 82.679688 0.941406 81.214844 C 1.085938 79.75 1.265625 78.292969 1.480469 76.835938 C 1.695312 75.382812 1.949219 73.933594 2.234375 72.492188 C 2.523438 71.046875 2.84375 69.613281 3.203125 68.1875 C 3.558594 66.757812 3.953125 65.34375 4.378906 63.933594 C 4.804688 62.527344 5.265625 61.132812 5.761719 59.746094 C 6.257812 58.359375 6.785156 56.988281 7.347656 55.628906 C 7.914062 54.273438 8.507812 52.925781 9.136719 51.597656 C 9.765625 50.269531 10.425781 48.953125 11.121094 47.65625 C 11.8125 46.359375 12.539062 45.082031 13.292969 43.820312 C 14.050781 42.558594 14.835938 41.316406 15.65625 40.09375 C 16.472656 38.871094 17.320312 37.667969 18.195312 36.484375 C 19.070312 35.304688 19.976562 34.144531 20.910156 33.007812 C 21.84375 31.871094 22.800781 30.757812 23.789062 29.667969 C 24.777344 28.578125 25.792969 27.511719 26.832031 26.472656 C 27.871094 25.433594 28.9375 24.417969 30.027344 23.429688 C 31.117188 22.445312 32.230469 21.484375 33.367188 20.550781 C 34.503906 19.617188 35.664062 18.710938 36.84375 17.835938 C 38.027344 16.960938 39.226562 16.113281 40.449219 15.296875 C 41.675781 14.480469 42.917969 13.691406 44.179688 12.9375 C 45.4375 12.179688 46.71875 11.457031 48.015625 10.761719 C 49.3125 10.070312 50.625 9.40625 51.957031 8.777344 C 53.285156 8.148438 54.628906 7.554688 55.988281 6.992188 C 57.347656 6.429688 58.71875 5.898438 60.105469 5.402344 C 61.488281 4.90625 62.886719 4.445312 64.292969 4.019531 C 65.699219 3.59375 67.117188 3.199219 68.542969 2.84375 C 69.972656 2.484375 71.40625 2.164062 72.847656 1.875 C 74.292969 1.589844 75.738281 1.339844 77.195312 1.121094 C 78.648438 0.90625 80.109375 0.726562 81.574219 0.582031 C 83.035156 0.4375 84.503906 0.332031 85.972656 0.257812 C 87.441406 0.1875 88.910156 0.148438 90.382812 0.148438 C 91.851562 0.148438 93.324219 0.1875 94.792969 0.257812 C 96.261719 0.332031 97.726562 0.4375 99.191406 0.582031 C 100.65625 0.726562 102.113281 0.90625 103.570312 1.121094 C 105.023438 1.339844 106.472656 1.589844 107.914062 1.875 C 109.359375 2.164062 110.792969 2.484375 112.21875 2.84375 C 113.648438 3.199219 115.0625 3.59375 116.472656 4.019531 C 117.878906 4.445312 119.273438 4.90625 120.660156 5.402344 C 122.042969 5.898438 123.417969 6.429688 124.777344 6.992188 C 126.132812 7.554688 127.480469 8.148438 128.808594 8.777344 C 130.136719 9.40625 131.453125 10.070312 132.75 10.761719 C 134.046875 11.457031 135.324219 12.179688 136.585938 12.9375 C 137.847656 13.691406 139.089844 14.480469 140.3125 15.296875 C 141.535156 16.113281 142.738281 16.960938 143.921875 17.835938 C 145.101562 18.710938 146.261719 19.617188 147.398438 20.550781 C 148.535156 21.484375 149.648438 22.445312 150.738281 23.429688 C 151.828125 24.417969 152.894531 25.433594 153.933594 26.472656 C 154.972656 27.511719 155.988281 28.578125 156.976562 29.667969 C 157.960938 30.757812 158.921875 31.871094 159.855469 33.007812 C 160.789062 34.144531 161.695312 35.304688 162.570312 36.484375 C 163.445312 37.667969 164.292969 38.871094 165.109375 40.09375 C 165.925781 41.316406 166.714844 42.558594 167.46875 43.820312 C 168.226562 45.082031 168.949219 46.359375 169.644531 47.65625 C 170.335938 48.953125 171 50.269531 171.628906 51.597656 C 172.257812 52.925781 172.851562 54.273438 173.414062 55.628906 C 173.976562 56.988281 174.507812 58.359375 175.003906 59.746094 C 175.5 61.132812 175.960938 62.527344 176.386719 63.933594 C 176.8125 65.34375 177.207031 66.757812 177.5625 68.1875 C 177.921875 69.613281 178.242188 71.046875 178.53125 72.492188 C 178.816406 73.933594 179.066406 75.382812 179.285156 76.835938 C 179.5 78.292969 179.679688 79.75 179.824219 81.214844 C 179.96875 82.679688 180.074219 84.144531 180.148438 85.613281 C 180.21875 87.082031 180.257812 88.554688 180.257812 90.023438 Z M 180.257812 90.023438 " fill-opacity="1" fill-rule="nonzero"/></g><path fill="#7ec34a" d="M 166.324219 90.023438 C 166.324219 91.265625 166.292969 92.507812 166.234375 93.75 C 166.171875 94.992188 166.082031 96.230469 165.960938 97.46875 C 165.835938 98.703125 165.683594 99.9375 165.503906 101.167969 C 165.320312 102.394531 165.109375 103.621094 164.867188 104.839844 C 164.621094 106.058594 164.351562 107.269531 164.046875 108.476562 C 163.746094 109.683594 163.414062 110.878906 163.054688 112.070312 C 162.695312 113.257812 162.304688 114.4375 161.886719 115.609375 C 161.464844 116.777344 161.019531 117.9375 160.542969 119.085938 C 160.066406 120.234375 159.566406 121.371094 159.035156 122.492188 C 158.503906 123.617188 157.945312 124.726562 157.359375 125.824219 C 156.773438 126.917969 156.160156 128 155.519531 129.066406 C 154.882812 130.132812 154.214844 131.183594 153.527344 132.214844 C 152.835938 133.25 152.121094 134.265625 151.378906 135.261719 C 150.640625 136.261719 149.875 137.242188 149.085938 138.199219 C 148.296875 139.160156 147.488281 140.101562 146.652344 141.023438 C 145.816406 141.945312 144.960938 142.84375 144.082031 143.722656 C 143.203125 144.601562 142.304688 145.457031 141.382812 146.292969 C 140.460938 147.128906 139.519531 147.941406 138.558594 148.726562 C 137.597656 149.515625 136.621094 150.28125 135.621094 151.019531 C 134.621094 151.761719 133.605469 152.476562 132.574219 153.167969 C 131.539062 153.859375 130.492188 154.523438 129.425781 155.160156 C 128.359375 155.800781 127.277344 156.414062 126.179688 157 C 125.085938 157.585938 123.976562 158.144531 122.851562 158.675781 C 121.726562 159.207031 120.59375 159.710938 119.445312 160.183594 C 118.296875 160.660156 117.136719 161.109375 115.964844 161.527344 C 114.796875 161.945312 113.617188 162.335938 112.425781 162.695312 C 111.238281 163.058594 110.039062 163.386719 108.835938 163.691406 C 107.628906 163.992188 106.417969 164.265625 105.199219 164.507812 C 103.980469 164.75 102.753906 164.960938 101.527344 165.144531 C 100.296875 165.328125 99.0625 165.480469 97.824219 165.601562 C 96.589844 165.722656 95.351562 165.8125 94.109375 165.875 C 92.867188 165.9375 91.625 165.964844 90.382812 165.964844 C 89.140625 165.964844 87.898438 165.9375 86.65625 165.875 C 85.414062 165.8125 84.175781 165.722656 82.9375 165.601562 C 81.703125 165.480469 80.46875 165.328125 79.238281 165.144531 C 78.011719 164.960938 76.785156 164.75 75.566406 164.507812 C 74.347656 164.265625 73.136719 163.992188 71.929688 163.691406 C 70.722656 163.386719 69.527344 163.058594 68.335938 162.695312 C 67.148438 162.335938 65.96875 161.945312 64.796875 161.527344 C 63.628906 161.109375 62.46875 160.660156 61.320312 160.183594 C 60.171875 159.710938 59.035156 159.207031 57.914062 158.675781 C 56.789062 158.144531 55.679688 157.585938 54.582031 157 C 53.488281 156.414062 52.40625 155.800781 51.339844 155.160156 C 50.273438 154.523438 49.222656 153.859375 48.191406 153.167969 C 47.15625 152.476562 46.140625 151.761719 45.144531 151.019531 C 44.144531 150.28125 43.164062 149.515625 42.203125 148.726562 C 41.246094 147.941406 40.304688 147.128906 39.382812 146.292969 C 38.460938 145.457031 37.5625 144.601562 36.683594 143.722656 C 35.804688 142.84375 34.949219 141.945312 34.113281 141.023438 C 33.277344 140.101562 32.464844 139.160156 31.679688 138.199219 C 30.890625 137.242188 30.125 136.261719 29.386719 135.261719 C 28.644531 134.265625 27.929688 133.25 27.238281 132.214844 C 26.546875 131.183594 25.882812 130.132812 25.246094 129.066406 C 24.605469 128 23.992188 126.917969 23.40625 125.824219 C 22.820312 124.726562 22.261719 123.617188 21.730469 122.492188 C 21.199219 121.371094 20.695312 120.234375 20.222656 119.085938 C 19.746094 117.9375 19.296875 116.777344 18.878906 115.609375 C 18.460938 114.4375 18.070312 113.257812 17.710938 112.070312 C 17.347656 110.878906 17.019531 109.683594 16.714844 108.476562 C 16.414062 107.269531 16.140625 106.058594 15.898438 104.839844 C 15.65625 103.621094 15.445312 102.394531 15.261719 101.167969 C 15.078125 99.9375 14.925781 98.703125 14.804688 97.46875 C 14.683594 96.230469 14.59375 94.992188 14.53125 93.75 C 14.46875 92.507812 14.441406 91.265625 14.441406 90.023438 C 14.441406 88.78125 14.46875 87.539062 14.53125 86.296875 C 14.59375 85.054688 14.683594 83.816406 14.804688 82.582031 C 14.925781 81.34375 15.078125 80.109375 15.261719 78.878906 C 15.445312 77.652344 15.65625 76.425781 15.898438 75.207031 C 16.140625 73.988281 16.414062 72.777344 16.714844 71.570312 C 17.019531 70.367188 17.347656 69.167969 17.710938 67.980469 C 18.070312 66.789062 18.460938 65.609375 18.878906 64.441406 C 19.296875 63.269531 19.746094 62.109375 20.222656 60.960938 C 20.695312 59.8125 21.199219 58.679688 21.730469 57.554688 C 22.261719 56.429688 22.820312 55.320312 23.40625 54.226562 C 23.992188 53.128906 24.605469 52.046875 25.246094 50.980469 C 25.882812 49.914062 26.546875 48.867188 27.238281 47.832031 C 27.929688 46.800781 28.644531 45.785156 29.386719 44.785156 C 30.125 43.785156 30.890625 42.808594 31.679688 41.847656 C 32.464844 40.886719 33.277344 39.945312 34.113281 39.023438 C 34.949219 38.101562 35.804688 37.203125 36.683594 36.324219 C 37.5625 35.445312 38.460938 34.589844 39.382812 33.753906 C 40.304688 32.917969 41.246094 32.109375 42.203125 31.320312 C 43.164062 30.53125 44.144531 29.765625 45.144531 29.027344 C 46.140625 28.285156 47.15625 27.570312 48.191406 26.878906 C 49.222656 26.191406 50.273438 25.523438 51.339844 24.886719 C 52.40625 24.246094 53.488281 23.632812 54.582031 23.046875 C 55.679688 22.460938 56.789062 21.902344 57.914062 21.371094 C 59.035156 20.839844 60.171875 20.335938 61.320312 19.863281 C 62.46875 19.386719 63.628906 18.9375 64.796875 18.519531 C 65.96875 18.101562 67.148438 17.710938 68.335938 17.351562 C 69.527344 16.992188 70.722656 16.660156 71.929688 16.355469 C 73.136719 16.054688 74.347656 15.78125 75.566406 15.539062 C 76.785156 15.296875 78.011719 15.085938 79.238281 14.902344 C 80.46875 14.722656 81.703125 14.570312 82.9375 14.445312 C 84.175781 14.324219 85.414062 14.234375 86.65625 14.171875 C 87.898438 14.113281 89.140625 14.082031 90.382812 14.082031 C 91.625 14.082031 92.867188 14.113281 94.109375 14.171875 C 95.351562 14.234375 96.589844 14.324219 97.824219 14.445312 C 99.0625 14.570312 100.296875 14.722656 101.527344 14.902344 C 102.753906 15.085938 103.980469 15.296875 105.199219 15.539062 C 106.417969 15.78125 107.628906 16.054688 108.835938 16.355469 C 110.039062 16.660156 111.238281 16.992188 112.425781 17.351562 C 113.617188 17.710938 114.796875 18.101562 115.964844 18.519531 C 117.136719 18.9375 118.296875 19.386719 119.445312 19.863281 C 120.59375 20.335938 121.726562 20.839844 122.851562 21.371094 C 123.976562 21.902344 125.085938 22.460938 126.179688 23.046875 C 127.277344 23.632812 128.359375 24.246094 129.425781 24.886719 C 130.492188 25.523438 131.539062 26.191406 132.574219 26.878906 C 133.605469 27.570312 134.621094 28.285156 135.621094 29.027344 C 136.621094 29.765625 137.597656 30.53125 138.558594 31.320312 C 139.519531 32.109375 140.460938 32.917969 141.382812 33.753906 C 142.304688 34.589844 143.203125 35.445312 144.082031 36.324219 C 144.960938 37.203125 145.816406 38.101562 146.652344 39.023438 C 147.488281 39.945312 148.296875 40.886719 149.085938 41.847656 C 149.875 42.808594 150.640625 43.785156 151.378906 44.785156 C 152.121094 45.785156 152.835938 46.800781 153.527344 47.832031 C 154.214844 48.867188 154.882812 49.914062 155.519531 50.980469 C 156.160156 52.046875 156.773438 53.128906 157.359375 54.226562 C 157.945312 55.320312 158.503906 56.429688 159.035156 57.554688 C 159.566406 58.679688 160.066406 59.8125 160.542969 60.960938 C 161.019531 62.109375 161.464844 63.269531 161.886719 64.441406 C 162.304688 65.609375 162.695312 66.789062 163.054688 67.980469 C 163.414062 69.167969 163.746094 70.367188 164.046875 71.570312 C 164.351562 72.777344 164.621094 73.988281 164.867188 75.207031 C 165.109375 76.425781 165.320312 77.652344 165.503906 78.878906 C 165.683594 80.109375 165.835938 81.34375 165.960938 82.582031 C 166.082031 83.816406 166.171875 85.054688 166.234375 86.296875 C 166.292969 87.539062 166.324219 88.78125 166.324219 90.023438 Z M 166.324219 90.023438 " fill-opacity="1" fill-rule="nonzero"/><path fill="#ffffff" d="M 130.078125 119.585938 L 118.054688 107.5625 C 115.4375 104.949219 111.199219 104.949219 108.582031 107.5625 L 103.226562 112.917969 C 93.675781 108.773438 85.566406 99.585938 85.566406 99.585938 C 85.566406 99.585938 76.375 91.476562 72.230469 81.921875 L 77.585938 76.566406 C 80.203125 73.953125 80.203125 69.710938 77.585938 67.097656 L 65.5625 55.074219 C 63.175781 52.683594 59.300781 52.683594 56.910156 55.074219 C 50.730469 61.253906 48.328125 70.332031 50.859375 78.695312 C 53.367188 86.976562 59.542969 98.070312 73.3125 111.839844 C 87.082031 125.605469 98.175781 131.785156 106.457031 134.289062 C 114.820312 136.824219 123.898438 134.417969 130.074219 128.238281 C 132.464844 125.851562 132.464844 121.976562 130.074219 119.585938 Z M 130.078125 119.585938 " fill-opacity="1" fill-rule="nonzero"/></svg>