<?xml version="1.0" standalone="no"?>
<!DOCTYPE svg PUBLIC "-//W3C//DTD SVG 1.1//EN" "http://www.w3.org/Graphics/SVG/1.1/DTD/svg11.dtd">
<svg xmlns="http://www.w3.org/2000/svg" version="1.2" viewBox="0 0 249 334" width="249" height="334"><style>.a{fill:#fff}.b{fill:#004a87}.c{fill:#0b3b5c}.d{fill:#e2271d}.e{fill:#e9511e}.f{fill:#c6c3b4}.g{fill:#5c6771}</style><path class="a" d="m127.6 14.6l-2.2-1-2.2 1h-0.1l-106.1 51.5-2.8 1.3v3.2 194.1 3.1l2.8 1.4 106.1 52.1 2.2 1.1 2.3-1.1 106.1-52.1 2.8-1.4v-3.1-66.8-1.4l-0.7-1.3-12.8-20.3 12.8-20.3 0.7-1.2v-1.5-81.3-3.2l-2.8-1.3z"/><path class="b" d="m231.5 70.6l-106.1-51.5h-0.1v297.7h0.1l106.1-52.1v-66.8l-14.4-23 14.4-23z"/><path class="c" d="m125.3 19.1l-106.1 51.5v194.1l106.1 52.1v-297.7z"/><path class="d" d="m125.3 322.4l-2.2-1.1-106.1-52.1-2.8-1.4v-3.1-194.1-3.2l2.8-1.3 106.1-51.5h0.1l2.1-1v-11.1l-4.2 2-2.2 1.1h-0.1l-106.2 51.5-2.8 1.3-5.6 2.8v6.2 3.2 194.1 3.1 6.2l5.5 2.8 2.8 1.3 106.2 52.2 2.2 1.1 4.4 2.1v-11.1z"/><path class="e" d="m240.9 58.4l-2.8-1.3-106.2-51.5-2.2-1-4.3-2.1h-0.1v11.1h0.1l2.2 1 106.1 51.5 2.8 1.3v3.2 81.3 1.5l-0.7 1.2-12.8 20.3 12.8 20.3 0.7 1.3v1.4 66.8 3.1l-2.8 1.4-106.1 52.1-2.3 1.1v11.1l4.4-2.1 2.2-1.1h0.1l106.1-52.2 2.8-1.3 5.6-2.8v-6.2-3.1-66.8-1.4-2.9l-1.5-2.4-0.8-1.3-9.4-15 9.4-15 0.8-1.2 1.5-2.5v-2.8-1.5-81.3-3.2-6.2z"/><path class="f" d="m125.1 59.8l-0.4 0.2-77 33.8-7.5 48.3 28.4 37-4.5 37.6 16.9 34.3 44.1-12h0.2v-179.1z"/><path class="a" d="m209.9 142.1l-7.5-48.3-76.9-33.8-0.2-0.1v179.1l43.8 12 17-34.3-4.6-37.6z"/><path class="f" d="m125.1 243.3l-41.8 13.4 7.7 19.6h33.7 0.6v-32.9z"/><path class="a" d="m125.3 243.4v32.9h0.2 33.7l7.6-19.6z"/><path class="c" d="m61.3 131.2l10.7-7.2 14.6 2.8 0.6-5.2 10.1 37-9.2-17.9z"/><path class="c" d="m162.1 140.7l-9.3 17.9 10.1-37 0.6 5.2 14.6-2.8 10.7 7.2z"/><path class="c" d="m154.8 204.2l-29.7 24.3-29.7-24.3-1.7-7 31 5.2 0.4 0.1 0.4-0.1 31-5.2z"/><path fill-rule="evenodd" class="c" d="m358.2 219.6q-27.6 0-41.4-11.9-13.6-12-13.6-37.8 0-14.9 5.6-25.9 5.6-11.2 17.8-17.5 12.2-6.2 31.6-6.2 15.2 0 25.3 1.6 10.1 1.6 13.6 3.2v4.8l3.2 17.6q-3-2.1-9.1-4.3-5.9-2.3-14.3-3.7-8.3-1.6-18.4-1.6-11.1 0-17.9 3.5-6.8 3.5-10 10.7-3 7.1-3 17.8 0 10.8 3 17.8 3.2 7.1 10.9 10.6 7.9 3.5 21.6 3.5 13.8 0 23-3.8 9.2-3.9 12.6-7.4v4.8l1.6 16.2q-2.7 2.6-13.3 5.3-10.4 2.7-28.8 2.7zm172.4-1.6h-31.4q1.1 0 2.3-2.2 1.1-2.3 1.1-7.4v-64.1q0-3.5-0.8-4.2-0.8-0.6-5.6-0.6h-11.7q-9.3 0-15.1 2.1-5.6 1.9-7.4 3.7l3.2-18.6v-4.8h99.4v4.8l3.2 18.6q-1.8-1.8-7.5-3.7-5.7-2.1-14.9-2.1h-11.6q-5 0-5.8 0.6-0.8 0.7-0.8 4.2v64.1q0 5.1 1.2 7.4 1.1 2.2 2.2 2.2zm78 0h-31q1.1 0 2-2.2 1.2-2.3 1.2-7.4v-76.9q0-5.1-1.2-7.2-1.1-2.3-2.2-2.4h52.5q14.1 0 22.5 3.5 8.5 3.5 12.2 10.4 3.8 6.7 3.8 16.8 0 7.2-2.7 12.8-2.6 5.7-7.2 9.2-4.7 3.5-10.4 5.1v0.5q6.4 2.6 13.4 10.1 7.1 7.4 12.7 16.5 3.7 5.9 6.7 8.5 3 2.5 4.6 2.7h-40.3q1.9-0.2 3-2.1 1.3-2.1-0.8-6.7-3.4-7.7-8.2-13.3-4.8-5.6-11.2-8.5-6.2-3-14.4-3h-1.8q-4.9 0-5.7 0.8-0.8 0.8-0.8 4v19.2q0 5.1 1.1 7.4 1.1 2.2 2.2 2.2zm3.2-49.8h13.2q10.1 0 14.6-3.6 4.4-3.6 4.4-12 0-3.7-1.6-6.5-1.6-2.9-5.4-4.5-3.7-1.6-10.4-1.6h-14.8q-4.9 0-5.7 0.5-0.8 0.4-0.8 3.6v19.7q0 3.3 0.8 3.9 0.8 0.5 5.7 0.5zm178.7 49.8h-96.9q1.1 0 2.2-2.2 1.1-2.3 1.1-7.4v-76.9q0-5.1-1.1-7.2-1.1-2.3-2.2-2.4h93.5v4.8l3.2 18.6q-4-1.8-14.1-3.7-10.1-2.1-24.3-2.1h-23.7q-4.8 0-5.8 0.8-0.8 0.6-0.8 4v11.9q0 3.5 0.8 4.1 1 0.7 5.6 0.7h23.1q9.3 0 14.9-1 5.7-1.1 7.5-2.2-0.6 3-1.4 7-0.8 4-1.3 7.7-0.5 3.7-0.5 6.1h-42.3q-4.6 0-5.6 0.6-0.8 0.5-0.8 4.2v11.8q0 3.7 0.8 4.4 0.8 0.6 5.6 0.6h43.3q9.3 0 14.9-2.1 5.7-2.2 7.5-4.3l-3.2 19.2zm-55.4-110.2h-14.5q2.1-2.4 4.7-5.3 2.7-3 5.3-5.9 2.5-2.9 4.3-4.7 1.3-1.4 1.8-2.2 0.4-1 0.4-1.1h13q0 0.6 2.1 3.3 1 1.2 3.2 4 2.4 2.8 5.1 6 2.9 3.2 5.2 5.9h-14.6l-7.4-10.9zm121.8 111.8q-17.5 0-31-1.6-13.4-1.6-19.3-3.2v-4.8l-3.2-20.3q3 2.5 10 5.4 7.1 2.9 18.2 5 11 1.9 25.6 1.9 9 0 13.8-1.1 4.8-1.3 6.5-3.5 1.8-2.3 1.8-5.3 0-3.9-2.6-5.9-2.5-2.3-9.3-3.7-6.5-1.5-18.7-3.1-14.6-1.9-24.4-5.3-9.7-3.3-14.5-9.4-4.8-6.3-4.8-16.5 0-8.3 4.3-14.6 4.3-6.2 13.9-9.8 9.6-3.5 25.5-3.5 16.7 0 28.5 1.6 11.9 1.6 16.4 3.2v4.8l4.8 17.6q-4-2-11.6-4.3-7.5-2.2-17.4-3.7-10-1.6-21.5-1.6-7.2 0-11.2 1.3-4 1.1-5.8 3.4-1.6 2.1-1.6 5.3 0 3.8 2.9 6.2 3 2.3 9.8 3.7 6.7 1.4 18.1 2.7 17.4 1.9 26.9 5.8 9.4 3.8 13 9.9 3.7 5.9 3.7 14.4 0 7.4-2.8 13-2.7 5.5-8.5 9-5.6 3.5-14.5 5.3-8.9 1.7-21 1.7z"/><path class="d" d="m452.8 175.7l-16.3 16.3-16.3-16.3 16.3-16.3z"/><path fill-rule="evenodd" class="g" d="m473.1 275.4q-2.7 0-4.7-1.1-2-1.1-3.2-3-1-1.9-1-4.4v-11.1q0-2.5 1-4.4 1.2-1.9 3.2-3 2-1 4.7-1 2.6 0 4.6 1 2.1 1.1 3.1 2.9 1.2 1.9 1.2 4.4 0 0.2-0.1 0.3-0.2 0.1-0.3 0.1l-1.3 0.1q-0.4 0-0.4-0.4v-0.1q0-2.9-1.9-4.7-1.8-1.8-4.9-1.8-3.1 0-5 1.8-1.9 1.8-1.9 4.7v11.3q0 2.9 1.9 4.7 1.9 1.8 5 1.8 3.1 0 4.9-1.8 1.9-1.8 1.9-4.7v-0.1q0-0.3 0.4-0.3l1.3 0.1q0.4 0 0.4 0.3 0 2.5-1.2 4.4-1 1.8-3.1 2.9-2 1.1-4.6 1.1zm23.7-0.1q-2.7 0-4.7-1.1-2.1-1.1-3.2-3.1-1.1-2-1.1-4.6v-10.3q0-2.6 1.1-4.6 1.1-2 3.2-3.1 2-1.1 4.7-1.1 2.7 0 4.8 1.1 2.1 1.1 3.2 3.1 1.1 2 1.1 4.6v10.3q0 2.6-1.1 4.6-1.1 2-3.2 3.1-2.1 1.1-4.8 1.1zm0-1.8q3.2 0 5.1-1.9 2-1.9 2-5.1v-10.3q0-3.1-2-5-1.9-2-5.1-2-3.1 0-5 2-1.9 1.9-1.9 5v10.3q0 3.2 1.9 5.1 1.9 1.9 5 1.9zm32.4 1.5q-0.4 0-0.5-0.3l-6-12.4q0-0.1-0.1-0.1h-7.4q-0.2 0-0.2 0.2v12.2q0 0.4-0.3 0.4h-1.3q-0.4 0-0.4-0.4v-26.5q0-0.4 0.4-0.4h9.8q3.3 0 5.3 2 2 2.1 2 5.3 0 2.8-1.5 4.7-1.5 1.9-4.1 2.4-0.2 0-0.1 0.1l5.9 12.3q0.1 0.1 0.1 0.2 0 0.3-0.3 0.3zm-14-25.5q-0.2 0-0.2 0.2v10.6q0 0.2 0.2 0.2h7.8q2.4 0 3.9-1.5 1.5-1.6 1.5-4 0-2.4-1.5-3.9-1.5-1.6-3.9-1.6zm37.8 25.5q-0.3 0-0.4-0.3l-6-12.4q-0.1-0.1-0.2-0.1h-7.3q-0.2 0-0.2 0.2v12.2q0 0.4-0.4 0.4h-1.3q-0.4 0-0.4-0.4v-26.5q0-0.4 0.4-0.4h9.9q3.2 0 5.2 2 2 2.1 2 5.3 0 2.8-1.5 4.7-1.5 1.9-4.1 2.4-0.2 0-0.1 0.1l6 12.3q0 0.1 0 0.2 0 0.3-0.3 0.3zm-14-25.5q-0.1 0-0.1 0.2v10.6q0 0.2 0.1 0.2h7.8q2.5 0 3.9-1.5 1.6-1.6 1.6-4 0-2.4-1.6-3.9-1.4-1.6-3.9-1.6zm39.1-0.4q0 0.4-0.4 0.4h-14.8q-0.1 0-0.1 0.2v10.5q0 0.2 0.1 0.2h10.5q0.4 0 0.4 0.4v1q0 0.4-0.4 0.4h-10.5q-0.1 0-0.1 0.2v10.6q0 0.2 0.1 0.2h14.8q0.4 0 0.4 0.4v1q0 0.4-0.4 0.4h-16.6q-0.4 0-0.4-0.4v-26.5q0-0.4 0.4-0.4h16.6q0.4 0 0.4 0.4zm22.3-1.5q0.3 0 0.3 0.4v1.1q0 0.4-0.3 0.4h-7.8q-0.2 0-0.2 0.1v25q0 0.3-0.4 0.3h-1.3q-0.4 0-0.4-0.3v-25q0-0.1-0.1-0.1h-7.4q-0.4 0-0.4-0.4v-1.1q0-0.4 0.4-0.4zm12.2 27.7q-2.7 0-4.7-1.1-2.1-1.2-3.2-3.2-1.1-2-1.1-4.6v-10.2q0-2.6 1.1-4.6 1.1-2 3.2-3.1 2-1.2 4.7-1.2 2.7 0 4.8 1.2 2 1.1 3.2 3.1 1.1 2 1.1 4.6v10.2q0 2.6-1.1 4.6-1.2 2-3.2 3.2-2.1 1.1-4.8 1.1zm0-1.8q3.2 0 5.1-1.9 1.9-2 1.9-5.1v-10.4q0-3.1-1.9-5-1.9-1.9-5.1-1.9-3.1 0-5 1.9-1.9 1.9-1.9 5v10.4q0 3.1 1.9 5.1 1.9 1.9 5 1.9zm32.3 1.4q-0.3 0-0.4-0.2l-6-12.4q0-0.1-0.1-0.1h-7.4q-0.2 0-0.2 0.1v12.3q0 0.3-0.4 0.3h-1.3q-0.3 0-0.3-0.3v-26.6q0-0.4 0.3-0.4h9.9q3.3 0 5.2 2.1 2.1 2 2.1 5.3 0 2.7-1.6 4.7-1.5 1.8-4 2.3-0.2 0.1-0.2 0.2l6 12.3q0 0.1 0 0.2 0 0.2-0.3 0.2zm-13.9-25.4q-0.2 0-0.2 0.1v10.7q0 0.1 0.2 0.1h7.8q2.4 0 3.9-1.5 1.5-1.5 1.5-3.9 0-2.5-1.5-4-1.5-1.5-3.9-1.5zm39.2 25.4q-0.3 0-0.5-0.3l-1.6-5.2q-0.1-0.1-0.2-0.1h-12.2q-0.1 0-0.1 0.1l-1.7 5.2q-0.1 0.3-0.4 0.3h-1.4q-0.4 0-0.3-0.4l8.7-26.5q0.1-0.4 0.4-0.4h1.8q0.3 0 0.4 0.4l8.7 26.5 0.1 0.2q0 0.2-0.4 0.2zm-14-7.5q0 0.1 0 0.2 0.1 0 0.2 0h10.9q0.1 0 0.1 0 0.1-0.1 0.1-0.2l-5.5-16.9q-0.1-0.1-0.2-0.1 0 0-0.1 0.1zm29.3 7.5q-0.4 0-0.4-0.4v-26.5q0-0.4 0.4-0.4h9.1q3.7 0 5.9 2 2.2 1.9 2.2 5.3v12.6q0 3.4-2.2 5.4-2.2 2-5.9 2zm1.6-2q0 0.1 0.2 0.1h7.3q2.8 0 4.3-1.5 1.6-1.5 1.7-4.2v-12.2q0-2.6-1.6-4.1-1.6-1.6-4.4-1.6h-7.3q-0.2 0-0.2 0.2zm39.5-23.9q0 0.4-0.4 0.4h-14.8q-0.2 0-0.2 0.1v10.6q0 0.1 0.2 0.1h10.5q0.4 0 0.4 0.4v1.1q0 0.4-0.4 0.4h-10.5q-0.2 0-0.2 0.1v10.7q0 0.1 0.2 0.1h14.8q0.4 0 0.4 0.4v1.1q0 0.4-0.4 0.4h-16.6q-0.4 0-0.4-0.4v-26.6q0-0.3 0.4-0.3h16.6q0.4 0 0.4 0.3zm21.7 26.2q-4.3 0-6.8-1.9-2.5-1.9-2.5-5.2v-1.3q0-0.4 0.4-0.4h1.2q0.4 0 0.4 0.4v1.2q0 2.4 2 3.9 2 1.5 5.5 1.5 3.2 0 4.9-1.3 1.8-1.4 1.8-3.8 0-1.4-0.8-2.5-0.8-1.1-2.4-2-1.5-0.9-4.4-2.2-3.1-1.2-4.6-2.1-1.5-0.9-2.5-2.1-0.9-1.4-0.9-3.4 0-3.2 2.2-5 2.2-1.7 6.1-1.7 4.3 0 6.7 1.9 2.4 2 2.4 5.3v0.9q0 0.4-0.4 0.4h-1.3q-0.4 0-0.4-0.4v-0.8q0-2.5-1.9-4-1.8-1.5-5.2-1.5-3 0-4.6 1.3-1.6 1.2-1.6 3.5 0 1.5 0.8 2.5 0.7 1 2.1 1.7 1.4 0.7 4.3 1.9 2.8 1.2 4.6 2.3 1.8 1 2.8 2.5 1 1.4 1 3.4 0 3.2-2.3 5.1-2.4 1.9-6.6 1.9zm32.6-26.2q0 0.4-0.4 0.4h-14.8q-0.1 0-0.1 0.2v10.5q0 0.2 0.1 0.2h10.5q0.4 0 0.4 0.4v1q0 0.4-0.4 0.4h-10.5q-0.1 0-0.1 0.2v10.6q0 0.2 0.1 0.2h14.8q0.4 0 0.4 0.4v1q0 0.4-0.4 0.4h-16.6q-0.4 0-0.4-0.4v-26.5q0-0.4 0.4-0.4h16.6q0.4 0 0.4 0.4zm14.5 26.2q-2.7 0-4.7-1.1-2-1-3.2-2.9-1.1-1.9-1.1-4.4v-11.2q0-2.5 1.1-4.4 1.2-1.9 3.2-2.9 2-1.1 4.7-1.1 2.6 0 4.6 1.1 2 1 3.1 2.8 1.1 1.9 1.1 4.3v0.5q0 0.4-0.4 0.4h-1.3q-0.3 0-0.3-0.4v-0.5q0-2.8-1.9-4.6-1.9-1.7-4.9-1.7-3.1 0-5 1.8-1.9 1.7-1.9 4.6v11.4q0 2.9 1.9 4.7 1.9 1.7 5 1.7 3 0 4.9-1.6 1.9-1.8 1.9-4.6v-3.9q0-0.2-0.2-0.2h-6.1q-0.4 0-0.4-0.4v-1q0-0.4 0.4-0.4h7.9q0.4 0 0.4 0.4v5.1q0 3.9-2.4 6.2-2.4 2.3-6.4 2.3zm24.6 0q-2.7 0-4.7-1.1-2.1-1.1-3.2-3-1.1-2-1.1-4.5v-18.7q0-0.3 0.4-0.3h1.2q0.4 0 0.4 0.3v18.8q0 3 1.9 4.8 2 1.8 5.1 1.8 3.2 0 5.1-1.8 1.9-1.8 1.9-4.8v-18.8q0-0.3 0.4-0.3h1.3q0.4 0 0.4 0.3v18.7q0 2.5-1.2 4.5-1.1 1.9-3.2 3-2 1.1-4.7 1.1zm32.9-0.3q-0.3 0-0.4-0.3l-6-12.4q0-0.1-0.2-0.1h-7.3q-0.2 0-0.2 0.1v12.3q0 0.4-0.4 0.4h-1.3q-0.4 0-0.4-0.4v-26.6q0-0.3 0.4-0.3h9.9q3.2 0 5.2 2 2.1 2 2.1 5.3 0 2.8-1.6 4.7-1.5 1.8-4.1 2.3-0.2 0.1-0.1 0.2l6 12.3q0 0.1 0 0.2 0 0.3-0.3 0.3zm-13.9-25.5q-0.2 0-0.2 0.1v10.7q0 0.1 0.2 0.1h7.8q2.4 0 3.9-1.5 1.5-1.5 1.5-3.9 0-2.5-1.5-4-1.5-1.5-3.9-1.5zm29.7 25.8q-2.7 0-4.7-1.1-2.1-1.2-3.2-3.1-1.1-2.1-1.1-4.7v-10.2q0-2.6 1.1-4.6 1.1-2 3.2-3.1 2-1.2 4.7-1.2 2.7 0 4.8 1.2 2 1.1 3.2 3.1 1.1 2 1.1 4.6v10.2q0 2.6-1.1 4.7-1.2 1.9-3.2 3.1-2.1 1.1-4.8 1.1zm0-1.8q3.2 0 5.1-1.9 1.9-2 1.9-5.1v-10.3q0-3.2-1.9-5.1-1.9-1.9-5.1-1.9-3.1 0-5 1.9-1.9 1.9-1.9 5.1v10.3q0 3.1 1.9 5.1 1.9 1.9 5 1.9zm23.7 1.8q-4.3 0-6.8-1.9-2.5-2-2.5-5.2v-1.3q0-0.4 0.4-0.4h1.2q0.4 0 0.4 0.4v1.2q0 2.4 2 3.9 2 1.4 5.4 1.4 3.3 0 5-1.3 1.7-1.4 1.7-3.7 0-1.5-0.8-2.5-0.7-1.1-2.3-2.1-1.6-0.9-4.5-2.1-3-1.3-4.6-2.2-1.5-0.8-2.4-2.1-1-1.3-1-3.4 0-3.2 2.2-4.9 2.3-1.8 6.2-1.8 4.2 0 6.6 2 2.4 1.9 2.4 5.2v0.9q0 0.4-0.3 0.4h-1.3q-0.4 0-0.4-0.4v-0.8q0-2.4-1.9-3.9-1.9-1.5-5.3-1.5-2.9 0-4.5 1.2-1.6 1.2-1.6 3.5 0 1.6 0.7 2.6 0.8 0.9 2.1 1.7 1.4 0.7 4.3 1.9 2.9 1.1 4.7 2.2 1.7 1.1 2.8 2.5 1 1.5 1 3.5 0 3.1-2.4 5.1-2.3 1.9-6.5 1.9z"/><path fill-rule="evenodd" class="d" d="m327.7 99q-8.8 0-13.8-4.5-5-4.6-5-14 0-5.5 2.1-9.7 2.1-4.3 6.7-6.6 4.5-2.4 11.8-2.4 5.3 0 9.2 0.8 3.9 0.8 5.4 1.6v0.6l0.6 3q-1.6-1.2-5.6-2.4-4-1.2-9.5-1.2-5.5 0-9.5 1.7-3.9 1.8-5.9 5.4-2 3.6-2 9.2 0 5.5 2 9 2 3.6 5.6 5.3 3.5 1.7 8 1.7 3.9 0 7.2-0.8 3.3-0.9 5.2-2.8 2-1.8 2-4.8v-3.4q0-1.4-0.3-1.5-0.2-0.3-1.5-0.3h-4.2q-3.4 0-5.4 0.4-2 0.5-2.6 0.9l0.6-2.4v-1.2h17.7q-0.4 0.1-0.9 0.9-0.3 0.8-0.3 2.7v10.6q0 1.9 0.3 2.8 0.5 0.8 0.9 0.8h-4.3v-3.2l0.1-1.1-0.1-0.1q-0.6 0.9-2.4 2.1-1.7 1.2-4.7 2.1-3 0.8-7.4 0.8zm26-0.6q0.5 0 0.8-0.8 0.4-0.9 0.4-2.8v-28.8q0-1.9-0.4-2.7-0.4-0.8-0.8-0.9h18.4q5.6 0 8.7 1.3 3.1 1.2 4.4 3.6 1.3 2.3 1.3 5.8 0 3.4-1.5 5.6-1.5 2.1-3.9 3.3-2.4 1.1-5.2 1.5v0.2q3.6 1 6.8 4 3.1 3 5.4 6.5 1.4 2.2 2.5 3.2 1.2 1 1.7 1h-7.2q0.5 0 0.6-0.7 0.1-0.8-0.9-2.6-1.9-3.4-4.4-5.9-2.4-2.5-5.8-3.9-3.5-1.4-8.6-1.4h-5.5q-1.8 0-2.1 0.3-0.3 0.3-0.3 1.5v9.1q0 1.9 0.4 2.8 0.4 0.8 0.8 0.8zm6.8-16.9h10.9q5.9 0 8.9-2.1 3-2.1 3-6.3 0-2.5-1-4.4-0.9-1.9-3.6-2.9-2.7-1-7.9-1h-10.3q-1.9 0-2.2 0.2-0.3 0.2-0.3 1.4v13.5q0 1.2 0.3 1.5 0.3 0.1 2.2 0.1zm53.9 17.5h-0.6q-6.1 0-9.7-1.7-3.6-1.8-5.1-5.3-1.6-3.6-1.6-9.1v-17q0-1.9-0.4-2.7-0.4-0.8-0.8-0.8h5.6q-0.4 0.1-0.8 0.8-0.4 0.8-0.4 2.7v16.8q0 5.8 1.7 8.8 1.6 2.9 4.5 4 3 1 7 1h0.7q2.9 0 5.2-0.5 2.4-0.5 4.1-2 1.7-1.4 2.7-4.1 1-2.8 1-7.2v-16.8q0-1.9-0.5-2.7-0.3-0.8-0.7-0.8h5.6q-0.4 0.1-0.8 0.9-0.4 0.8-0.4 2.7v16.9q0 5.5-1.6 9.1-1.6 3.5-5.2 5.3-3.5 1.7-9.5 1.7zm24.8-0.6q0.4 0 0.7-0.8 0.5-0.9 0.5-2.8v-28.8q0-1.9-0.5-2.7-0.4-0.8-0.8-0.9h19.6q5.1 0 8 1.3 2.9 1.3 4.1 3.9 1.2 2.5 1.2 6.2 0 3.7-1.3 6.2-1.3 2.6-4.2 3.8-2.9 1.3-7.8 1.3h-15.2v9.7q0 1.9 0.4 2.8 0.4 0.8 0.8 0.8zm6.8-15.8h12.2q4 0 6.4-0.9 2.3-1.1 3.3-3 1-2 1-4.9 0-3.1-1-5-1.1-2-3.4-3-2.3-1-6.3-1h-12.2q-1.8 0-2.1 0.2-0.3 0.2-0.3 1.4v14.5q0 1.2 0.3 1.5 0.3 0.2 2.1 0.2zm52.8 16.4h-1.8q-10.5 0-15-4.7-4.5-4.7-4.5-14.1 0-6 1.9-10.1 2-4.1 6.2-6.2 4.3-2.1 11.4-2.1h1.8q6.9 0 11.1 2.1 4.3 2.1 6.2 6.2 1.9 4.1 1.9 10.1 0 9.4-4.4 14.1-4.5 4.7-14.8 4.7zm-1.2-2.5h0.6q5.3 0 9-1.3 3.7-1.4 5.6-5 2-3.5 2-10 0-6.1-2-9.6-1.9-3.5-5.6-4.9-3.8-1.5-9-1.5h-0.6q-5.4 0-9.2 1.5-3.7 1.5-5.7 5-2 3.5-2 9.5 0 6.4 2 10 2 3.5 5.8 5 3.8 1.3 9.1 1.3z"/></svg>